<svg width="105" height="105" viewBox="0 0 105 105" fill="none" xmlns="http://www.w3.org/2000/svg">
<path d="M27.0279 23.6398C27.21 23.6389 27.3921 23.6381 27.5798 23.6373C27.78 23.6375 27.9802 23.6377 28.1864 23.6379C28.5053 23.6369 28.5053 23.6369 28.8306 23.636C29.5463 23.6341 30.262 23.6338 30.9777 23.6335C31.4895 23.6325 32.0012 23.6315 32.513 23.6303C33.9057 23.6276 35.2985 23.6262 36.6912 23.6253C37.5608 23.6247 38.4303 23.6238 39.2999 23.6229C41.7073 23.6203 44.1146 23.6181 46.522 23.6174C46.6761 23.6174 46.8302 23.6173 46.9889 23.6173C47.1434 23.6172 47.2978 23.6172 47.457 23.6171C47.77 23.6171 48.0829 23.617 48.3959 23.6169C48.5512 23.6168 48.7064 23.6168 48.8664 23.6167C51.3822 23.6159 53.898 23.6122 56.4138 23.6073C58.9964 23.6023 61.5791 23.5997 64.1617 23.5995C65.6119 23.5993 67.0621 23.5981 68.5122 23.5942C69.8761 23.5907 71.24 23.5903 72.6038 23.5922C73.1048 23.5923 73.6057 23.5914 74.1066 23.5893C74.7898 23.5867 75.4729 23.5879 76.1561 23.5901C76.3549 23.5884 76.5537 23.5867 76.7585 23.585C78.0315 23.5946 78.9645 23.763 79.9365 24.6601C80.037 24.7837 80.1376 24.9074 80.2412 25.0348C80.3444 25.1585 80.4477 25.2821 80.5541 25.4095C80.983 26.0246 81.0429 26.5646 81.0441 27.2911C81.0449 27.4733 81.0457 27.6555 81.0466 27.8433C81.0464 28.0436 81.0462 28.2439 81.046 28.4502C81.047 28.7693 81.047 28.7693 81.0479 29.0948C81.0497 29.8109 81.0501 30.5269 81.0504 31.243C81.0513 31.7551 81.0524 32.2671 81.0535 32.7792C81.0563 34.1726 81.0577 35.5661 81.0586 36.9596C81.0592 37.8296 81.0601 38.6997 81.061 39.5697C81.0636 41.9783 81.0657 44.387 81.0664 46.7956C81.0665 46.9498 81.0665 47.104 81.0666 47.2628C81.0666 47.4174 81.0667 47.5719 81.0667 47.7311C81.0668 48.0443 81.0669 48.3574 81.067 48.6706C81.067 48.8259 81.0671 48.9813 81.0671 49.1413C81.068 51.6585 81.0716 54.1756 81.0765 56.6927C81.0815 59.2768 81.0841 61.8608 81.0844 64.4449C81.0846 65.8958 81.0858 67.3467 81.0896 68.7977C81.0932 70.1623 81.0935 71.5269 81.0917 72.8915C81.0915 73.3927 81.0924 73.8939 81.0945 74.3951C81.0972 75.0786 81.096 75.7621 81.0938 76.4456C81.0963 76.744 81.0963 76.744 81.0989 77.0483C81.0893 78.322 80.9209 79.2556 80.0243 80.228C79.9007 80.3286 79.7772 80.4292 79.6498 80.5329C79.5262 80.6362 79.4026 80.7395 79.2753 80.846C78.6605 81.2751 78.1209 81.3351 77.3947 81.3363C77.1215 81.3375 77.1215 81.3375 76.8428 81.3387C76.6427 81.3385 76.4425 81.3384 76.2362 81.3382C75.9173 81.3391 75.9173 81.3391 75.592 81.3401C74.8763 81.3419 74.1606 81.3422 73.4449 81.3425C72.9332 81.3435 72.4214 81.3446 71.9096 81.3457C70.5169 81.3485 69.1242 81.3498 67.7314 81.3507C66.8619 81.3513 65.9923 81.3522 65.1227 81.3532C62.7154 81.3557 60.308 81.3579 57.9006 81.3586C57.6695 81.3587 57.6695 81.3587 57.4337 81.3587C57.2792 81.3588 57.1248 81.3588 56.9657 81.3589C56.6527 81.359 56.3397 81.3591 56.0267 81.3592C55.8714 81.3592 55.7162 81.3593 55.5562 81.3593C53.0404 81.3601 50.5246 81.3638 48.0089 81.3687C45.4262 81.3737 42.8435 81.3763 40.2609 81.3766C38.8107 81.3768 37.3605 81.378 35.9104 81.3818C34.5465 81.3854 33.1827 81.3857 31.8188 81.3839C31.3179 81.3837 30.8169 81.3846 30.316 81.3867C29.6328 81.3894 28.9497 81.3881 28.2665 81.3859C28.0677 81.3876 27.8689 81.3893 27.6641 81.3911C26.3911 81.3815 25.4581 81.213 24.4862 80.3159C24.3856 80.1923 24.2851 80.0686 24.1815 79.9412C24.0782 79.8176 23.9749 79.6939 23.8685 79.5665C23.4396 78.9514 23.3797 78.4115 23.3785 77.6849C23.3777 77.5027 23.3769 77.3205 23.3761 77.1328C23.3762 76.9325 23.3764 76.7322 23.3766 76.5258C23.376 76.3131 23.3754 76.1004 23.3747 75.8813C23.3729 75.1652 23.3726 74.4491 23.3723 73.733C23.3713 73.221 23.3702 72.7089 23.3691 72.1969C23.3663 70.8034 23.365 69.4099 23.364 68.0164C23.3635 67.1464 23.3626 66.2764 23.3616 65.4064C23.3591 62.9977 23.3569 60.589 23.3562 58.1804C23.3561 58.0262 23.3561 57.872 23.356 57.7132C23.356 57.5587 23.3559 57.4041 23.3559 57.2449C23.3558 56.9317 23.3557 56.6186 23.3556 56.3054C23.3556 56.1501 23.3555 55.9948 23.3555 55.8347C23.3546 53.3176 23.351 50.8004 23.3461 48.2833C23.3411 45.6993 23.3385 43.1152 23.3382 40.5312C23.338 39.0802 23.3368 37.6293 23.333 36.1783C23.3294 34.8137 23.3291 33.4492 23.3309 32.0846C23.3311 31.5834 23.3302 31.0822 23.3281 30.581C23.3254 29.8974 23.3267 29.214 23.3289 28.5304C23.3272 28.3315 23.3255 28.1326 23.3237 27.9277C23.3333 26.654 23.5017 25.7205 24.3983 24.748C24.5219 24.6474 24.6455 24.5468 24.7728 24.4431C24.8964 24.3398 25.02 24.2365 25.1473 24.1301C25.7621 23.7009 26.3017 23.641 27.0279 23.6398ZM39.3856 37.3414C38.8288 38.2945 38.5595 39.2593 38.3273 40.3288C38.2892 40.4977 38.2511 40.6666 38.2119 40.8407C38.0863 41.3999 37.9631 41.9596 37.8399 42.5193C37.7512 42.9166 37.6624 43.3139 37.5734 43.7112C37.3383 44.7627 37.1052 45.8147 36.8725 46.8668C36.643 47.903 36.4114 48.9388 36.1801 49.9747C35.7694 51.8145 35.3617 53.6551 34.9554 55.4959C34.683 56.7285 34.4076 57.9604 34.1297 59.1918C33.9503 59.9878 33.7722 60.7842 33.5944 61.5807C33.5106 61.9542 33.4263 62.3276 33.3413 62.7008C33.2241 63.2155 33.1091 63.7306 32.9947 64.2458C32.943 64.469 32.943 64.469 32.8903 64.6967C32.4935 66.482 32.4935 66.482 32.986 68.1605C33.713 68.6082 34.1319 68.6233 34.9703 68.4761C35.9906 67.5023 36.2658 66.5927 36.5381 65.2334C36.5787 65.0458 36.6192 64.8581 36.6609 64.6648C36.7886 64.0689 36.9109 63.472 37.0334 62.875C37.1195 62.4723 37.2058 62.0696 37.2925 61.667C37.3743 61.2825 37.4557 60.8979 37.5369 60.5133C37.575 60.3329 37.6131 60.1526 37.6523 59.9667C37.6868 59.7982 37.7213 59.6296 37.7568 59.456C37.7873 59.3084 37.8177 59.1609 37.8491 59.0089C37.9352 58.521 37.9352 58.521 37.9138 57.7473C40.2035 57.7473 42.4932 57.7473 44.8523 57.7473C44.9651 58.3287 45.0778 58.9101 45.194 59.5091C45.3573 60.3249 45.5252 61.1398 45.6933 61.9546C45.7418 62.192 45.7902 62.4293 45.8401 62.6738C45.9926 63.4124 46.1511 64.1496 46.311 64.8867C46.359 65.122 46.407 65.3574 46.4565 65.5998C46.7364 66.8612 46.9321 67.7075 48.0062 68.4761C48.8509 68.6522 49.1579 68.5463 49.8853 68.0816C50.6751 66.8844 50.1407 65.4183 49.8656 64.0726C49.7642 63.6065 49.6616 63.1408 49.5578 62.6752C49.5017 62.4191 49.4456 62.1629 49.3878 61.899C49.2349 61.2026 49.0809 60.5063 48.9263 59.8102C48.7969 59.2269 48.6681 58.6434 48.5393 58.0599C48.2353 56.6829 47.9299 55.3061 47.6238 53.9295C47.3089 52.5134 46.9966 51.0968 46.6854 49.6799C46.4172 48.4589 46.1473 47.2383 45.876 46.0179C45.7144 45.291 45.5535 44.564 45.3943 43.8365C45.2168 43.0254 45.0356 42.2151 44.8541 41.4049C44.8024 41.1664 44.7507 40.9279 44.6975 40.6822C44.2122 38.4853 44.2122 38.4853 42.9074 36.7103C41.5077 36.201 40.4979 36.358 39.3856 37.3414ZM54.4629 36.9878C54.0404 37.5458 54.0404 37.5458 54.0773 38.3012C54.2847 39.1585 54.2847 39.1585 55.3652 39.8659C56.7529 39.8659 58.1405 39.8659 59.5703 39.8659C59.5703 48.1965 59.5703 56.5271 59.5703 65.1102C58.1826 65.1102 56.7949 65.1102 55.3652 65.1102C54.2847 65.8175 54.2847 65.8175 54.0773 66.6748C54.0404 67.4303 54.0404 67.4303 54.4629 67.9883C55.3736 68.8287 56.6821 68.6255 57.8422 68.6158C58.2353 68.6173 58.2353 68.6173 58.6363 68.6188C59.3314 68.6197 60.0263 68.6155 60.7214 68.6096C61.1469 68.6076 61.5721 68.6096 61.9976 68.6132C62.8159 68.6197 63.6339 68.6189 64.4522 68.6158C64.7056 68.6179 64.959 68.62 65.2201 68.6222C66.6388 68.6475 66.6388 68.6475 67.8257 67.9817C68.274 67.2973 68.3444 66.9647 68.1908 66.162C67.7983 65.6776 67.4851 65.3882 66.9293 65.1102C65.611 65.1102 64.2927 65.1102 62.9344 65.1102C62.9344 56.7796 62.9344 48.4489 62.9344 39.8659C64.2527 39.8659 65.571 39.8659 66.9293 39.8659C67.7964 39.519 67.7964 39.519 68.1908 38.814C68.3113 38.0221 68.2672 37.6691 67.8274 36.9935C66.9215 36.1445 65.6133 36.3505 64.4522 36.3602C64.0592 36.3587 64.0592 36.3587 63.6582 36.3572C62.963 36.3563 62.2681 36.3605 61.573 36.3664C61.1475 36.3685 60.7223 36.3664 60.2969 36.3628C59.4785 36.3563 58.6606 36.3571 57.8422 36.3602C57.4621 36.357 57.4621 36.357 57.0743 36.3538C55.656 36.3299 55.656 36.3299 54.4629 36.9878Z" fill="url(#paint0_linear_161_974)"/>
<path d="M84.3809 72.0513C86.0789 72.037 87.7769 72.0255 89.475 72.0186C90.2636 72.0153 91.0522 72.0109 91.8408 72.0037C92.6028 71.9968 93.3649 71.9931 94.127 71.9915C94.4167 71.9903 94.7064 71.988 94.9961 71.9846C98.4828 71.945 98.4828 71.945 99.6264 72.9656C100.627 74.0857 100.831 75.0661 100.831 76.5348C100.834 76.8334 100.838 77.132 100.841 77.4305C100.845 77.8973 100.847 78.3639 100.845 78.8306C100.845 79.2839 100.85 79.7368 100.857 80.19C100.858 80.4598 100.859 80.7296 100.859 81.0076C101.024 81.9055 101.36 82.1981 102.042 82.7802C102.708 83.7846 102.588 84.9895 102.463 86.1461C102.009 87.0883 101.426 87.657 100.571 88.2498C99.4354 88.6284 98.2714 88.6076 97.1408 88.2235C96.0692 87.4755 95.3573 86.5976 95.104 85.3046C95.0857 84.0363 95.3129 83.1363 96.1552 82.1491C96.4328 82.0102 96.7103 81.8714 96.9963 81.7283C96.9963 79.7845 96.9963 77.8407 96.9963 75.838C92.8332 75.838 88.6701 75.838 84.3809 75.838C84.3809 74.5884 84.3809 73.3388 84.3809 72.0513Z" fill="url(#paint1_linear_161_974)"/>
<path d="M100.375 16.6654C101.329 17.1779 101.982 17.865 102.463 18.8283C102.608 20.3934 102.588 21.5554 101.622 22.8253C101.414 22.9641 101.206 23.103 100.991 23.246C100.897 23.9127 100.897 23.9127 100.913 24.7005C100.909 24.9983 100.906 25.296 100.902 25.5938C100.9 26.0618 100.899 26.5298 100.9 26.9979C100.893 30.7069 100.893 30.7069 99.4405 32.1604C98.4084 32.7997 97.471 32.9756 96.2679 32.9708C96.0028 32.9708 95.7377 32.9707 95.4645 32.9707C95.1784 32.9685 94.8923 32.9664 94.6062 32.9641C94.3111 32.9633 94.0159 32.9627 93.7207 32.9623C92.9471 32.9607 92.1736 32.9566 91.4 32.9519C90.6093 32.9476 89.8186 32.9457 89.0279 32.9436C87.4788 32.9391 85.9299 32.9317 84.3809 32.923C84.3809 31.6734 84.3809 30.4238 84.3809 29.1364C88.5439 29.1364 92.707 29.1364 96.9963 29.1364C96.9963 27.1926 96.9963 25.2488 96.9963 23.246C96.7187 23.1072 96.4412 22.9683 96.1552 22.8253C95.3175 21.8434 95.0545 20.937 95.104 19.6698C95.3171 18.4375 95.8866 17.734 96.8451 16.9621C97.8419 16.3071 99.2657 16.2801 100.375 16.6654Z" fill="url(#paint2_linear_161_974)"/>
<path d="M7.28226 16.7497C8.35386 17.4977 9.06573 18.3756 9.31912 19.6685C9.33739 20.9368 9.11013 21.8369 8.26784 22.8241C7.85153 23.0323 7.85153 23.0323 7.42681 23.2448C7.42681 25.1886 7.42681 27.1324 7.42681 29.1352C11.5899 29.1352 15.753 29.1352 20.0422 29.1352C20.0422 30.3847 20.0422 31.6343 20.0422 32.9218C18.3442 32.9361 16.6462 32.9477 14.9481 32.9545C14.1595 32.9578 13.3709 32.9622 12.5823 32.9694C11.8202 32.9763 11.0582 32.9801 10.2961 32.9817C10.0064 32.9828 9.7167 32.9851 9.42702 32.9885C5.94025 33.0281 5.94025 33.0281 4.7967 32.0075C3.79652 30.8874 3.59163 29.907 3.59209 28.4383C3.58885 28.1397 3.58542 27.8412 3.58182 27.5426C3.57836 27.0759 3.57649 26.6093 3.57797 26.1425C3.57852 25.6892 3.57261 25.2364 3.56581 24.7831C3.56518 24.5133 3.56455 24.2435 3.56391 23.9655C3.39949 23.0677 3.06353 22.775 2.38065 22.193C1.7154 21.1885 1.83462 19.9836 1.96013 18.8271C2.41416 17.8849 2.9966 17.3162 3.85245 16.7234C4.98766 16.3447 6.15172 16.3655 7.28226 16.7497Z" fill="url(#paint3_linear_161_974)"/>
<path d="M86.5878 2.56394C87.4356 3.34858 88.1007 4.0178 88.2074 5.21081C88.2281 6.33574 88.1986 7.14602 87.5339 8.09928C86.6388 8.97494 85.8378 9.55994 84.555 9.57844C83.4511 9.50444 82.718 9.25545 81.857 8.52002C81.7182 8.24233 81.5795 7.96464 81.4365 7.67854C79.4937 7.67854 77.5509 7.67854 75.5493 7.67854C75.5493 11.8439 75.5493 16.0092 75.5493 20.3007C74.3004 20.3007 73.0514 20.3007 71.7647 20.3007C71.7504 18.6018 71.7388 16.9029 71.732 15.2039C71.7287 14.4148 71.7243 13.6258 71.7171 12.8368C71.7102 12.0743 71.7064 11.3119 71.7048 10.5493C71.7037 10.2595 71.7014 9.96965 71.698 9.67983C71.6584 6.19118 71.6584 6.19118 72.6784 5.04702C73.798 4.04631 74.7778 3.8413 76.2458 3.84177C76.5442 3.83852 76.8426 3.83509 77.141 3.83149C77.6075 3.82803 78.0738 3.82616 78.5403 3.82764C78.9934 3.82819 79.446 3.82227 79.899 3.81547C80.3035 3.81453 80.3035 3.81453 80.7162 3.81357C81.6135 3.64907 81.906 3.31293 82.4878 2.62968C83.6688 1.84663 85.3613 1.97229 86.5878 2.56394Z" fill="url(#paint4_linear_161_974)"/>
<path d="M21.0935 2.20772C21.9565 2.50687 22.4734 2.91118 22.9858 3.6803C23.6521 3.77423 23.6521 3.77423 24.4396 3.75837C24.7372 3.76203 25.0347 3.76573 25.3323 3.76946C25.8001 3.77157 26.2679 3.77234 26.7357 3.77198C30.4427 3.7782 30.4427 3.7782 31.8955 5.23178C32.5344 6.26446 32.7102 7.20236 32.7054 8.40612C32.7054 8.67136 32.7053 8.93661 32.7053 9.20989C32.7031 9.49614 32.701 9.78239 32.6987 10.0686C32.6979 10.364 32.6973 10.6593 32.6969 10.9546C32.6953 11.7286 32.6912 12.5026 32.6865 13.2766C32.6822 14.0677 32.6803 14.8589 32.6782 15.65C32.6737 17.1998 32.6663 18.7497 32.6576 20.2995C31.4087 20.2995 30.1598 20.2995 28.873 20.2995C28.873 16.1342 28.873 11.9689 28.873 7.67732C26.9303 7.67732 24.9875 7.67732 22.9858 7.67732C22.8471 7.95501 22.7083 8.2327 22.5653 8.5188C21.584 9.357 20.678 9.62013 19.4115 9.57065C18.1799 9.35742 17.4767 8.78762 16.7052 7.82853C16.0903 6.89174 16.1399 5.80891 16.2576 4.73215C17.0682 2.39595 18.8866 1.99903 21.0935 2.20772Z" fill="url(#paint5_linear_161_974)"/>
<path d="M71.7651 84.6738C73.014 84.6738 74.263 84.6738 75.5497 84.6738C75.5497 88.8391 75.5497 93.0045 75.5497 97.296C77.4925 97.296 79.4353 97.296 81.4369 97.296C81.5757 97.0183 81.7145 96.7406 81.8574 96.4545C82.8388 95.6163 83.7447 95.3532 85.0113 95.4027C86.2429 95.6159 86.946 96.1857 87.7175 97.1448C88.3325 98.0816 88.2829 99.1644 88.1652 100.241C87.8104 101.263 87.1667 101.959 86.2728 102.555C85.1969 102.914 83.9452 102.986 82.8652 102.6C82.2119 102.239 81.8528 101.917 81.4369 101.293C80.7706 101.199 80.7706 101.199 79.9832 101.215C79.6856 101.211 79.388 101.208 79.0904 101.204C78.6227 101.202 78.1549 101.201 77.6871 101.201C73.9801 101.195 73.9801 101.195 72.5273 99.7415C71.8884 98.7089 71.7125 97.771 71.7174 96.5672C71.7174 96.1693 71.7174 96.1693 71.7175 95.7634C71.7196 95.4772 71.7218 95.1909 71.7241 94.9047C71.7248 94.6093 71.7254 94.314 71.7259 94.0187C71.7275 93.2447 71.7316 92.4707 71.7362 91.6967C71.7406 90.9056 71.7425 90.1145 71.7446 89.3233C71.7491 87.7735 71.7565 86.2237 71.7651 84.6738Z" fill="url(#paint6_linear_161_974)"/>
<path d="M28.873 84.6738C30.1219 84.6738 31.3708 84.6738 32.6576 84.6738C32.6719 86.3728 32.6835 88.0717 32.6903 89.7707C32.6936 90.5597 32.698 91.3487 32.7052 92.1377C32.7121 92.9002 32.7158 93.6627 32.7175 94.4252C32.7186 94.715 32.7209 95.0049 32.7243 95.2947C32.7638 98.7834 32.7638 98.7834 31.7438 99.9275C30.6243 100.928 29.6445 101.133 28.1765 101.133C27.8781 101.136 27.5797 101.139 27.2813 101.143C26.8148 101.147 26.3485 101.148 25.882 101.147C25.4289 101.146 24.9763 101.152 24.5233 101.159C24.1188 101.16 24.1188 101.16 23.7061 101.161C22.8087 101.325 22.5166 101.662 21.9345 102.345C20.9699 102.976 19.8917 102.867 18.7807 102.766C17.6686 102.395 17.1406 101.795 16.4678 100.872C16.0894 99.7364 16.1102 98.5718 16.4941 97.4406C17.2418 96.3684 18.1192 95.6562 19.4114 95.4027C20.679 95.3844 21.5786 95.6118 22.5653 96.4545C22.7041 96.7322 22.8428 97.0099 22.9858 97.296C24.9286 97.296 26.8713 97.296 28.873 97.296C28.873 93.1307 28.873 88.9654 28.873 84.6738Z" fill="url(#paint7_linear_161_974)"/>
<path d="M8.15516 72.002C8.42026 72.0021 8.68536 72.0021 8.9585 72.0021C9.24459 72.0043 9.53069 72.0065 9.81678 72.0087C10.112 72.0095 10.4071 72.0101 10.7023 72.0105C11.4759 72.0121 12.2495 72.0163 13.023 72.0209C13.8137 72.0252 14.6044 72.0272 15.3952 72.0293C16.9442 72.0338 18.4932 72.0412 20.0422 72.0498C20.0422 73.2994 20.0422 74.549 20.0422 75.8365C15.8791 75.8365 11.716 75.8365 7.42675 75.8365C7.42675 77.7803 7.42675 79.7241 7.42675 81.7268C7.70429 81.8657 7.98183 82.0045 8.26778 82.1475C9.10553 83.1294 9.36852 84.0359 9.31906 85.3031C9.10595 86.5353 8.53646 87.2389 7.57787 88.0108C6.64159 88.6261 5.55934 88.5765 4.48316 88.4586C3.46142 88.1037 2.76621 87.4596 2.17033 86.5653C1.8117 85.4888 1.73987 84.2364 2.12598 83.1558C2.48631 82.5022 2.80803 82.1429 3.43187 81.7268C3.52575 81.0602 3.52575 81.0602 3.5099 80.2723C3.51356 79.9746 3.51725 79.6768 3.52099 79.3791C3.52309 78.911 3.52386 78.443 3.5235 77.975C3.52971 74.266 3.52971 74.266 4.98252 72.8124C6.01465 72.1731 6.95204 71.9972 8.15516 72.002Z" fill="url(#paint8_linear_161_974)"/>
<path d="M50.319 84.6738C51.5679 84.6738 52.8168 84.6738 54.1036 84.6738C54.1036 89.0474 54.1036 93.421 54.1036 97.9271C54.3811 98.0659 54.6587 98.2048 54.9446 98.3478C55.6989 99.2534 56.0473 100.114 55.9959 101.293C55.821 102.299 55.5404 103.119 54.7607 103.804C53.6494 104.538 52.7162 104.86 51.3703 104.659C50.2804 104.293 49.4231 103.785 48.8472 102.766C48.3926 101.476 48.3399 100.449 48.848 99.1721C49.1217 98.6448 49.4215 98.2811 49.8985 97.9271C50.0372 97.9271 50.176 97.9271 50.319 97.9271C50.319 93.5535 50.319 89.1799 50.319 84.6738Z" fill="url(#paint9_linear_161_974)"/>
<path d="M54.3649 0.907161C55.2685 1.5159 55.6112 2.17552 55.8778 3.20725C56.0673 4.33158 55.8884 5.19733 55.3653 6.20502C54.9317 6.74409 54.9317 6.74409 54.5243 7.0465C54.3855 7.0465 54.2467 7.0465 54.1038 7.0465C54.1038 11.4201 54.1038 15.7937 54.1038 20.2998C52.8548 20.2998 51.6059 20.2998 50.3191 20.2998C50.3191 15.9262 50.3191 11.5526 50.3191 7.0465C50.0416 6.90765 49.7641 6.76881 49.4781 6.62576C48.7239 5.72019 48.3754 4.85971 48.4268 3.68059C48.6018 2.67417 48.8824 1.8547 49.6621 1.1693C51.2489 0.121452 52.6966 -0.0387233 54.3649 0.907161Z" fill="url(#paint10_linear_161_974)"/>
<path d="M103.186 49.5818C104.083 50.5672 104.487 51.5481 104.429 52.8976C104.252 53.9336 103.76 54.7374 103.067 55.5116C102.049 56.0874 101.003 56.3794 99.8331 56.1879C98.9157 55.9107 98.2135 55.5926 97.627 54.8016C97.627 54.6628 97.627 54.5239 97.627 54.3809C93.2558 54.3809 88.8846 54.3809 84.3809 54.3809C84.3809 53.1313 84.3809 51.8817 84.3809 50.5942C88.7521 50.5942 93.1233 50.5942 97.627 50.5942C97.7658 50.3165 97.9046 50.0389 98.0476 49.7528C99.6045 48.5412 101.541 48.3356 103.186 49.5818Z" fill="url(#paint11_linear_161_974)"/>
<path d="M5.9492 49.3706C6.29662 49.6475 6.29662 49.6475 6.79598 50.1734C6.79598 50.3123 6.79598 50.4511 6.79598 50.5942C11.1672 50.5942 15.5385 50.5942 20.0422 50.5942C20.0422 51.8438 20.0422 53.0933 20.0422 54.3808C15.6709 54.3808 11.2997 54.3808 6.79598 54.3808C6.65721 54.6585 6.51844 54.9362 6.37546 55.2223C5.4854 55.9471 4.78939 56.2346 3.64213 56.2741C2.39708 56.1387 1.57741 55.7218 0.698531 54.8015C0.119744 53.7785 -0.132152 52.8128 0.0677609 51.646C0.440954 50.5439 0.947723 49.734 1.96007 49.1216C3.29625 48.5449 4.69041 48.6149 5.9492 49.3706Z" fill="url(#paint12_linear_161_974)"/>
<path d="M61.0421 84.6738C62.291 84.6738 63.5399 84.6738 64.8267 84.6738C64.8579 86.3323 64.8808 87.9906 64.896 89.6493C64.9016 90.2136 64.9104 90.7777 64.9219 91.3419C64.9372 92.1529 64.9443 92.9636 64.9499 93.7748C64.9564 94.027 64.9629 94.2793 64.9696 94.5392C64.9703 96.2457 64.9703 96.2457 64.5539 96.8511C64.099 97.2458 63.6927 97.4849 63.0962 97.5853C62.4906 97.4691 61.9833 97.3671 61.4757 97.0067C61.0269 96.3199 61.0164 95.7144 61.0182 94.9193C61.0182 94.5782 61.0182 94.5782 61.0183 94.2303C61.0193 93.985 61.0204 93.7398 61.0215 93.4872C61.0218 93.2359 61.0221 92.9847 61.0224 92.7258C61.0236 91.922 61.0263 91.1182 61.0289 90.3144C61.03 89.7699 61.0309 89.2255 61.0318 88.6811C61.0341 87.3454 61.0378 86.0096 61.0421 84.6738Z" fill="url(#paint13_linear_161_974)"/>
<path d="M39.5963 84.6738C40.8452 84.6738 42.0941 84.6738 43.3809 84.6738C43.3965 86.2724 43.4079 87.8709 43.4155 89.4695C43.4187 90.0133 43.423 90.5571 43.4285 91.1009C43.4361 91.8827 43.4397 92.6643 43.4425 93.4461C43.4457 93.6891 43.449 93.9322 43.4523 94.1826C43.4524 94.41 43.4524 94.6373 43.4525 94.8716C43.4539 95.071 43.4553 95.2705 43.4567 95.476C43.3469 96.2836 43.0243 96.8701 42.3822 97.3749C41.6692 97.573 41.1501 97.4743 40.4373 97.296C39.875 96.8581 39.6258 96.615 39.4951 95.9061C39.4979 95.595 39.4979 95.595 39.5008 95.2776C39.5008 95.0418 39.5009 94.806 39.501 94.563C39.5053 94.3097 39.5097 94.0563 39.5141 93.7953C39.5153 93.535 39.5165 93.2747 39.5177 93.0065C39.5216 92.3162 39.5292 91.626 39.5385 90.9357C39.5471 90.2306 39.5509 89.5255 39.5552 88.8204C39.5645 87.4381 39.579 86.056 39.5963 84.6738Z" fill="url(#paint14_linear_161_974)"/>
<path d="M84.3809 61.323C85.9786 61.3074 87.5762 61.2959 89.174 61.2883C89.7175 61.2851 90.261 61.2808 90.8045 61.2754C91.5858 61.2677 92.3671 61.2641 93.1484 61.2613C93.3913 61.2581 93.6343 61.2548 93.8845 61.2515C94.1118 61.2514 94.339 61.2514 94.5731 61.2513C94.7725 61.2499 94.9719 61.2485 95.1773 61.2471C95.9844 61.357 96.5706 61.6797 97.0751 62.3222C97.2732 63.0356 97.1745 63.555 96.9963 64.2681C96.5586 64.8307 96.3156 65.08 95.6071 65.2108C95.3998 65.2089 95.1925 65.2071 94.9789 65.2051C94.7432 65.2051 94.5076 65.205 94.2648 65.205C94.0116 65.2006 93.7583 65.1963 93.4975 65.1918C93.2373 65.1906 92.9772 65.1894 92.7091 65.1882C92.0191 65.1843 91.3293 65.1767 90.6393 65.1674C89.9346 65.1588 89.2299 65.155 88.5252 65.1507C87.1437 65.1414 85.7623 65.1269 84.3809 65.1096C84.3809 63.86 84.3809 62.6104 84.3809 61.323Z" fill="url(#paint15_linear_161_974)"/>
<path d="M9.80269 61.298C10.03 61.298 10.2572 61.298 10.4914 61.298C10.7365 61.2991 10.9816 61.3002 11.2341 61.3013C11.6108 61.3018 11.6108 61.3018 11.995 61.3022C12.7984 61.3034 13.6018 61.306 14.4052 61.3087C14.9493 61.3098 15.4934 61.3107 16.0375 61.3116C17.3726 61.3139 18.7076 61.3176 20.0427 61.3219C20.0427 62.5715 20.0427 63.8211 20.0427 65.1085C18.3851 65.1397 16.7277 65.1626 15.0699 65.1779C14.5059 65.1835 13.9421 65.1923 13.3782 65.2037C12.5676 65.2191 11.7573 65.2262 10.9466 65.2318C10.6945 65.2383 10.4424 65.2448 10.1826 65.2515C8.47702 65.2522 8.47702 65.2522 7.87195 64.8356C7.47745 64.3805 7.23847 63.9739 7.13818 63.3771C7.25423 62.7712 7.35621 62.2636 7.71639 61.7558C8.40283 61.3067 9.00807 61.2961 9.80269 61.298Z" fill="url(#paint16_linear_161_974)"/>
<path d="M84.3809 39.8638C86.0384 39.8326 87.6959 39.8097 89.3537 39.7944C89.9177 39.7888 90.4815 39.78 91.0454 39.7685C91.8559 39.7532 92.6662 39.7461 93.4769 39.7405C93.8551 39.7307 93.8551 39.7307 94.2409 39.7208C95.9465 39.7201 95.9465 39.7201 96.5516 40.1367C96.9461 40.5918 97.1851 40.9984 97.2854 41.5952C97.1693 42.2011 97.0673 42.7087 96.7072 43.2165C96.0207 43.6656 95.4155 43.6761 94.6209 43.6743C94.3936 43.6743 94.1663 43.6743 93.9322 43.6742C93.6871 43.6732 93.442 43.6721 93.1895 43.671C92.9383 43.6707 92.6872 43.6704 92.4285 43.6701C91.6251 43.6689 90.8217 43.6662 90.0184 43.6636C89.4742 43.6625 88.9301 43.6615 88.386 43.6607C87.051 43.6584 85.7159 43.6547 84.3809 43.6504C84.3809 42.4008 84.3809 41.1512 84.3809 39.8638Z" fill="url(#paint17_linear_161_974)"/>
<path d="M9.44417 39.7679C9.79768 39.768 9.79768 39.768 10.1583 39.7681C10.4115 39.7725 10.6647 39.7768 10.9256 39.7813C11.1858 39.7825 11.4459 39.7837 11.714 39.7849C12.404 39.7888 13.0938 39.7964 13.7837 39.8057C14.4884 39.8143 15.1931 39.8181 15.8979 39.8224C17.2794 39.8317 18.6608 39.8462 20.0422 39.8635C20.0422 41.1131 20.0422 42.3627 20.0422 43.6501C18.4445 43.6657 16.8468 43.6772 15.2491 43.6848C14.7056 43.688 14.1621 43.6923 13.6186 43.6977C12.8373 43.7054 12.056 43.709 11.2747 43.7118C11.0318 43.715 10.7888 43.7183 10.5385 43.7216C10.1977 43.7217 10.1977 43.7217 9.84996 43.7218C9.55091 43.7239 9.55091 43.7239 9.24582 43.726C8.43864 43.6161 7.8525 43.2933 7.34797 42.6509C7.14991 41.9375 7.24862 41.4181 7.42682 40.705C8.04625 39.9088 8.44831 39.759 9.44417 39.7679Z" fill="url(#paint18_linear_161_974)"/>
<path d="M63.9858 7.67838C64.548 8.1163 64.7972 8.3594 64.9279 9.06829C64.9261 9.27571 64.9242 9.48312 64.9223 9.69682C64.9222 10.0505 64.9222 10.0505 64.9221 10.4114C64.9177 10.6647 64.9134 10.918 64.9089 11.1791C64.9077 11.4394 64.9065 11.6997 64.9053 11.9678C64.9014 12.6582 64.8939 13.3484 64.8845 14.0387C64.8759 14.7438 64.8722 15.4489 64.8678 16.154C64.8586 17.5362 64.8441 18.9184 64.8268 20.3005C63.5779 20.3005 62.3289 20.3005 61.0422 20.3005C61.0266 18.702 61.0151 17.1035 61.0075 15.5048C61.0043 14.961 61 14.4172 60.9946 13.8734C60.9869 13.0917 60.9833 12.3101 60.9806 11.5283C60.9773 11.2853 60.9741 11.0422 60.9707 10.7918C60.9706 10.5644 60.9706 10.3371 60.9706 10.1028C60.9692 9.90335 60.9678 9.70387 60.9663 9.49836C61.0761 8.69075 61.3988 8.10429 62.0409 7.5995C62.7539 7.40133 63.273 7.50009 63.9858 7.67838Z" fill="url(#paint19_linear_161_974)"/>
<path d="M42.5402 7.67742C43.096 8.0721 43.161 8.27849 43.3812 8.93963C43.3997 9.31074 43.406 9.68252 43.4051 10.0541C43.4051 10.2815 43.4051 10.5089 43.405 10.7431C43.404 10.9884 43.4029 11.2336 43.4017 11.4863C43.4015 11.7375 43.4012 11.9888 43.4008 12.2476C43.3997 13.0514 43.397 13.8552 43.3944 14.6591C43.3933 15.2035 43.3923 15.7479 43.3915 16.2923C43.3892 17.6281 43.3855 18.9638 43.3812 20.2996C42.1323 20.2996 40.8834 20.2996 39.5966 20.2996C39.5654 18.6411 39.5425 16.9828 39.5273 15.3241C39.5217 14.7598 39.5129 14.1957 39.5014 13.6315C39.4861 12.8205 39.479 12.0098 39.4734 11.1986C39.4636 10.8203 39.4636 10.8203 39.4537 10.4342C39.453 8.72771 39.453 8.72771 39.8694 8.12232C40.8291 7.28954 41.3858 7.37445 42.5402 7.67742Z" fill="url(#paint20_linear_161_974)"/>
<path d="M41.278 42.8086C41.6985 43.019 41.6985 43.019 41.8369 43.4285C41.877 43.608 41.9172 43.7875 41.9585 43.9724C42.0279 44.2769 42.0279 44.2769 42.0987 44.5875C42.1714 44.9191 42.1714 44.9191 42.2455 45.2574C42.2962 45.4834 42.347 45.7094 42.3992 45.9423C42.5065 46.4217 42.6128 46.9013 42.7183 47.3812C42.8799 48.1148 43.0446 48.8478 43.2097 49.5807C43.3134 50.046 43.4169 50.5114 43.5202 50.9768C43.5941 51.3059 43.5941 51.3059 43.6695 51.6417C43.7144 51.8473 43.7594 52.0529 43.8057 52.2647C43.8455 52.4449 43.8853 52.625 43.9263 52.8107C44.0113 53.3271 44.0113 53.3271 44.0113 54.3789C42.2767 54.3789 40.5421 54.3789 38.7549 54.3789C39.5079 50.4978 40.3599 46.653 41.278 42.8086Z" fill="url(#paint21_linear_161_974)"/>
<defs>
<linearGradient id="paint0_linear_161_974" x1="52.2113" y1="23.585" x2="52.2113" y2="81.3911" gradientUnits="userSpaceOnUse">
<stop stop-color="#7527F8"/>
<stop offset="1" stop-color="#A03EE6"/>
</linearGradient>
<linearGradient id="paint1_linear_161_974" x1="93.4708" y1="71.9727" x2="93.4708" y2="88.5229" gradientUnits="userSpaceOnUse">
<stop stop-color="#7527F8"/>
<stop offset="1" stop-color="#A03EE6"/>
</linearGradient>
<linearGradient id="paint2_linear_161_974" x1="93.4548" y1="16.4141" x2="93.4548" y2="32.9709" gradientUnits="userSpaceOnUse">
<stop stop-color="#7527F8"/>
<stop offset="1" stop-color="#A03EE6"/>
</linearGradient>
<linearGradient id="paint3_linear_161_974" x1="10.9523" y1="16.4502" x2="10.9523" y2="33.0005" gradientUnits="userSpaceOnUse">
<stop stop-color="#7527F8"/>
<stop offset="1" stop-color="#A03EE6"/>
</linearGradient>
<linearGradient id="paint4_linear_161_974" x1="79.9489" y1="2.08105" x2="79.9489" y2="20.3007" gradientUnits="userSpaceOnUse">
<stop stop-color="#7527F8"/>
<stop offset="1" stop-color="#A03EE6"/>
</linearGradient>
<linearGradient id="paint5_linear_161_974" x1="24.445" y1="2.15918" x2="24.445" y2="20.2995" gradientUnits="userSpaceOnUse">
<stop stop-color="#7527F8"/>
<stop offset="1" stop-color="#A03EE6"/>
</linearGradient>
<linearGradient id="paint6_linear_161_974" x1="79.9777" y1="84.6738" x2="79.9777" y2="102.859" gradientUnits="userSpaceOnUse">
<stop stop-color="#7527F8"/>
<stop offset="1" stop-color="#A03EE6"/>
</linearGradient>
<linearGradient id="paint7_linear_161_974" x1="24.4655" y1="84.6738" x2="24.4655" y2="102.844" gradientUnits="userSpaceOnUse">
<stop stop-color="#7527F8"/>
<stop offset="1" stop-color="#A03EE6"/>
</linearGradient>
<linearGradient id="paint8_linear_161_974" x1="10.9547" y1="72.002" x2="10.9547" y2="88.5317" gradientUnits="userSpaceOnUse">
<stop stop-color="#7527F8"/>
<stop offset="1" stop-color="#A03EE6"/>
</linearGradient>
<linearGradient id="paint9_linear_161_974" x1="52.2436" y1="84.6738" x2="52.2436" y2="104.718" gradientUnits="userSpaceOnUse">
<stop stop-color="#7527F8"/>
<stop offset="1" stop-color="#A03EE6"/>
</linearGradient>
<linearGradient id="paint10_linear_161_974" x1="52.1866" y1="0.282227" x2="52.1866" y2="20.2998" gradientUnits="userSpaceOnUse">
<stop stop-color="#7527F8"/>
<stop offset="1" stop-color="#A03EE6"/>
</linearGradient>
<linearGradient id="paint11_linear_161_974" x1="94.4077" y1="48.7402" x2="94.4077" y2="56.2464" gradientUnits="userSpaceOnUse">
<stop stop-color="#7527F8"/>
<stop offset="1" stop-color="#A03EE6"/>
</linearGradient>
<linearGradient id="paint12_linear_161_974" x1="10.0211" y1="48.7393" x2="10.0211" y2="56.2741" gradientUnits="userSpaceOnUse">
<stop stop-color="#7527F8"/>
<stop offset="1" stop-color="#A03EE6"/>
</linearGradient>
<linearGradient id="paint13_linear_161_974" x1="62.9939" y1="84.6738" x2="62.9939" y2="97.5853" gradientUnits="userSpaceOnUse">
<stop stop-color="#7527F8"/>
<stop offset="1" stop-color="#A03EE6"/>
</linearGradient>
<linearGradient id="paint14_linear_161_974" x1="41.4759" y1="84.6738" x2="41.4759" y2="97.4841" gradientUnits="userSpaceOnUse">
<stop stop-color="#7527F8"/>
<stop offset="1" stop-color="#A03EE6"/>
</linearGradient>
<linearGradient id="paint15_linear_161_974" x1="90.7826" y1="61.2471" x2="90.7826" y2="65.2108" gradientUnits="userSpaceOnUse">
<stop stop-color="#7527F8"/>
<stop offset="1" stop-color="#A03EE6"/>
</linearGradient>
<linearGradient id="paint16_linear_161_974" x1="13.5904" y1="61.2979" x2="13.5904" y2="65.2516" gradientUnits="userSpaceOnUse">
<stop stop-color="#7527F8"/>
<stop offset="1" stop-color="#A03EE6"/>
</linearGradient>
<linearGradient id="paint17_linear_161_974" x1="90.8331" y1="39.7207" x2="90.8331" y2="43.6744" gradientUnits="userSpaceOnUse">
<stop stop-color="#7527F8"/>
<stop offset="1" stop-color="#A03EE6"/>
</linearGradient>
<linearGradient id="paint18_linear_161_974" x1="13.6405" y1="39.7676" x2="13.6405" y2="43.726" gradientUnits="userSpaceOnUse">
<stop stop-color="#7527F8"/>
<stop offset="1" stop-color="#A03EE6"/>
</linearGradient>
<linearGradient id="paint19_linear_161_974" x1="62.9471" y1="7.49023" x2="62.9471" y2="20.3005" gradientUnits="userSpaceOnUse">
<stop stop-color="#7527F8"/>
<stop offset="1" stop-color="#A03EE6"/>
</linearGradient>
<linearGradient id="paint20_linear_161_974" x1="41.4294" y1="7.46289" x2="41.4294" y2="20.2996" gradientUnits="userSpaceOnUse">
<stop stop-color="#7527F8"/>
<stop offset="1" stop-color="#A03EE6"/>
</linearGradient>
<linearGradient id="paint21_linear_161_974" x1="41.3831" y1="42.8086" x2="41.3831" y2="54.3789" gradientUnits="userSpaceOnUse">
<stop stop-color="#7527F8"/>
<stop offset="1" stop-color="#A03EE6"/>
</linearGradient>
</defs>
</svg>
