<svg width="102" height="104" viewBox="0 0 102 104" fill="none" xmlns="http://www.w3.org/2000/svg">
<path d="M35.6054 2.45951C37.1509 3.60562 38.0858 4.98132 38.4905 6.90604C38.7213 8.7955 38.424 10.5255 37.3462 12.0952C36.7453 12.8304 36.1741 13.4234 35.3465 13.8758C34.7164 14.1491 34.7164 14.1491 34.5575 14.6756C34.5534 14.7929 34.5493 14.9102 34.5451 15.031C34.6584 15.0867 34.7717 15.1423 34.8884 15.1996C37.1381 16.399 40.9269 18.6096 41.844 21.1248C41.8891 21.678 41.872 22.1929 41.844 22.7498C42.0967 22.7058 42.3495 22.6618 42.6099 22.6165C42.9546 22.5592 43.2993 22.5021 43.644 22.4451C43.8091 22.416 43.9741 22.387 44.1441 22.357C45.6165 22.1176 47.0627 22.1103 48.551 22.1404C48.5618 21.0306 48.5623 19.9215 48.5534 18.8116C48.5518 18.4343 48.553 18.057 48.5571 17.6797C48.5624 17.1364 48.5577 16.594 48.551 16.0506C48.5568 15.7986 48.5568 15.7986 48.5626 15.5414C48.5507 15.0501 48.5242 14.6784 48.3537 14.2185C47.8732 13.7709 47.3513 13.4996 46.7756 13.2029C45.5074 12.0473 44.6991 10.718 44.5309 8.97537C44.4635 7.40041 44.5608 6.03325 45.3948 4.67166C45.4639 4.54546 45.5331 4.41925 45.6044 4.28922C46.4479 2.89586 47.8197 2.04289 49.3401 1.62479C51.0933 1.46391 52.7394 1.44212 54.2717 2.43729C54.4556 2.54412 54.4556 2.54412 54.6431 2.65311C55.9989 3.5234 56.8193 4.93366 57.2307 6.49979C57.4886 8.8947 57.1971 10.7038 55.7027 12.6316C54.9923 13.4136 54.4619 13.7144 53.4826 14.2185C53.4175 16.8328 53.3525 19.447 53.2854 22.1404C54.1968 22.1404 55.1081 22.1404 56.0471 22.1404C56.7721 22.2257 57.4756 22.3189 58.1924 22.4451C58.3681 22.4742 58.5438 22.5032 58.7248 22.5332C59.1477 22.6034 59.5701 22.6763 59.9924 22.7498C59.9802 22.5068 59.968 22.2638 59.9554 22.0135C59.9582 20.9533 60.2636 20.247 60.9849 19.48C65.1012 16.1065 65.1012 16.1065 67.2912 15.031C67.2536 14.6409 67.2536 14.6409 67.094 14.2185C66.7312 13.9206 66.7312 13.9206 66.2803 13.6726C64.8842 12.7616 63.8794 11.4941 63.4322 9.83945C63.0702 7.75905 63.3332 5.87072 64.5064 4.11624C65.7113 2.61322 66.9525 1.75369 68.8509 1.53672C70.852 1.43606 72.4729 1.7811 74.0599 3.08475C75.4729 4.46036 76.0757 6.13163 76.2298 8.0994C76.1727 9.86858 75.5048 11.4603 74.3928 12.7967C73.7824 13.3538 73.1507 13.8424 72.4202 14.2185C72.3487 14.869 72.3325 15.5156 72.31 16.1697C72.1928 17.0976 71.9915 17.7465 71.2975 18.3846C70.8749 18.7162 70.4429 19.027 70.0036 19.3348C69.6843 19.5661 69.3651 19.7976 69.0458 20.029C68.5734 20.367 68.1005 20.7041 67.6275 21.0412C67.2137 21.3375 66.8024 21.6371 66.3912 21.9373C66.2657 22.0251 66.1401 22.1128 66.0107 22.2032C65.459 22.6071 65.1536 22.8494 64.9433 23.5242C64.9338 23.7442 64.9338 23.7442 64.9241 23.9685C65.1804 24.0104 65.4367 24.0523 65.7008 24.0955C66.8721 24.3288 67.9634 24.7505 69.0708 25.1985C69.209 25.2521 69.3473 25.3058 69.4897 25.3611C69.6124 25.4106 69.7352 25.4601 69.8617 25.5112C70.3844 25.622 70.7234 25.5418 71.2366 25.3904C71.6577 25.0708 71.6577 25.0708 72.0422 24.6466C72.1936 24.4893 72.345 24.332 72.501 24.17C72.6618 23.999 72.8225 23.8281 72.9881 23.652C73.1555 23.4774 73.323 23.3028 73.4956 23.1229C74.0308 22.5646 74.5633 22.0036 75.0956 21.4422C75.6288 20.8819 76.1626 20.3222 76.6976 19.7636C77.0305 19.4159 77.3622 19.0671 77.6928 18.7172C77.8436 18.5593 77.9944 18.4013 78.1498 18.2386C78.3477 18.0298 78.3477 18.0298 78.5496 17.8168C79.4269 17.0135 80.2132 17.0069 81.3495 17.0226C81.506 17.0232 81.6625 17.0238 81.8238 17.0244C82.3222 17.0266 82.8206 17.0317 83.3191 17.0369C83.6576 17.0389 83.9961 17.0408 84.3347 17.0425C85.1633 17.0469 85.9919 17.0539 86.8205 17.0623C86.8798 16.9034 86.939 16.7444 87 16.5807C87.5866 15.1242 88.8273 14.0897 90.1741 13.406C91.9234 12.6923 93.6702 12.8328 95.3877 13.5584C97.2355 14.4837 98.1708 15.8121 98.9277 17.7605C99.2461 19.6292 99.1187 21.2503 98.2619 22.9529C97.1725 24.5373 95.8724 25.5949 94.0454 26.1394C92.1947 26.3663 90.4951 26.1748 88.9411 25.0349C87.9762 24.2248 87.1014 23.4152 86.8205 22.1404C84.9716 21.8105 82.7596 21.5227 81.0975 22.601C79.1501 24.1214 77.5345 26.1109 75.9709 28.031C76.4522 28.4126 76.9311 28.758 77.4597 29.0657C77.5922 29.1439 77.7248 29.222 77.8613 29.3026C78.0024 29.3857 78.1435 29.4688 78.2888 29.5545C84.1295 33.0496 89.4573 37.6457 93.9221 42.8592C94.0546 43.0124 94.0546 43.0124 94.1897 43.1687C95.3819 44.5544 96.4781 46.0046 97.5469 47.493C97.6619 47.6531 97.7769 47.8133 97.8954 47.9783C100.042 51.0028 100.042 51.0028 99.9587 52.4822C99.7189 53.5599 99.0942 54.3776 98.4592 55.2498C98.3046 55.4642 98.15 55.6787 97.9907 55.8996C97.4996 56.5717 96.9951 57.2322 96.4866 57.8904C96.3398 58.0813 96.1931 58.2722 96.0419 58.4688C95.0885 59.6894 94.0825 60.8484 93.0483 61.9958C92.6239 62.4699 92.21 62.9497 91.8015 63.4383C90.8344 64.5831 89.7914 65.6249 88.6738 66.6129C88.3171 66.9286 87.9637 67.2483 87.6119 67.5698C84.0949 70.7645 80.1477 73.5619 75.9709 75.7654C76.2381 76.0858 76.5055 76.4061 76.7736 76.7257C77.0442 77.0537 77.3104 77.3857 77.5732 77.7203C79.7926 80.6021 79.7926 80.6021 82.9638 81.9925C84.257 82.0754 85.5349 82.0191 86.8205 81.8592C86.8798 81.7002 86.939 81.5413 87 81.3775C87.5817 79.9332 88.8244 78.863 90.1741 78.2029C91.9705 77.5019 93.7389 77.6855 95.5002 78.406C97.3066 79.4272 98.3851 80.8492 98.9686 82.8653C99.3509 84.7935 98.9268 86.5133 98.0154 88.2084C97.1343 89.5641 95.8735 90.2773 94.4276 90.8728C92.6128 91.2007 91.0385 91.0695 89.385 90.1873C88.2604 89.3674 87.121 88.3642 86.8205 86.9373C86.6116 86.9415 86.4027 86.9458 86.1874 86.9502C85.4088 86.9649 84.6302 86.9742 83.8514 86.9819C83.5151 86.986 83.1787 86.9915 82.8424 86.9986C82.3576 87.0085 81.8729 87.0131 81.388 87.0166C81.2388 87.0208 81.0896 87.025 80.9358 87.0293C79.4823 87.03 78.7393 86.3501 77.7317 85.3208C77.4275 84.9979 77.1242 84.6742 76.8216 84.3498C76.4894 83.9996 76.157 83.6496 75.8245 83.2997C75.3035 82.7493 74.7836 82.1979 74.2662 81.6439C73.7649 81.1081 73.2594 80.5768 72.753 80.0461C72.5218 79.7951 72.5218 79.7951 72.2859 79.539C71.4898 78.6506 71.4898 78.6506 70.4056 78.3844C70.2242 78.4586 70.0427 78.5328 69.8557 78.6092C69.683 78.6599 69.5103 78.7105 69.3323 78.7627C69.0746 78.8505 69.0746 78.8505 68.8116 78.94C68.6223 79.0035 68.4329 79.067 68.2379 79.1324C67.8428 79.2668 67.4478 79.4012 67.0527 79.5355C66.8642 79.5988 66.6756 79.662 66.4814 79.7271C66.3102 79.7854 66.139 79.8437 65.9626 79.9037C65.5159 80.031 65.5159 80.031 64.9241 80.031C65.1696 81.1294 65.6149 81.5846 66.5022 82.1765C66.7501 82.3512 66.998 82.5261 67.2458 82.701C67.3792 82.7936 67.5126 82.8862 67.65 82.9816C68.4369 83.5292 69.2152 84.0887 69.9913 84.6521C70.2215 84.8138 70.2215 84.8138 70.4564 84.9787C71.3106 85.5993 71.8856 86.0808 72.2229 87.1404C72.2614 87.7942 72.2614 87.7942 72.2475 88.4607C72.278 89.4155 72.278 89.4155 72.7846 90.1659C73.0948 90.3594 73.4106 90.5438 73.7309 90.7189C75.0364 91.5081 75.7104 93.0957 76.1066 94.5418C76.3354 96.474 76.0914 98.2935 74.9599 99.8992C73.7825 101.33 72.3374 102.249 70.5138 102.457C68.4157 102.508 66.9005 102.194 65.2446 100.747C63.9336 99.3669 63.3245 97.7959 63.2473 95.8748C63.3271 93.8891 63.9742 92.408 65.2985 90.9728C65.6828 90.6212 66.0377 90.371 66.4899 90.1238C67.1199 89.8505 67.1199 89.8505 67.2789 89.324C67.283 89.2067 67.287 89.0894 67.2912 88.9685C67.1527 88.9204 67.0141 88.8722 66.8713 88.8225C66.2021 88.5151 65.7067 88.1185 65.1336 87.6482C64.0825 86.7928 63.0088 85.9831 61.9 85.2083C61.0066 84.5687 60.3412 83.9521 59.9924 82.8748C59.9672 82.3316 59.9837 81.794 59.9924 81.2498C59.6133 81.3158 59.6133 81.3158 59.2265 81.3831C58.8818 81.4403 58.5371 81.4975 58.1924 81.5545C58.0273 81.5835 57.8623 81.6126 57.6923 81.6425C56.2199 81.8819 54.7737 81.8893 53.2854 81.8592C53.2746 82.969 53.274 84.0781 53.283 85.188C53.2846 85.5653 53.2834 85.9426 53.2793 86.3198C53.2739 86.8632 53.2787 87.4056 53.2854 87.9489C53.2796 88.201 53.2796 88.201 53.2738 88.4582C53.2856 88.9495 53.3122 89.3212 53.4826 89.781C53.9631 90.2287 54.4851 90.5 55.0608 90.7967C56.329 91.9522 57.1372 93.2816 57.3054 95.0242C57.3729 96.5992 57.2756 97.9663 56.4416 99.3279C56.3725 99.4541 56.3033 99.5803 56.232 99.7104C55.3885 101.104 54.0167 101.957 52.4963 102.375C50.7431 102.536 49.097 102.557 47.5647 101.562C47.4421 101.491 47.3195 101.42 47.1933 101.346C45.8375 100.476 45.0171 99.0659 44.6057 97.4998C44.3478 95.1049 44.6393 93.2957 46.1337 91.368C46.8441 90.586 47.3745 90.2852 48.3537 89.781C48.4188 87.1668 48.4839 84.5526 48.551 81.8592C47.6396 81.8592 46.7283 81.8592 45.7893 81.8592C45.0643 81.7738 44.3608 81.6807 43.644 81.5545C43.4683 81.5254 43.2926 81.4963 43.1116 81.4664C42.6887 81.3962 42.2663 81.3233 41.844 81.2498C41.8562 81.4928 41.8684 81.7358 41.881 81.9861C41.878 83.0542 41.571 83.7604 40.8376 84.5268C39.2911 85.784 37.6914 86.9548 36.0717 88.1098C35.7955 88.3106 35.5263 88.5214 35.2595 88.7353C34.9397 88.9685 34.9397 88.9685 34.5451 88.9685C34.5828 89.3587 34.5828 89.3587 34.7424 89.781C35.1052 90.0789 35.1052 90.0789 35.5561 90.3269C36.9522 91.238 37.957 92.5055 38.4042 94.1601C38.7613 96.2121 38.4989 98.0763 37.3808 99.831C36.3559 101.146 35.0222 102.167 33.3729 102.438C31.2797 102.644 29.4763 102.289 27.7888 100.953C26.431 99.6427 25.7427 97.8194 25.6189 95.9383C25.6515 94.152 26.3215 92.5513 27.4436 91.2029C28.054 90.6458 28.6857 90.1572 29.4162 89.781C29.4876 89.1305 29.5039 88.484 29.5264 87.8299C29.6436 86.902 29.8449 86.2531 30.5389 85.6149C30.9615 85.2834 31.3935 84.9725 31.8327 84.6648C32.152 84.4334 32.4713 84.202 32.7906 83.9706C33.263 83.6326 33.7359 83.2954 34.2089 82.9584C34.6227 82.6621 35.034 82.3624 35.4452 82.0623C35.5707 81.9745 35.6963 81.8868 35.8256 81.7963C36.3774 81.3924 36.6828 81.1502 36.8931 80.4754C36.8994 80.3287 36.9058 80.1821 36.9123 80.031C36.5279 79.9682 36.5279 79.9682 36.1356 79.9041C34.9642 79.6708 33.873 79.2491 32.7656 78.8011C32.6273 78.7474 32.4891 78.6938 32.3467 78.6385C32.2239 78.589 32.1012 78.5395 31.9747 78.4884C31.452 78.3776 31.113 78.4578 30.5998 78.6092C30.1787 78.9288 30.1787 78.9288 29.7942 79.353C29.567 79.5889 29.567 79.5889 29.3354 79.8296C29.1746 80.0005 29.0139 80.1715 28.8483 80.3476C28.6808 80.5222 28.5133 80.6968 28.3408 80.8767C27.8056 81.435 27.273 81.996 26.7408 82.5574C26.2076 83.1177 25.6738 83.6774 25.1388 84.236C24.8059 84.5837 24.4742 84.9324 24.1435 85.2824C23.9928 85.4403 23.842 85.5982 23.6866 85.7609C23.5547 85.9002 23.4227 86.0394 23.2868 86.1828C22.4095 86.9861 21.6232 86.9927 20.4869 86.977C20.3304 86.9764 20.1739 86.9758 20.0126 86.9752C19.5142 86.973 19.0158 86.9679 18.5173 86.9627C18.1788 86.9606 17.8402 86.9588 17.5017 86.9571C16.6731 86.9527 15.8445 86.9456 15.0159 86.9373C14.9566 87.0962 14.8974 87.2552 14.8364 87.4189C14.2498 88.8754 13.0091 89.9099 11.6623 90.5935C9.913 91.3073 8.1662 91.1668 6.44867 90.4412C4.60086 89.5159 3.66555 88.1875 2.90867 86.239C2.59028 84.3703 2.71764 82.7493 3.57444 81.0467C4.66389 79.4623 5.96401 78.4047 7.791 77.8601C9.64172 77.6333 11.3413 77.8248 12.8952 78.9646C13.8602 79.7748 14.735 80.5844 15.0159 81.8592C16.8648 82.1891 19.0768 82.4769 20.7389 81.3986C22.6863 79.8782 24.3019 77.8887 25.8655 75.9685C25.3842 75.587 24.9053 75.2416 24.3767 74.9339C24.2442 74.8557 24.1116 74.7775 23.9751 74.697C23.834 74.6139 23.6929 74.5308 23.5476 74.4451C16.8432 70.4331 10.7216 64.9885 5.94163 58.7029C5.84189 58.5722 5.74214 58.4414 5.63938 58.3067C4.872 57.2977 4.11942 56.2785 3.37718 55.2498C3.22181 55.0364 3.06644 54.823 2.90636 54.6031C2.22127 53.5943 1.76386 52.7524 1.86378 51.4959C2.1381 50.4367 2.74594 49.6168 3.37718 48.7498C3.53178 48.5353 3.68639 48.3209 3.84568 48.0999C4.33677 47.4278 4.84132 46.7673 5.34983 46.1092C5.56992 45.8228 5.56992 45.8228 5.79445 45.5307C6.74789 44.3101 7.75391 43.1512 8.78811 42.0038C9.21245 41.5297 9.62641 41.0498 10.0349 40.5613C11.002 39.4165 12.045 38.3747 13.1626 37.3867C13.5193 37.071 13.8727 36.7513 14.2245 36.4298C17.7415 33.2351 21.6887 30.4377 25.8655 28.2342C25.5983 27.9137 25.3309 27.5935 25.0628 27.2739C24.7921 26.9459 24.526 26.6139 24.2632 26.2793C22.0438 23.3975 22.0438 23.3975 18.8725 22.0071C17.5794 21.9242 16.3015 21.9804 15.0159 22.1404C14.9566 22.2994 14.8974 22.4583 14.8364 22.622C14.2547 24.0663 13.012 25.1366 11.6623 25.7967C9.86593 26.4977 8.09752 26.314 6.33616 25.5935C4.52981 24.5724 3.45129 23.1504 2.86783 21.1343C2.48545 19.2061 2.90962 17.4863 3.82103 15.7912C4.70211 14.4354 5.96288 13.7223 7.40879 13.1267C9.38571 12.7696 11.2127 12.9345 12.9037 14.1328C13.764 14.8707 14.4218 15.6811 15.0159 16.656C15.0159 16.7901 15.0159 16.9242 15.0159 17.0623C15.2248 17.058 15.4337 17.0538 15.649 17.0494C16.4276 17.0346 17.2062 17.0253 17.9849 17.0177C18.3213 17.0136 18.6577 17.008 18.994 17.001C19.4788 16.9911 19.9635 16.9865 20.4484 16.9829C20.5976 16.9788 20.7468 16.9746 20.9006 16.9702C22.3541 16.9696 23.0971 17.6495 24.1047 18.6788C24.4089 19.0016 24.7122 19.3253 25.0148 19.6498C25.347 19.9999 25.6794 20.35 26.0119 20.6999C26.5329 21.2503 27.0528 21.8016 27.5702 22.3557C28.0715 22.8915 28.577 23.4227 29.0834 23.9535C29.2375 24.1208 29.3916 24.2881 29.5505 24.4605C30.3466 25.349 30.3466 25.349 31.4307 25.6152C31.703 25.5039 31.703 25.5039 31.9807 25.3904C32.1534 25.3397 32.3261 25.289 32.5041 25.2368C32.6759 25.1783 32.8478 25.1198 33.0248 25.0595C33.2141 24.996 33.4035 24.9326 33.5985 24.8671C33.9935 24.7328 34.3886 24.5984 34.7836 24.4641C35.0665 24.3692 35.0665 24.3692 35.355 24.2724C35.5262 24.2142 35.6974 24.1559 35.8738 24.0958C36.3205 23.9685 36.3205 23.9685 36.9123 23.9685C36.6668 22.8702 36.2215 22.4149 35.3342 21.823C35.0863 21.6483 34.8384 21.4735 34.5906 21.2986C34.4572 21.206 34.3238 21.1134 34.1864 21.018C33.3995 20.4704 32.6212 19.9109 31.8451 19.3474C31.6916 19.2397 31.5381 19.1319 31.38 19.0209C30.5258 18.4002 29.9507 17.9188 29.6135 16.8592C29.575 16.2054 29.575 16.2054 29.5888 15.5389C29.5584 14.5841 29.5584 14.5841 29.0518 13.8337C28.7416 13.6402 28.4258 13.4558 28.1055 13.2807C26.8 12.4915 26.1259 10.9039 25.7298 9.4578C25.4813 7.35956 25.9016 5.59492 27.1022 3.8671C29.2254 1.29093 32.8036 0.781802 35.6054 2.45951ZM31.9807 29.4529C31.8197 29.5917 31.6588 29.7305 31.4929 29.8734C25.7303 34.9703 22.5292 42.4636 21.9201 50.1717C21.4181 57.6277 23.8719 65.3135 28.5886 70.9912C28.803 71.2429 28.803 71.2429 29.0217 71.4998C29.1565 71.6655 29.2913 71.8313 29.4301 72.002C34.38 77.9359 41.6571 81.2321 49.1428 81.8592C56.3622 82.3746 63.8302 79.8632 69.3333 75.0219C69.5057 74.8651 69.6781 74.7083 69.8557 74.5467C69.9523 74.4605 70.0488 74.3744 70.1483 74.2857C75.8662 69.1764 79.2753 61.7838 79.8885 54.0468C80.4311 45.7926 77.5421 38.1234 72.347 31.9167C69.1472 28.1767 64.9503 25.3965 60.3869 23.7654C60.2597 23.7194 60.1325 23.6733 60.0015 23.6259C50.4135 20.2341 39.5657 22.6052 31.9807 29.4529Z" fill="url(#paint0_linear_158_786)"/>
<path d="M67.7225 33.5662C72.4754 38.107 75.1197 44.5722 75.4151 51.1858C75.5269 55.8831 74.453 60.3019 72.2226 64.3905C72.1209 64.5819 72.0192 64.7733 71.9144 64.9705C71.2149 66.2329 70.3715 67.3455 69.4609 68.453C69.3294 68.6182 69.1979 68.7834 69.0625 68.9536C65.15 73.6849 59.2143 76.4948 53.2712 77.131C48.1605 77.5024 43.3602 76.526 38.8847 73.9373C38.6059 73.7802 38.6059 73.7802 38.3214 73.62C37.0954 72.8997 36.0151 72.0311 34.9394 71.0936C34.7812 70.9606 34.6231 70.8276 34.4601 70.6905C29.7546 66.5728 27.0021 60.3035 26.4856 54.0299C26.0141 47.3546 27.9798 40.8595 32.1777 35.7498C32.3391 35.548 32.5006 35.3461 32.667 35.1381C36.7046 30.3264 42.6627 27.3397 48.8073 26.8377C55.8822 26.5004 62.4118 28.6674 67.7225 33.5662ZM38.9949 41.7992C36.2881 45.3079 35.2745 49.4036 35.5312 53.828C36.0737 58.1826 38.2603 62.0267 41.5848 64.7459C45.0806 67.3277 49.2074 68.3041 53.4562 67.7428C57.7441 66.8726 61.4042 64.4 63.8939 60.7121C66.1274 57.1492 66.8636 52.7784 66.058 48.6356C65.7322 47.2825 65.3806 46.0509 64.4922 44.9793C63.7061 44.5656 63.0277 44.525 62.162 44.6873C61.6007 45.047 61.2363 45.4314 60.7935 45.9315C60.1936 46.4931 59.6305 46.7027 58.8178 46.7329C57.7353 46.6605 57.1786 46.3132 56.4413 45.4998C55.9626 44.5352 55.9937 43.6831 56.2441 42.6561C56.622 41.8195 57.1753 41.2559 57.8222 40.6248C58.1279 40.31 58.075 40.008 58.0934 39.5711C58.0774 38.7691 57.9582 38.231 57.3884 37.6343C51.7752 33.5345 42.9832 37.1207 38.9949 41.7992Z" fill="url(#paint1_linear_158_786)"/>
<path d="M51.9045 40.8281C51.8583 41.0496 51.8583 41.0496 51.8113 41.2756C51.3902 43.515 51.354 45.7083 52.4963 47.7343C53.8846 49.6563 55.3223 50.7765 57.5928 51.3033C59.0043 51.5007 60.3765 51.2295 61.7678 50.9843C61.9037 54.199 61.2111 56.9056 59.2526 59.4775C57.3013 61.6253 54.6147 63.0427 51.7673 63.2163C48.666 63.3186 45.6739 62.5255 43.3458 60.2829C40.9882 57.6083 39.9275 54.7625 40.0208 51.1859C40.1783 48.5121 41.266 45.7058 43.2248 43.875C45.9248 41.5678 48.443 40.7289 51.9045 40.8281Z" fill="url(#paint2_linear_158_786)"/>
<defs>
<linearGradient id="paint0_linear_158_786" x1="50.917" y1="1.4873" x2="50.917" y2="102.492" gradientUnits="userSpaceOnUse">
<stop stop-color="#4C2FA2"/>
<stop offset="1" stop-color="#A541E3"/>
</linearGradient>
<linearGradient id="paint1_linear_158_786" x1="50.92" y1="26.8037" x2="50.92" y2="77.2071" gradientUnits="userSpaceOnUse">
<stop stop-color="#4C2FA2"/>
<stop offset="1" stop-color="#A541E3"/>
</linearGradient>
<linearGradient id="paint2_linear_158_786" x1="50.8997" y1="40.8203" x2="50.8997" y2="63.2249" gradientUnits="userSpaceOnUse">
<stop stop-color="#4C2FA2"/>
<stop offset="1" stop-color="#A541E3"/>
</linearGradient>
</defs>
</svg>
