<svg width="106" height="123" viewBox="0 0 106 123" fill="none" xmlns="http://www.w3.org/2000/svg">
<path d="M40.4418 9.39782C41.5999 10.1467 42.3867 11.0549 42.911 12.4907C42.911 12.6485 42.911 12.8063 42.911 12.9689C48.6997 12.9689 54.4885 12.9689 60.4527 12.9689C60.52 12.5744 60.5873 12.1799 60.6566 11.7735C61.3166 10.4862 62.2743 9.54253 63.5123 9.14381C65.0683 8.9224 66.521 8.93955 67.7957 10.1001C68.6246 10.9977 69.2109 11.8879 69.4275 13.2079C69.4112 13.411 69.3949 13.6141 69.3781 13.8233C69.3232 14.5384 69.3097 15.1319 69.4275 15.8377C69.9818 16.61 70.7239 17.0207 71.4672 17.5111C71.914 17.8377 72.357 18.1706 72.8002 18.5036C73.3002 18.8783 73.8024 19.2486 74.3053 19.6179C75.1554 20.242 76.0045 20.8678 76.8526 21.4955C77.178 21.7362 77.5036 21.9764 77.8295 22.2162C78.5823 22.7714 79.33 23.3327 80.0676 23.9155C80.1983 24.0177 80.329 24.12 80.4637 24.2253C80.8124 24.4992 81.1592 24.7764 81.5058 25.0538C82.0336 25.4504 82.0336 25.4504 82.5201 25.3592C82.8558 25.1794 83.1856 24.9843 83.5144 24.7877C84.7441 24.1585 86.0655 24.2697 87.3262 24.713C88.5606 25.5476 89.5322 26.4132 90.0288 28.03C90.3189 29.6252 90.2806 31.2109 89.542 32.6423C89.3652 33.2596 89.3652 33.2596 89.5676 33.6919C89.8391 34.1846 90.1316 34.6474 90.4368 35.1123C90.5481 35.2892 90.6595 35.4661 90.7743 35.6484C91.0126 36.0262 91.2527 36.4026 91.4942 36.7777C91.8569 37.3417 92.2149 37.9094 92.5713 38.4789C93.0452 39.236 93.5207 39.9917 93.9975 40.7462C94.8429 42.087 95.6742 43.4396 96.5025 44.7949C96.9404 45.5092 97.3782 46.2081 97.8547 46.8882C98.1878 47.3943 98.1878 47.3943 98.1878 47.8725C98.3897 47.7936 98.5916 47.7147 98.7997 47.6334C100.421 47.4121 101.765 47.6537 103.083 48.8287C104.179 50.3187 104.603 51.6574 104.579 53.6138C104.443 55.0456 103.972 56.1911 103.072 57.1773C102.073 58.0277 101.25 58.3391 100.024 58.3913C100.005 58.5299 99.9868 58.6684 99.9679 58.8111C99.7587 60.272 99.4807 61.7015 99.167 63.1353C99.1057 63.4157 99.1057 63.4157 99.0432 63.7018C98.8722 64.4818 98.7001 65.2615 98.5263 66.0408C98.3985 66.6158 98.2727 67.1914 98.1471 67.7672C98.1072 67.9435 98.0673 68.1198 98.0261 68.3015C97.8029 69.3232 97.8029 69.3232 97.9838 70.3446C98.1395 70.4778 98.2951 70.6109 98.4555 70.7481C99.3627 71.663 99.7511 72.5645 99.8984 73.9614C99.9448 75.5778 99.8702 76.9301 99.0037 78.2338C98.1338 79.3137 97.2745 80.0332 95.9927 80.235C94.4707 80.2755 93.3125 80.0225 92.0686 78.951C91.0487 77.6936 91.0487 77.6936 91.0487 76.7994C90.9054 76.8186 90.762 76.8379 90.6144 76.8577C87.4305 77.2829 84.2467 77.6731 81.054 77.9947C81.0285 78.2138 81.003 78.433 80.9767 78.6587C80.7679 79.9287 80.2877 80.7051 79.4023 81.4743C78.0051 82.4168 76.7196 82.4286 75.1388 82.2979C75.092 82.4576 75.0452 82.6172 74.9969 82.7817C74.6552 83.6954 74.2061 84.4865 73.7364 85.3161C73.5355 85.6758 73.3347 86.0357 73.1341 86.3957C73.029 86.5838 72.924 86.7719 72.8158 86.9658C72.2495 87.9851 71.6918 89.0107 71.1358 90.0377C71.0296 90.2323 70.9234 90.427 70.814 90.6275C70.7156 90.8095 70.6172 90.9914 70.5159 91.1788C70.4287 91.3395 70.3415 91.5002 70.2517 91.6657C70.0084 92.1298 70.0084 92.1298 69.8355 92.8168C69.9659 93.0781 70.0963 93.3395 70.2307 93.6087C70.8691 95.0242 70.8297 96.5186 70.6513 98.0763C70.1778 99.5903 69.1687 100.758 67.9336 101.449C66.7098 101.927 65.2489 101.918 64.0605 101.304C62.9135 100.509 62.0833 99.3825 61.5873 97.9418C61.469 97.0947 61.4647 96.3032 61.4725 95.4465C59.1079 93.9755 56.7339 92.5326 54.3335 91.1434C54.2222 91.2731 54.111 91.4028 53.9964 91.5365C52.3663 93.3491 51.0582 93.9064 48.8142 93.8459C48.0761 93.7563 47.4402 93.5363 46.7538 93.2128C46.3489 93.0157 46.3489 93.0157 45.7666 93.0559C45.354 93.4736 44.9769 93.8926 44.5969 94.3483C44.4267 94.5485 44.4267 94.5485 44.2531 94.7527C44.0124 95.0364 43.7724 95.3211 43.533 95.6065C43.1716 96.0375 42.8081 96.466 42.444 96.894C41.387 98.1415 40.3537 99.3955 39.3803 100.734C38.9681 101.272 38.5308 101.77 38.0857 102.27C37.9237 102.453 37.7618 102.635 37.5949 102.823C37.2589 103.2 36.921 103.574 36.5814 103.946C36.4215 104.128 36.2617 104.309 36.097 104.496C35.8783 104.739 35.8783 104.739 35.6552 104.987C35.306 105.471 35.306 105.471 35.4171 106.098C35.4668 106.291 35.5166 106.484 35.5679 106.683C35.803 110.463 35.803 110.463 34.752 111.942C33.6687 113.147 32.6257 113.769 31.1315 113.944C29.9295 113.898 28.7745 113.432 27.8448 112.529C26.9105 111.342 26.3775 109.975 26.3126 108.356C26.3795 106.617 26.9839 105.268 28.0209 104.053C28.3564 103.881 28.696 103.719 29.0408 103.575C28.9918 103.303 28.9428 103.031 28.8923 102.752C28.4772 100.407 28.1179 98.0602 27.8082 95.6931C27.6993 94.8873 27.5897 94.0817 27.4798 93.2762C27.4062 92.7245 27.3354 92.1723 27.2671 91.6197C27.1661 90.8093 27.0547 90.0016 26.9413 89.1935C26.9131 88.9467 26.885 88.7 26.8561 88.4457C26.6845 87.1606 26.6845 87.1606 25.9635 86.2426C25.4985 86.0009 25.0388 85.8204 24.5533 85.6448C23.4867 84.832 22.7635 83.944 22.3885 82.5052C22.29 81.9475 22.2643 81.4305 22.3096 80.8635C22.0896 80.8395 21.8695 80.8155 21.6427 80.7907C20.2836 80.5921 18.9782 80.1057 17.6641 79.6673C17.3625 79.5707 17.3625 79.5707 17.0549 79.4721C16.8741 79.4123 16.6933 79.3524 16.507 79.2908C15.9251 79.1782 15.5304 79.2359 14.9666 79.4291C14.5569 79.7964 14.5569 79.7964 14.1889 80.2509C13.2312 81.2728 12.4842 81.5588 11.2042 81.5947C9.66675 81.5093 8.62471 80.8604 7.5598 79.5785C6.71353 78.0356 6.35427 76.7228 6.60368 74.8869C7.05478 73.39 7.68076 72.4074 8.64341 71.3009C8.60764 71.1522 8.57186 71.0035 8.535 70.8503C8.16382 69.3071 7.79337 67.7637 7.42336 66.2202C7.28504 65.6436 7.14654 65.0671 7.00784 64.4907C6.80888 63.6636 6.6106 62.8364 6.41245 62.0091C6.34999 61.7501 6.28753 61.4911 6.22317 61.2243C6.166 60.985 6.10883 60.7457 6.04992 60.4992C5.99919 60.2879 5.94846 60.0766 5.89619 59.8589C5.78778 59.3476 5.78778 59.3476 5.78778 58.8695C5.66946 58.8633 5.55114 58.8572 5.42924 58.8508C3.94089 58.7241 3.0859 58.165 2.06527 56.8822C1.1905 55.6235 0.957481 54.2547 1.09639 52.6538C1.49668 50.8158 2.20092 49.6463 3.54408 48.5897C4.63794 47.9344 5.81077 48.0664 7.01162 48.1115C7.07986 47.8245 7.07986 47.8245 7.14947 47.5316C7.49516 46.438 7.97465 45.4841 8.47768 44.4807C8.69739 44.0367 8.91675 43.5925 9.13582 43.1481C9.25315 42.9101 9.37049 42.6721 9.49138 42.4268C10.2455 40.8818 10.9779 39.3224 11.7126 37.7645C11.9029 37.361 12.0934 36.9576 12.2839 36.5542C12.3933 36.322 12.5027 36.0898 12.6154 35.8505C12.8264 35.411 13.0466 34.9774 13.2746 34.5497C13.5781 34.0413 13.5781 34.0413 13.5133 33.5285C13.3333 33.0185 13.3333 33.0185 13.0288 32.4527C12.402 31.2282 12.3965 29.9034 12.5189 28.5081C12.8833 26.9001 13.59 25.8414 14.7626 24.9221C15.8563 24.1915 17.0583 24.0585 18.2812 24.3842C19.0461 24.6831 19.0461 24.6831 19.5815 25.1014C20.0563 25.4725 20.0563 25.4725 20.5918 25.263C21.5107 24.8143 22.3132 24.2185 23.151 23.5923C23.5312 23.3122 23.9115 23.0324 24.292 22.7528C24.4966 22.6023 24.7011 22.4518 24.9119 22.2967C26.2396 21.3282 27.5798 20.3836 28.9186 19.4362C30.325 18.4407 31.7202 17.4322 33.0934 16.3745C33.5282 16.0767 33.5282 16.0767 33.9361 16.0767C33.9184 15.7476 33.9184 15.7476 33.9003 15.4118C33.8417 13.5457 33.8457 12.2242 34.956 10.8173C36.4354 9.05159 38.4378 8.53564 40.4418 9.39782ZM42.911 15.8377C42.4061 16.9027 42.4061 16.9027 41.8911 17.9892C41.4651 18.4075 41.0679 18.6712 40.5804 18.9754C39.9864 19.8046 40.226 21.0534 40.2922 22.0906C40.3352 22.5999 40.385 23.1076 40.4378 23.6157C40.4649 23.8897 40.4649 23.8897 40.4927 24.1693C40.5499 24.7441 40.6085 25.3187 40.6672 25.8934C40.7066 26.2866 40.746 26.68 40.7852 27.0733C40.8807 28.0298 40.9776 28.9862 41.0752 29.9425C41.2673 29.9856 41.4594 30.0287 41.6573 30.0732C41.9114 30.133 42.1655 30.1928 42.4273 30.2544C42.6783 30.3123 42.9293 30.3702 43.1879 30.4299C45.1328 31.0316 46.5737 32.4918 47.6023 34.4848C47.9521 35.2762 48.2896 36.074 48.6222 36.8754C49.6494 36.7443 50.6764 36.6125 51.7035 36.48C52.0526 36.4351 52.4018 36.3903 52.751 36.3458C53.2539 36.2816 53.7566 36.2167 54.2594 36.1517C54.4147 36.132 54.5701 36.1123 54.7301 36.0921C55.4908 35.993 56.2378 35.8747 56.9851 35.6801C57.0027 35.5353 57.0204 35.3904 57.0385 35.2412C57.3478 33.0793 57.9664 31.1423 59.4328 29.7035C59.5501 29.5833 59.6673 29.4631 59.7882 29.3393C60.703 28.4565 61.5484 28.0204 62.6956 27.6817C63.1008 27.5956 63.1008 27.5956 63.3083 27.3128C63.4053 26.2225 63.4468 25.1301 63.4884 24.0352C63.5119 23.4975 63.5466 22.9618 63.5824 22.425C63.7318 20.7096 63.7318 20.7096 63.184 19.2079C62.7651 18.9049 62.7651 18.9049 62.3099 18.6896C61.2693 18.1511 60.8593 17.029 60.4527 15.8377C54.6639 15.8377 48.8751 15.8377 42.911 15.8377ZM67.4388 18.7961C66.9798 19.1846 66.9798 19.1846 65.96 19.6627C65.8926 22.2661 65.8253 24.8696 65.756 27.5519C66.4964 27.8674 67.2368 28.183 67.9997 28.5081C69.3801 29.3647 70.6239 30.89 71.2633 32.5723C73.4874 32.0236 75.692 31.4021 77.8924 30.7344C78.137 30.6605 78.3816 30.5865 78.6337 30.5103C79.7693 30.1961 79.7693 30.1961 80.85 29.7035C80.9842 28.9792 80.9842 28.9792 81.054 28.2691C79.7395 27.1683 78.405 26.1312 77.0255 25.1463C75.1024 23.7623 73.1955 22.3505 71.2935 20.9271C71.1239 20.8002 70.9542 20.6734 70.7794 20.5426C70.3924 20.2525 70.0059 19.9615 69.6197 19.6699C69.4159 19.5165 69.212 19.3632 69.002 19.2051C68.8152 19.0641 68.6285 18.9231 68.436 18.7778C67.9104 18.363 67.9104 18.363 67.4388 18.7961ZM34.6175 18.7331C34.4124 18.8845 34.2072 19.036 33.9959 19.192C33.883 19.2739 33.7701 19.3557 33.6537 19.44C33.2827 19.7099 32.9147 19.9851 32.5466 20.2604C32.2895 20.4486 32.0322 20.6365 31.7747 20.8239C31.2505 21.2062 30.7273 21.5903 30.2048 21.9758C29.3171 22.6299 28.4219 23.2694 27.5252 23.9065C27.1365 24.1828 26.7485 24.4605 26.3613 24.7397C25.5132 25.3502 24.6642 25.9454 23.7868 26.4966C23.6413 26.5905 23.4957 26.6843 23.3457 26.781C23.0821 26.9494 22.8158 27.1122 22.5464 27.2675C22.1508 27.5029 22.1508 27.5029 21.6977 28.03C21.5928 28.711 21.6373 29.2434 21.6977 29.9425C23.0204 30.6615 24.3612 31.2715 25.7365 31.8373C25.9403 31.9214 26.144 32.0055 26.3539 32.0922C26.7811 32.2681 27.2084 32.4434 27.6359 32.6183C28.291 32.887 28.9449 33.1594 29.5989 33.4319C30.0154 33.6028 30.432 33.7736 30.8486 33.9441C31.1415 34.0669 31.1415 34.0669 31.4404 34.1923C31.6222 34.2658 31.8041 34.3393 31.9915 34.415C32.1508 34.4806 32.3101 34.5462 32.4743 34.6138C32.9747 34.7384 33.2564 34.6956 33.7321 34.4848C34.0223 34.0998 34.0223 34.0998 34.2676 33.6182C35.3703 31.8002 36.8763 30.9071 38.6275 30.1816C38.4345 27.4855 38.2377 24.7898 38.0028 22.0982C37.9786 21.8117 37.9786 21.8117 37.9539 21.5194C37.8802 20.5604 37.8802 20.5604 37.6076 19.6627C37.2511 19.4632 37.2511 19.4632 36.83 19.3041C36.0073 18.9713 36.0073 18.9713 35.6138 18.6495C35.141 18.394 35.141 18.394 34.6175 18.7331ZM19.9775 33.5845C19.7912 33.8206 19.7912 33.8206 19.6011 34.0615C18.9676 34.8253 18.2315 34.9515 17.3497 34.976C17.1068 34.9737 17.1068 34.9737 16.8589 34.9713C16.6951 34.9701 16.5313 34.9689 16.3625 34.9676C16.2384 34.9661 16.1143 34.9645 15.9865 34.9629C15.9098 35.1246 15.8331 35.2864 15.7541 35.453C15.5207 35.9456 15.2872 36.4381 15.0537 36.9307C14.7806 37.5069 14.5075 38.0831 14.2345 38.6594C13.5845 40.0313 12.9341 41.4031 12.2818 42.7735C12.0061 43.3529 11.7307 43.9324 11.4552 44.5118C11.261 44.9201 11.0665 45.3281 10.8719 45.7361C10.6378 46.2289 10.405 46.7226 10.1738 47.2173C9.98107 47.6292 9.78511 48.0391 9.5846 48.4459C9.13101 49.3399 9.13101 49.3399 9.18044 50.3313C9.28088 50.4715 9.38132 50.6117 9.4848 50.7562C10.0525 51.578 10.2587 52.3461 10.4792 53.371C11.337 53.6126 12.1956 53.8507 13.0543 54.0882C13.297 54.1566 13.5397 54.225 13.7898 54.2955C14.0251 54.3602 14.2604 54.4249 14.5029 54.4916C14.7186 54.5517 14.9344 54.6118 15.1567 54.6737C15.7933 54.8076 16.3612 54.859 17.0063 54.8054C17.3454 54.3889 17.3454 54.3889 17.5673 53.8192C18.3828 52.2261 19.5494 51.5453 20.9966 50.8907C22.6692 50.5342 23.9781 50.8105 25.5732 51.4584C25.9811 51.618 26.389 51.7774 26.7971 51.9366C26.9843 51.7316 27.1715 51.5267 27.3644 51.3156C29.7427 48.7166 29.7427 48.7166 30.8877 47.5606C31.5671 46.8666 32.2301 46.1511 32.8955 45.4388C33.3242 45.0037 33.3242 45.0037 33.7321 44.7646C33.6083 43.8354 33.3612 43.017 33.0629 42.1498C32.745 41.0808 32.689 40.0797 32.6995 38.9523C32.7014 38.6968 32.7032 38.4414 32.7051 38.1782C32.7075 37.9849 32.7098 37.7917 32.7123 37.5926C32.264 37.4058 31.8157 37.219 31.3673 37.0323C31.2265 36.9737 31.0858 36.915 30.9407 36.8546C30.1606 36.53 29.3799 36.2074 28.5983 35.8881C28.2788 35.7575 27.9594 35.6268 27.64 35.4961C27.4014 35.3985 27.4014 35.3985 27.158 35.299C26.1928 34.9018 25.2371 34.4841 24.284 34.0487C24.0644 33.9522 23.8447 33.8558 23.6183 33.7564C23.2143 33.5788 22.8128 33.3933 22.4144 33.1989C21.3356 32.7378 20.8645 32.6639 19.9775 33.5845ZM80.1859 32.8099C80.0116 32.8617 79.8374 32.9136 79.6579 32.9671C79.4705 33.0238 79.283 33.0806 79.09 33.1391C78.8971 33.1969 78.7043 33.2547 78.5056 33.3143C78.0979 33.4366 77.6904 33.5595 77.2829 33.6827C76.6578 33.8716 76.0324 34.059 75.4069 34.2462C75.0113 34.3652 74.6157 34.4842 74.2201 34.6034C73.9383 34.6878 73.9383 34.6878 73.6509 34.7739C73.4773 34.8266 73.3037 34.8792 73.1249 34.9334C72.9718 34.9796 72.8188 35.0258 72.6611 35.0734C72.2688 35.1924 72.2688 35.1924 71.8752 35.441C71.7931 36.0126 71.7313 36.5686 71.684 37.1444C71.567 38.4881 71.3455 39.4951 70.8553 40.7005C71.1247 40.9677 71.3941 41.2348 71.6635 41.502C71.9008 41.7373 72.138 41.9726 72.3753 42.2079C72.9911 42.8187 73.6071 43.4295 74.2233 44.0399C74.3376 44.1533 74.4519 44.2667 74.5697 44.3835C74.7948 44.6064 75.0203 44.8289 75.2461 45.0509C75.7092 45.5072 76.165 45.967 76.6064 46.4521C77.2534 47.1992 77.2534 47.1992 78.1091 47.3943C78.3552 47.276 78.3552 47.276 78.6063 47.1553C80.0004 46.4939 81.5183 46.3928 82.9535 46.961C84.3297 47.6702 85.0986 48.719 85.7454 50.2631C85.8193 50.5801 85.8889 50.8986 85.9494 51.2194C90.7414 51.4326 90.7414 51.4326 95.5361 51.4584C95.9994 50.5587 95.9994 50.5587 96.1385 49.5478C95.8524 48.8415 95.4726 48.229 95.0772 47.6035C94.9871 47.4584 94.8969 47.3133 94.8041 47.1638C94.6079 46.8481 94.4113 46.5328 94.2143 46.2178C93.9006 45.7149 93.5897 45.2098 93.2797 44.7039C91.7762 42.2515 90.2662 39.8031 88.7175 37.3895C88.4999 37.0404 88.2911 36.6834 88.0909 36.3203C87.8068 35.8214 87.5407 35.3804 87.1732 34.9629C86.4843 34.7684 86.4843 34.7684 85.7709 34.9031C84.5224 34.9864 83.6795 34.9396 82.6858 34.0066C82.3223 33.5469 81.9992 33.0634 81.6659 32.5723C81.1096 32.5723 80.7188 32.6499 80.1859 32.8099ZM55.0291 38.7497C54.8779 38.7703 54.7268 38.791 54.5711 38.8123C54.2516 38.8561 53.9322 38.9001 53.6128 38.9443C53.125 39.0117 52.6371 39.078 52.1491 39.1442C51.8385 39.187 51.5279 39.2298 51.2173 39.2726C51.0717 39.2923 50.9262 39.312 50.7762 39.3323C50.1132 39.425 49.4684 39.5263 48.8262 39.7442C48.7744 39.9892 48.7226 40.2342 48.6692 40.4866C48.5984 40.812 48.5275 41.1372 48.4565 41.4625C48.4227 41.6235 48.3889 41.7845 48.3541 41.9504C48.1863 42.7113 48.0153 43.321 47.6509 43.9848C47.5676 44.1633 47.4842 44.3417 47.3984 44.5255C47.6689 45.5095 48.3366 46.1681 48.9489 46.876C49.0622 47.0087 49.1754 47.1413 49.2921 47.278C49.532 47.5584 49.7724 47.8383 50.0133 48.1177C50.377 48.5396 50.7391 48.9635 51.101 49.3876C52.179 50.647 53.257 51.8936 54.4206 53.0457C54.7474 53.3771 55.0515 53.726 55.3533 54.0882C55.8285 53.8726 56.2963 53.6566 56.7493 53.3822C58.9375 52.0998 61.3676 51.8833 63.7162 52.6538C65.7248 53.5592 67.3422 54.9112 68.6116 56.957C70.8502 56.5075 74.5787 55.2104 76.1188 53.1074C76.5543 52.0794 76.5908 51.1086 76.3311 50.0077C75.8439 48.7035 74.869 47.982 73.8922 47.2271C73.2596 46.7166 72.6943 46.1193 72.1174 45.5266C71.1796 44.5895 70.2211 43.7003 69.2235 42.8521C69.0976 42.9501 68.9716 43.0481 68.8419 43.149C66.9297 44.5749 65.0454 45.1601 62.7832 44.6451C60.7163 43.9921 59.2649 42.7293 58.005 40.7005C57.6835 40.0009 57.4183 39.2963 57.1891 38.5489C56.4607 38.5489 55.7512 38.6499 55.0291 38.7497ZM35.3639 46.6771C35.2377 46.8161 35.2377 46.8161 35.109 46.9578C32.8696 49.421 30.5896 51.7923 28.2249 54.0882C28.2876 54.3179 28.2876 54.3179 28.3516 54.5523C28.6712 55.7551 28.9246 56.8996 29.0408 58.1523C29.8069 58.5369 30.5623 58.7971 31.3737 59.0189C31.5964 59.0811 31.8191 59.1434 32.0486 59.2075C32.7106 59.3473 33.2669 59.437 33.9361 59.3476C34.3008 58.9818 34.3008 58.9818 34.548 58.4661C35.482 56.8568 36.5682 55.8572 38.2315 55.4096C40.1286 55.0647 41.8722 55.5333 43.4767 56.7571C44.6634 57.904 45.1699 59.3894 45.7666 61.0211C47.8532 61.0211 49.9399 61.0211 52.0898 61.0211C52.359 60.0744 52.6283 59.1277 52.9057 58.1523C53.166 57.5081 53.4332 56.8673 53.7215 56.2398C53.0765 55.4767 52.4303 54.7151 51.7838 53.9537C51.5125 53.6327 51.5125 53.6327 51.2356 53.3051C50.3082 52.2141 49.3701 51.162 48.372 50.1604C47.723 49.4868 47.1385 48.7394 46.5562 47.9873C46.2549 47.6042 46.2549 47.6042 45.7666 47.1553C45.3376 47.1374 45.3376 47.1374 44.9507 47.3943C44.8037 47.4683 44.6567 47.5422 44.5053 47.6185C44.1992 47.7875 43.8933 47.9569 43.5874 48.1265C41.6039 49.0674 39.33 48.761 37.3662 47.936C36.6673 47.5679 36.0239 47.1333 35.3639 46.6771ZM85.9494 54.0882C85.8061 54.385 85.6666 54.6844 85.5287 54.9847C85.4506 55.1511 85.3725 55.3175 85.292 55.4889C85.0987 56.1127 85.1256 56.3465 85.3374 56.957C85.6156 57.4708 85.6156 57.4708 85.9709 57.9889C86.1028 58.189 86.2348 58.3892 86.3708 58.5954C86.5136 58.8091 86.6564 59.0228 86.8035 59.243C87.1026 59.6963 87.4013 60.1499 87.6999 60.6036C87.851 60.833 88.002 61.0623 88.1577 61.2985C88.8191 62.3113 89.4625 63.339 90.1053 64.368C90.2811 64.6462 90.2811 64.6462 90.4605 64.93C90.9965 65.7781 91.5238 66.6293 92.0303 67.502C92.1194 67.6502 92.2084 67.7985 92.3001 67.9512C92.5343 68.3412 92.763 68.7358 92.9912 69.1306C93.4405 69.6745 93.4405 69.6745 93.9181 69.6503C94.4253 69.5877 94.4253 69.5877 95.1282 69.3884C95.7671 66.7796 96.3637 64.1583 96.9384 61.5291C97.0042 61.235 97.0699 60.9409 97.1377 60.638C97.1976 60.3607 97.2575 60.0834 97.3193 59.7977C97.3737 59.5497 97.4281 59.3017 97.4841 59.0461C97.5756 58.3933 97.5832 58.0424 97.3719 57.4351C97.2162 57.2576 97.0606 57.0801 96.9002 56.8972C96.4171 56.3179 96.1991 55.9509 95.9098 55.2424C95.8036 54.985 95.8036 54.985 95.6953 54.7225C95.6428 54.592 95.5902 54.4616 95.5361 54.3272C92.3382 54.1504 89.1508 54.0546 85.9494 54.0882ZM8.82189 56.957C8.33984 57.6986 8.22022 58.0124 8.32261 58.9518C8.3964 59.2535 8.47018 59.5551 8.54621 59.8659C8.62717 60.2081 8.70808 60.5503 8.78892 60.8926C8.83239 61.0704 8.87586 61.2482 8.92065 61.4314C9.0935 62.1534 9.24746 62.8802 9.40201 63.6078C9.55965 64.3411 9.72666 65.0713 9.89474 65.8014C9.97949 66.1754 10.0616 66.5502 10.1413 66.9258C10.2592 67.479 10.3857 68.0287 10.5142 68.5787C10.5479 68.746 10.5815 68.9134 10.6162 69.0858C10.7808 69.7563 10.9367 70.24 11.4644 70.5977C11.8898 70.7916 11.8898 70.7916 12.3128 70.9247C13.752 71.4059 14.634 72.4777 15.4255 73.9157C15.6444 74.6212 15.6974 75.3403 15.7825 76.0822C16.6639 76.3565 17.5458 76.6288 18.428 76.8993C18.7278 76.9916 19.0276 77.0843 19.3272 77.1776C19.7588 77.3119 20.1908 77.4443 20.6229 77.5764C20.8824 77.6565 21.142 77.7366 21.4094 77.8192C22.018 77.9726 22.5088 78.0791 23.1255 77.9947C23.5596 77.4435 23.5596 77.4435 23.9414 76.7994C24.2087 76.5531 24.48 76.3127 24.7573 76.0822C24.4667 74.3517 24.1709 72.6224 23.8717 70.8939C23.7511 70.1859 23.6365 69.4771 23.5239 68.7674C23.4593 68.3816 23.3945 67.996 23.3295 67.6103C23.3031 67.4325 23.2768 67.2548 23.2496 67.0716C23.1646 66.5236 23.1646 66.5236 22.9216 65.8024C22.4582 65.4385 22.4582 65.4385 21.9017 65.3243C21.7358 65.2682 21.5699 65.2121 21.3989 65.1543C21.2325 65.1019 21.066 65.0495 20.8946 64.9955C20.0022 64.6905 19.384 64.2905 18.6381 63.6508C18.4362 63.5719 18.2342 63.493 18.0262 63.4117C17.8095 62.9719 17.8095 62.9719 17.6182 62.4555C17.5173 62.2479 17.5173 62.2479 17.4143 62.0362C16.8593 60.8597 16.6673 59.8042 16.5546 58.4679C16.5017 58.2849 16.4489 58.1018 16.3944 57.9132C15.3654 57.3378 14.2495 57.1007 13.1436 56.8075C12.9444 56.7527 12.7452 56.6978 12.54 56.6413C10.5583 56.004 10.5583 56.004 8.82189 56.957ZM75.3204 56.8421C75.1971 56.9041 75.0739 56.966 74.9468 57.0299C74.6854 57.1615 74.4241 57.2936 74.1629 57.426C73.7667 57.6269 73.37 57.8264 72.9731 58.0257C71.8446 58.5949 70.7266 59.1715 69.6315 59.8257C69.6509 59.9968 69.6704 60.1678 69.6904 60.344C69.9482 63.0595 69.5799 65.3982 68.8156 67.954C69.3251 68.4427 69.8352 68.9305 70.3454 69.4183C70.4874 69.5545 70.6294 69.6907 70.7756 69.831C71.0634 70.1058 71.3522 70.3792 71.642 70.6511C71.9373 70.9285 72.23 71.2096 72.5203 71.4941C72.6613 71.6276 72.8023 71.761 72.9476 71.8986C73.1358 72.0807 73.1358 72.0807 73.3278 72.2665C73.7098 72.5506 73.7098 72.5506 74.1759 72.4138C74.476 72.2828 74.773 72.1415 75.0671 71.9929C76.2264 71.476 77.417 71.6332 78.5553 72.1526C79.5885 72.7516 80.3354 73.6805 80.85 74.8869C82.8823 74.9658 84.8763 74.6697 86.8927 74.4088C87.2569 74.3626 87.621 74.3165 87.9851 74.2705C88.8704 74.1586 89.7556 74.045 90.6407 73.9306C90.7896 73.5996 90.9331 73.2652 91.0742 72.9295C91.1546 72.7437 91.2351 72.5579 91.318 72.3664C91.5011 71.5909 91.3676 71.286 91.0487 70.5837C90.8419 70.2229 90.6232 69.8713 90.3953 69.5285C90.264 69.329 90.1327 69.1296 89.9974 68.9242C89.7858 68.6066 89.7858 68.6066 89.5699 68.2827C89.273 67.8319 88.9763 67.3808 88.6799 66.9295C88.5301 66.7018 88.3803 66.474 88.226 66.2393C87.6855 65.4106 87.1551 64.5738 86.6284 63.7329C86.3898 63.352 86.1498 62.9723 85.9085 62.5938C85.3898 61.7774 84.8905 60.9657 84.4443 60.0919C84.0305 59.3229 83.6995 58.7205 83.0937 58.1523C82.3259 58.0461 81.6875 58.1332 80.9257 58.2793C79.9538 58.4377 79.2521 58.2314 78.4023 57.6742C77.9974 57.3146 77.6264 56.9431 77.2622 56.5283C76.6402 55.9043 75.9822 56.5084 75.3204 56.8421ZM28.4288 61.0211C28.3638 61.1498 28.2988 61.2785 28.2317 61.4111C27.3565 63.1045 27.3565 63.1045 26.6696 63.7404C26.5534 63.8508 26.4371 63.9611 26.3174 64.0748C26.0087 64.3439 25.6894 64.596 25.3692 64.8461C25.4941 67.1465 25.9526 69.3334 26.4019 71.5698C26.4797 71.962 26.5573 72.3542 26.6349 72.7465C26.8236 73.6994 27.0139 74.6518 27.205 75.6041C28.0184 75.7784 28.0184 75.7784 28.8368 75.8431C29.3115 75.3954 29.574 75.0751 29.9204 74.5133C30.0135 74.3737 30.1067 74.2341 30.2026 74.0902C30.3993 73.794 30.5936 73.4957 30.7857 73.1953C31.1737 72.5899 31.5746 71.9971 31.9756 71.4036C32.1679 71.118 32.3591 70.8313 32.549 70.5435C33.0379 69.8029 33.5423 69.0995 34.0891 68.4172C34.5906 67.7869 34.5906 67.7869 34.5735 67.1471C34.4372 66.7742 34.2976 66.4027 34.1512 66.0349C34.0803 65.8546 34.0093 65.6744 33.9361 65.4886C33.8636 65.3049 33.791 65.1213 33.7162 64.932C33.4403 64.1045 33.379 63.3387 33.3242 62.4555C32.353 61.9323 31.3441 61.715 30.3028 61.4693C30.1226 61.4259 29.9424 61.3824 29.7567 61.3376C29.3142 61.2311 28.8716 61.1256 28.4288 61.0211ZM45.7666 64.1289C45.3627 65.0756 44.9588 66.0223 44.5427 66.9977C43.7014 68.2174 42.4271 69.3615 41.0752 69.6274C40.5784 69.656 40.081 69.6693 39.5836 69.6723C39.3236 69.6757 39.0636 69.679 38.7956 69.6825C37.9818 69.625 37.3577 69.4447 36.5878 69.1493C35.9052 70.1182 35.2235 71.088 34.5433 72.0592C34.0188 72.8074 33.4908 73.5517 32.9593 74.293C32.7197 74.6304 32.4801 74.9678 32.2406 75.3053C32.1271 75.4616 32.0136 75.618 31.8966 75.7792C31.7922 75.9273 31.6877 76.0753 31.5801 76.2279C31.4882 76.356 31.3964 76.4841 31.3017 76.6161C31.0036 77.1306 31.0036 77.1306 30.8765 78.2338C31.0785 79.0227 31.2804 79.8116 31.4884 80.6245C35.4598 81.5712 39.4312 82.5179 43.5229 83.4932C44.7875 81.9154 44.7875 81.9154 44.7467 81.1026C44.8624 81.0363 44.9781 80.9701 45.0973 80.9018C45.7266 80.5267 46.3344 80.1106 46.9458 79.6971C47.6979 79.2517 48.0819 79.1682 48.9361 79.3096C49.8098 79.453 50.6357 79.5558 51.4778 79.1901C52.3536 78.2746 52.8009 76.93 53.2812 75.7018C53.5178 75.1254 53.7807 74.5849 54.0634 74.038C54.1955 73.781 54.1955 73.781 54.3303 73.5188C54.4994 73.1915 54.6694 72.865 54.8406 72.5392C55.2784 71.7001 55.2784 71.7001 55.2322 70.7602C54.9601 70.3659 54.6855 69.9917 54.3845 69.6274C53.1946 68.0415 52.5786 66.1344 52.0898 64.1289C50.0031 64.1289 47.9165 64.1289 45.7666 64.1289ZM65.3919 71.582C63.93 72.5542 62.604 72.8455 60.9371 72.7951C60.6902 72.7932 60.6902 72.7932 60.4383 72.7913C59.4735 72.7766 58.5488 72.6816 57.597 72.4962C57.01 73.6569 56.4261 74.8196 55.8453 75.9845C55.6569 76.3613 55.4676 76.7374 55.2772 77.1128C55.0155 77.6294 54.7571 78.1479 54.4992 78.6671C54.418 78.8255 54.3367 78.9839 54.253 79.1471C53.8314 79.9875 53.8314 79.9875 53.751 80.9354C54.009 81.5359 54.3811 82.0154 54.7414 82.537C55.4568 84.0276 55.5836 85.216 55.5701 86.9149C55.5682 87.2147 55.5664 87.5146 55.5645 87.8235C55.5621 88.0513 55.5597 88.279 55.5573 88.5136C56.5279 89.1061 57.5006 89.6934 58.4755 90.2763C58.8069 90.4753 59.1377 90.6757 59.4679 90.8774C59.9423 91.167 60.4187 91.4517 60.8957 91.7354C61.0432 91.8268 61.1907 91.9181 61.3426 92.0123C62.123 92.4993 62.123 92.4993 62.9683 92.4147C63.0805 92.3107 63.1927 92.2067 63.3083 92.0996C64.3824 91.3128 64.9716 91.1133 66.2277 91.2778C67.0719 91.278 67.0719 91.278 67.7654 90.7717C68.1556 90.1207 68.4824 89.4461 68.8156 88.7527C69.1047 88.2087 69.3992 87.6689 69.694 87.1291C70.0145 86.5404 70.3299 85.9482 70.645 85.3553C71.0321 84.631 71.429 83.9184 71.8433 83.215C71.9309 83.064 72.0185 82.9131 72.1087 82.7576C72.3444 82.3539 72.5837 81.9532 72.8233 81.5527C73.164 80.8889 73.164 80.8889 72.9668 80.2341C72.8022 79.8964 72.6336 79.5612 72.4568 79.2321C72.241 78.5859 72.2885 78.0364 72.3309 77.353C72.4306 75.807 72.4306 75.807 72.0361 74.3649C71.6001 73.9174 71.1418 73.5768 70.6513 73.2134C70.376 72.9712 70.1026 72.7259 69.8307 72.4785C69.251 71.9527 68.6712 71.4277 68.0842 70.9133C67.9599 70.8038 67.8357 70.6943 67.7078 70.5814C66.8624 69.9559 66.0908 71.0214 65.3919 71.582ZM30.5068 83.9415C30.2314 84.4221 30.2314 84.4221 30.2646 84.9276C29.8567 85.1667 29.4487 85.4058 29.0408 85.6448C29.1549 87.7047 29.3926 89.7102 29.7037 91.741C29.7704 92.1852 29.7704 92.1852 29.8385 92.6384C29.9557 93.4163 30.0738 94.1941 30.1924 94.9717C30.2891 95.6078 30.3848 96.2441 30.4804 96.8804C30.5951 97.6427 30.7103 98.4048 30.8255 99.167C30.8685 99.4511 30.9114 99.7353 30.9556 100.028C30.9958 100.291 31.0359 100.555 31.0773 100.826C31.1125 101.058 31.1476 101.289 31.1839 101.527C31.2707 102.057 31.3713 102.576 31.4884 103.097C32.1055 103.399 32.6523 103.577 33.3242 103.575C34.0253 103.131 34.5202 102.485 35.0596 101.806C35.2166 101.619 35.3736 101.432 35.5353 101.239C36.0361 100.639 36.5285 100.03 37.0212 99.421C37.354 99.0198 37.6873 98.6192 38.0212 98.2191C39.3086 96.6689 40.5798 95.1098 41.7846 93.4702C42.2369 92.8666 42.7162 92.3051 43.2042 91.741C43.3806 91.5364 43.557 91.3318 43.7388 91.1209C43.8695 90.9706 44.0002 90.8202 44.1348 90.6652C44.0743 90.5016 44.0138 90.3379 43.9515 90.1693C43.5558 88.9376 43.3581 87.6446 43.1149 86.362C40.8434 85.6697 38.562 85.0666 36.2624 84.5165C35.7262 84.388 35.1903 84.2572 34.6544 84.1264C34.3101 84.0435 33.9658 83.9607 33.6214 83.878C33.4629 83.8392 33.3044 83.8003 33.1411 83.7603C31.7159 83.3081 31.7159 83.3081 30.5068 83.9415Z" fill="url(#paint0_linear_161_1012)"/>
<path d="M57.1367 57.3389C59.0121 55.2814 61.5774 55.0355 63.835 56.4482C65.278 57.6459 66.2647 59.054 66.6787 61.0479C66.9669 63.1965 66.5652 65.0094 65.5361 66.8311C64.6741 68.1153 63.5321 68.9617 62.209 69.458C61.1605 69.5671 60.2847 69.4856 59.4785 69.207C58.6515 68.9213 57.8455 68.4109 56.9727 67.5996C55.9803 66.4948 55.2636 64.9195 55.1338 63.3125C55.0976 60.8203 55.7019 59.1254 57.1367 57.3389Z" fill="url(#paint1_linear_161_1012)" stroke="black" stroke-width="1.68443"/>
<path d="M39.9907 33.4111C40.9451 33.2737 41.991 33.4865 43.1196 34.084C44.2681 34.9072 45.189 36.1982 45.5444 37.7295C45.7293 39.8073 45.5525 41.2538 44.6235 42.9189L44.6147 42.9346L44.6069 42.9502C44.5152 43.1321 44.4232 43.3142 44.3296 43.5C43.2603 44.6619 42.2256 45.2089 40.8657 45.2646C40.0248 45.2125 39.3254 45.0598 38.7095 44.7646C38.0962 44.4707 37.5224 44.0152 36.9624 43.3008C36.3346 42.3267 35.8878 41.2909 35.7954 40.1533L35.7944 40.1436L35.7935 40.1328L35.7427 39.6523C35.6401 37.9126 36.1878 36.4126 37.1694 35.0283C38.0908 34.0426 39.0422 33.5478 39.9907 33.4111Z" fill="url(#paint2_linear_161_1012)" stroke="black" stroke-width="1.68443"/>
<path d="M62.8467 31.1895C64.1132 30.7387 65.4763 30.8065 66.5332 31.5234C66.9906 31.9091 67.3477 32.3003 67.7236 32.8242L67.7451 32.8535C67.8318 32.9639 67.9189 33.0744 68.0078 33.1875C68.7168 34.2561 68.7576 35.4809 68.6855 37.0938C68.5186 38.5937 67.8806 39.4771 66.791 40.4834C65.7221 41.3461 64.6994 41.4967 63.3145 41.3125C62.3244 40.9197 61.4302 40.2084 60.8389 39.2051C60.0998 37.5015 59.7583 36.3018 60.1865 34.6318C60.7734 32.9508 61.5392 31.9594 62.8467 31.1895Z" fill="url(#paint3_linear_161_1012)" stroke="black" stroke-width="1.68443"/>
<path d="M22.4043 54.127C22.7554 54.1184 23.1062 54.1566 23.5215 54.1963C24.4953 54.6341 25.2124 55.4695 25.7676 56.6992C25.9231 58.1108 25.8793 59.3246 25.293 60.2891C24.388 61.3642 23.7051 61.8597 22.6416 61.9395C21.715 61.9035 21.0141 61.5385 20.2939 60.6934C19.9329 60.0289 19.692 59.4968 19.5557 58.96C19.4204 58.427 19.3786 57.8531 19.4678 57.1094C19.8004 55.813 20.4691 55.1115 21.541 54.3203C21.7692 54.1949 22.0478 54.1356 22.4043 54.127Z" fill="url(#paint4_linear_161_1012)" stroke="black" stroke-width="1.68443"/>
<path d="M38.4019 58.9062C39.2716 58.5857 40.086 58.6018 40.8921 59.001C41.7236 59.5595 42.3438 60.4895 42.6899 61.6562C42.8187 63.0018 42.6415 63.9935 42.0229 65.0615C41.2477 65.931 40.4787 66.427 39.5796 66.5244C38.6455 66.4641 37.7983 65.8964 36.9653 64.9482C36.4086 63.9719 36.429 62.6399 36.5981 61.2031C36.9557 60.1194 37.509 59.4879 38.4019 58.9062Z" fill="url(#paint5_linear_161_1012)" stroke="black" stroke-width="1.68443"/>
<path d="M47.522 83.2334C48.4878 82.4109 49.65 82.2858 50.7651 82.8135C51.6317 83.4448 52.2305 84.0858 52.4839 85.0879C52.6658 86.4692 52.6149 87.492 52.064 88.5625C51.7035 89.0984 51.4102 89.4477 51.1021 89.6895C50.8128 89.9163 50.4759 90.0745 49.9897 90.1709C49.4004 90.209 48.9597 90.1744 48.5718 90.0537C48.1903 89.9349 47.8054 89.7174 47.3569 89.3145C46.6189 88.4436 46.3585 87.5971 46.2905 86.2412C46.3187 85.5514 46.4323 85.0299 46.6235 84.5781C46.8138 84.1285 47.0995 83.7073 47.522 83.2334Z" fill="url(#paint6_linear_161_1012)" stroke="black" stroke-width="1.68443"/>
<path d="M80.5015 50.0742C80.7764 50.0225 81.1023 50.0421 81.5854 50.1162C81.8627 50.2779 82.0406 50.4118 82.187 50.5605C82.3451 50.7213 82.4962 50.9295 82.6948 51.2705C82.9495 52.1428 83.0076 52.7643 82.7651 53.5283C82.4049 54.3341 82.1248 54.6985 81.6147 54.9482C81.2373 55.0073 80.9518 55.0193 80.6938 54.9834C80.4462 54.9489 80.1884 54.8651 79.8726 54.6992C79.5654 54.3588 79.3603 54.0505 79.2222 53.7236C79.0742 53.3734 78.9835 52.9622 78.9526 52.4121C78.9835 51.6679 79.1906 51.2339 79.6626 50.5664C79.9848 50.2409 80.2487 50.1219 80.5015 50.0742Z" fill="url(#paint7_linear_161_1012)" stroke="black" stroke-width="1.68443"/>
<path d="M30.8145 106.552C31.0343 106.495 31.3214 106.506 31.751 106.709C32.0186 106.965 32.1834 107.18 32.2979 107.405C32.4149 107.636 32.5008 107.92 32.5615 108.34C32.4521 109.105 32.1842 109.622 31.7002 110.091C31.3154 110.201 31.0006 110.222 30.5801 110.177C30.1163 109.836 29.8497 109.503 29.6699 108.916C29.6361 108.472 29.6248 108.197 29.6543 107.95C29.6804 107.732 29.743 107.511 29.8955 107.207C30.2716 106.796 30.5688 106.615 30.8145 106.552Z" fill="url(#paint8_linear_161_1012)" stroke="black" stroke-width="1.68443"/>
<path d="M76.0068 75.3477C76.2309 75.1985 76.5329 75.1125 77.042 75.2002C77.4538 75.4999 77.7581 75.8331 77.9785 76.2939C78.0323 77.073 78.0469 77.357 78.0176 77.5576C77.9969 77.699 77.9586 77.7915 77.7354 78.2041C77.4804 78.4776 77.2937 78.5691 77.123 78.6143C76.8948 78.6746 76.6302 78.6751 76.1289 78.667C75.903 78.6303 75.9093 78.6265 75.9043 78.624C75.893 78.6185 75.8616 78.6004 75.7812 78.543C75.7269 78.5041 75.6629 78.4554 75.5791 78.3916C75.2389 77.7423 75.1076 77.2513 75.1523 76.5312C75.4555 75.8792 75.7375 75.5271 76.0068 75.3477Z" fill="url(#paint9_linear_161_1012)" stroke="black" stroke-width="1.68443"/>
<path d="M10.6128 74.3564C10.8851 74.2279 11.1263 74.2361 11.6548 74.2773C11.8902 74.4137 12.0223 74.512 12.1284 74.6182C12.2412 74.7311 12.3545 74.883 12.52 75.1621C12.5925 75.7749 12.5932 76.3617 12.5229 76.9736C12.2167 77.4188 11.9875 77.6617 11.6226 77.8965C11.1084 77.9609 10.8943 77.9557 10.644 77.8027C10.3227 77.4928 10.1599 77.2726 10.0562 77.0479C9.94822 76.8139 9.87509 76.5153 9.82178 76.0059C9.86788 75.5373 9.94552 75.2982 10.0444 75.1104C10.1537 74.903 10.3093 74.7132 10.6128 74.3564Z" fill="url(#paint10_linear_161_1012)" stroke="black" stroke-width="1.68443"/>
<path d="M99.3916 51.3594C99.6274 51.2629 99.9494 51.237 100.504 51.3066C100.698 51.4533 100.826 51.5602 100.931 51.6758C101.035 51.7913 101.132 51.9333 101.237 52.1582C101.327 53.0971 101.309 53.656 100.983 54.3125C100.739 54.5652 100.574 54.6501 100.43 54.6914C100.235 54.7473 100.004 54.7545 99.541 54.751C99.2515 54.6974 99.0791 54.5724 98.7236 54.1406C98.5199 53.596 98.5214 52.9736 98.5996 52.1982C98.9141 51.649 99.1736 51.4486 99.3916 51.3594Z" fill="url(#paint11_linear_161_1012)" stroke="black" stroke-width="1.68443"/>
<path d="M64.4907 12.6846C64.645 12.6446 64.8703 12.6487 65.3677 12.7812C65.7676 13.1008 65.9712 13.2902 66.147 13.6514C66.1769 14.2171 66.1861 14.608 66.1323 14.9629C66.0836 15.2844 65.9794 15.5934 65.7476 15.9629C65.4752 16.1585 65.2607 16.2431 65.0601 16.2764C64.8651 16.3087 64.6379 16.3019 64.3247 16.25C63.9606 15.8957 63.7374 15.6118 63.5269 15.1523C63.4731 14.3754 63.4599 14.0882 63.4878 13.8848C63.5075 13.7409 63.5436 13.6463 63.7505 13.2451C64.1328 12.835 64.3409 12.7235 64.4907 12.6846Z" fill="url(#paint12_linear_161_1012)" stroke="black" stroke-width="1.68443"/>
<path d="M38.8066 12.709C39.1577 12.8284 39.3572 13.0461 39.7559 13.6641L39.7861 13.7119L39.8232 13.7539C39.8292 13.7609 39.8348 13.7684 39.8408 13.7754C39.8622 14.2151 39.8567 14.5379 39.8047 14.8242C39.7499 15.1253 39.637 15.4153 39.4053 15.7676C39.1832 15.9697 39.0353 16.0688 38.9004 16.1309C38.7659 16.1927 38.6026 16.2366 38.3252 16.2822C38.0489 16.2336 37.9129 16.1787 37.8096 16.1133C37.6818 16.0323 37.5393 15.8983 37.2832 15.5938C36.9824 15.0708 36.9164 14.6339 37.001 13.915C37.271 13.3266 37.5179 13.0453 37.7461 12.8994C37.964 12.7602 38.27 12.6774 38.8066 12.709Z" fill="url(#paint13_linear_161_1012)" stroke="black" stroke-width="1.68443"/>
<path d="M16.7646 27.9688C16.9734 27.911 17.2665 27.927 17.8545 28.085C18.0859 28.2582 18.1414 28.3037 18.1855 28.3555C18.2349 28.4133 18.28 28.4899 18.4395 28.7832C18.5861 29.7212 18.543 30.347 18.1943 31.0645C17.9053 31.2635 17.6656 31.386 17.4385 31.4541C17.2207 31.5193 16.9835 31.543 16.6875 31.5166C16.302 31.2473 16.017 30.9182 15.7939 30.4414C15.7307 29.6942 15.7105 29.4085 15.7275 29.2207C15.7376 29.1106 15.7508 29.0618 15.9053 28.7441C16.3135 28.1752 16.576 28.0211 16.7646 27.9688Z" fill="url(#paint14_linear_161_1012)" stroke="black" stroke-width="1.68443"/>
<path d="M26.6509 79.1182C26.8608 79.0662 27.1432 79.075 27.6196 79.2275C27.8598 79.4106 27.918 79.46 27.9663 79.5166C28.0193 79.5788 28.0691 79.6596 28.231 79.9482C28.3776 80.8818 28.3331 81.5083 27.9849 82.2246C27.696 82.4236 27.457 82.5462 27.23 82.6143C27.0122 82.6795 26.7749 82.7031 26.479 82.6768C26.0953 82.4088 25.81 82.0823 25.5874 81.6094C25.5339 80.8347 25.5204 80.5479 25.5483 80.3447C25.5681 80.2014 25.6043 80.1071 25.8101 79.708C26.1796 79.3152 26.4387 79.1708 26.6509 79.1182Z" fill="url(#paint15_linear_161_1012)" stroke="black" stroke-width="1.68443"/>
<path d="M85.7427 28.0078C86.1548 28.151 86.3895 28.3848 86.8413 28.9355C87.0248 29.4466 86.9672 30.0201 86.7964 30.7861C86.5788 31.0913 86.446 31.2504 86.3159 31.3574C86.2012 31.4518 86.0556 31.5311 85.7651 31.6094C85.4288 31.6311 85.2395 31.6159 85.0854 31.5732C84.9499 31.5356 84.7947 31.4626 84.562 31.2998C84.1801 30.5759 84.0431 30.0135 84.1245 29.1895C84.3498 28.6443 84.5827 28.3596 84.8022 28.208C85.0064 28.0671 85.2874 27.9797 85.7427 28.0078Z" fill="url(#paint16_linear_161_1012)" stroke="black" stroke-width="1.68443"/>
<path d="M65.564 94.7051C65.8156 94.5763 66.152 94.5182 66.6499 94.5771C67.1435 94.9477 67.4187 95.2629 67.564 95.7939C67.5623 96.3499 67.5474 96.6492 67.4849 96.9053C67.43 97.1299 67.3259 97.3605 67.0728 97.7295C66.8563 97.8946 66.6691 97.9821 66.4839 98.0283C66.2818 98.0787 66.0456 98.0914 65.7241 98.0713C65.5006 98.0056 65.392 97.9344 65.3081 97.8535C65.1999 97.7492 65.0884 97.5899 64.9097 97.2754C64.7589 96.7081 64.7015 96.2287 64.7456 95.6729C65.022 95.106 65.3036 94.8384 65.564 94.7051Z" fill="url(#paint17_linear_161_1012)" stroke="black" stroke-width="1.68443"/>
<path d="M5.19678 51.8975C5.45185 51.7631 5.78853 51.7039 6.27295 51.7773C6.67414 52.0696 6.97429 52.3978 7.19287 52.8477C7.20521 53.3313 7.18504 53.6894 7.11377 54.0049C7.0444 54.3118 6.91814 54.6074 6.69092 54.9531C6.29549 55.2429 5.92937 55.3138 5.34912 55.2773C5.12505 55.2116 5.01613 55.1406 4.93213 55.0596C4.82398 54.9553 4.71243 54.7959 4.53369 54.4814C4.3828 53.9138 4.32538 53.4342 4.36963 52.8779C4.64221 52.3199 4.92857 52.0388 5.19678 51.8975Z" fill="url(#paint18_linear_161_1012)" stroke="black" stroke-width="1.68443"/>
<path d="M95.0991 73.04C95.4103 73.047 95.6038 73.0858 95.7632 73.1504C95.9092 73.2097 96.0707 73.3113 96.2896 73.5029C96.6259 74.1426 96.6581 74.6731 96.5532 75.5811C96.2929 76.0592 96.142 76.2727 95.8569 76.4658C95.4546 76.5205 95.0826 76.5319 94.7065 76.4854C94.3463 76.1335 94.1262 75.8486 93.9165 75.3887C93.8721 74.8569 93.853 74.6194 93.853 74.4404C93.853 74.3107 93.8635 74.216 93.8931 74.0127C94.0671 73.7677 94.1494 73.656 94.23 73.5615C94.2757 73.5079 94.3225 73.4593 94.3911 73.3916L94.687 73.1084L94.7202 73.0771L94.7241 73.0713C94.8114 73.0617 94.9272 73.0535 95.0991 73.04Z" fill="url(#paint19_linear_161_1012)" stroke="black" stroke-width="1.68443"/>
<defs>
<linearGradient id="paint0_linear_161_1012" x1="52.8194" y1="8.98926" x2="52.8194" y2="113.944" gradientUnits="userSpaceOnUse">
<stop stop-color="#7929F6"/>
<stop offset="1" stop-color="#9C3CE7"/>
</linearGradient>
<linearGradient id="paint1_linear_161_1012" x1="60.9516" y1="54.7148" x2="60.9516" y2="70.3482" gradientUnits="userSpaceOnUse">
<stop stop-color="#7929F6"/>
<stop offset="1" stop-color="#9D3DE8"/>
</linearGradient>
<linearGradient id="paint2_linear_161_1012" x1="40.6706" y1="32.5283" x2="40.6706" y2="46.1089" gradientUnits="userSpaceOnUse">
<stop stop-color="#7B2AF5"/>
<stop offset="1" stop-color="#9D3DE8"/>
</linearGradient>
<linearGradient id="paint3_linear_161_1012" x1="64.3551" y1="30.0625" x2="64.3551" y2="42.225" gradientUnits="userSpaceOnUse">
<stop stop-color="#7929F5"/>
<stop offset="1" stop-color="#9B3BE8"/>
</linearGradient>
<linearGradient id="paint4_linear_161_1012" x1="22.6337" y1="53.2832" x2="22.6337" y2="62.7844" gradientUnits="userSpaceOnUse">
<stop stop-color="#7B2AF6"/>
<stop offset="1" stop-color="#9E3CE6"/>
</linearGradient>
<linearGradient id="paint5_linear_161_1012" x1="39.6116" y1="57.8398" x2="39.6116" y2="67.3712" gradientUnits="userSpaceOnUse">
<stop stop-color="#7828F6"/>
<stop offset="1" stop-color="#9D3CE7"/>
</linearGradient>
<linearGradient id="paint6_linear_161_1012" x1="49.4347" y1="81.6533" x2="49.4347" y2="91.03" gradientUnits="userSpaceOnUse">
<stop stop-color="#7929F6"/>
<stop offset="1" stop-color="#9C3CE7"/>
</linearGradient>
<linearGradient id="paint7_linear_161_1012" x1="80.9364" y1="49.2031" x2="80.9364" y2="55.8466" gradientUnits="userSpaceOnUse">
<stop stop-color="#7B2AF6"/>
<stop offset="1" stop-color="#9E3CE6"/>
</linearGradient>
<linearGradient id="paint8_linear_161_1012" x1="31.1042" y1="105.68" x2="31.1042" y2="111.042" gradientUnits="userSpaceOnUse">
<stop stop-color="#792AF7"/>
<stop offset="1" stop-color="#9C3CE8"/>
</linearGradient>
<linearGradient id="paint9_linear_161_1012" x1="76.5879" y1="74.3223" x2="76.5879" y2="79.5141" gradientUnits="userSpaceOnUse">
<stop stop-color="#7929F7"/>
<stop offset="1" stop-color="#9B3BE8"/>
</linearGradient>
<linearGradient id="paint10_linear_161_1012" x1="11.1968" y1="73.4072" x2="11.1968" y2="78.7809" gradientUnits="userSpaceOnUse">
<stop stop-color="#7929F7"/>
<stop offset="1" stop-color="#9B3BE8"/>
</linearGradient>
<linearGradient id="paint11_linear_161_1012" x1="99.9177" y1="50.4248" x2="99.9177" y2="55.5949" gradientUnits="userSpaceOnUse">
<stop stop-color="#7929F5"/>
<stop offset="1" stop-color="#9A3BE8"/>
</linearGradient>
<linearGradient id="paint12_linear_161_1012" x1="64.8226" y1="11.8193" x2="64.8226" y2="17.1388" gradientUnits="userSpaceOnUse">
<stop stop-color="#7728F7"/>
<stop offset="1" stop-color="#9B3BE8"/>
</linearGradient>
<linearGradient id="paint13_linear_161_1012" x1="38.4101" y1="11.8594" x2="38.4101" y2="17.1373" gradientUnits="userSpaceOnUse">
<stop stop-color="#7829F6"/>
<stop offset="1" stop-color="#9C3BE7"/>
</linearGradient>
<linearGradient id="paint14_linear_161_1012" x1="17.1215" y1="27.0957" x2="17.1215" y2="32.372" gradientUnits="userSpaceOnUse">
<stop stop-color="#802DF4"/>
<stop offset="1" stop-color="#9E3DE7"/>
</linearGradient>
<linearGradient id="paint15_linear_161_1012" x1="26.9232" y1="78.2471" x2="26.9232" y2="83.5322" gradientUnits="userSpaceOnUse">
<stop stop-color="#7929F6"/>
<stop offset="1" stop-color="#9D3CE7"/>
</linearGradient>
<linearGradient id="paint16_linear_161_1012" x1="85.5286" y1="27.1602" x2="85.5286" y2="32.4629" gradientUnits="userSpaceOnUse">
<stop stop-color="#7C2BF5"/>
<stop offset="1" stop-color="#9C3CE8"/>
</linearGradient>
<linearGradient id="paint17_linear_161_1012" x1="66.1478" y1="93.7119" x2="66.1478" y2="98.924" gradientUnits="userSpaceOnUse">
<stop stop-color="#7B2AF6"/>
<stop offset="1" stop-color="#9E3CE6"/>
</linearGradient>
<linearGradient id="paint18_linear_161_1012" x1="5.77642" y1="50.9023" x2="5.77642" y2="56.1298" gradientUnits="userSpaceOnUse">
<stop stop-color="#7B2AF6"/>
<stop offset="1" stop-color="#9E3CE6"/>
</linearGradient>
<linearGradient id="paint19_linear_161_1012" x1="95.2311" y1="72.1973" x2="95.2311" y2="77.3587" gradientUnits="userSpaceOnUse">
<stop stop-color="#7B2AF6"/>
<stop offset="1" stop-color="#9E3CE6"/>
</linearGradient>
</defs>
</svg>
