<svg width="114" height="137" viewBox="0 0 114 137" fill="none" xmlns="http://www.w3.org/2000/svg">
<path d="M86.1975 22.7089C88.0178 24.6054 89.4595 27.5945 89.6642 30.5318C89.6789 31.1804 89.6881 31.8287 89.6942 32.4776C89.7039 32.8139 89.7039 32.8139 89.7137 33.157C89.7261 34.6279 89.5923 35.5241 88.7389 36.6585C87.7396 37.3448 86.6834 37.3022 85.5589 37.3692C84.9392 37.3934 84.9392 37.3934 84.53 37.9964C84.4008 38.7877 84.4008 38.7877 84.53 39.6018C85.1506 40.3273 85.7303 40.462 86.5653 40.5049C88.3574 40.4219 89.9387 39.8648 91.1756 38.264C91.5167 37.5713 91.8025 36.8656 92.0617 36.1233C94.6392 35.8403 96.8515 37.3986 98.7757 39.306C101 41.7486 102.116 44.9736 102.283 48.5668C102.3 49.6263 102.251 50.6111 102.03 51.6429C101.824 51.5987 101.619 51.5546 101.407 51.5091C99.2814 51.1585 97.4381 51.4507 95.3845 52.178C95.215 53.0756 95.215 53.0756 95.163 54.0511C95.4012 54.5494 95.4012 54.5494 95.8275 54.8538C96.3704 54.8923 96.3704 54.8923 96.9628 54.7702C97.1804 54.7398 97.398 54.7095 97.6222 54.6782C97.8341 54.6478 98.046 54.6175 98.2643 54.5862C100.865 54.292 103.099 55.6488 105.131 57.5296C107.001 59.561 108.477 62.5591 108.724 65.6245C108.832 68.324 108.859 70.8765 107.79 73.3167C107.691 73.5492 107.591 73.7816 107.489 74.0212C106.513 76.1385 105.288 77.6781 103.581 78.9358C102.958 78.5876 102.471 78.1971 101.947 77.6648C100.639 76.457 98.851 75.3231 97.1999 75.1092C96.661 75.1334 96.661 75.1334 96.2844 75.7751C95.9934 76.5025 95.9934 76.5025 96.1633 77.1945C96.6269 78.1405 97.1284 78.2773 97.9735 78.6515C100.014 79.6272 101.115 80.6229 102.03 83.0666C103.142 86.509 102.934 90.2255 101.768 93.6108C100.497 96.7061 98.3518 99.1093 95.6778 100.349C94.7366 100.715 93.941 100.915 92.9478 100.877C92.9101 100.599 92.8724 100.321 92.8336 100.035C92.4157 96.8623 92.4157 96.8623 91.3972 93.9202C90.786 93.3057 90.786 93.3057 90.165 93.4519C89.5918 93.6093 89.5918 93.6093 89.182 94.1878C89.2349 95.3815 89.4059 96.3506 89.7496 97.4656C90.6999 101.113 90.1926 105.306 88.8912 108.704C87.5384 111.76 85.3666 113.781 82.6489 114.874C79.1609 116.035 75.4606 115.426 72.292 113.375C70.2173 111.822 68.9376 109.331 68.2315 106.524C68.1259 105.891 68.1093 105.31 68.1085 104.664C68.1076 104.402 68.1068 104.14 68.1059 103.87C68.1061 103.583 68.1063 103.296 68.1065 103C68.1058 102.694 68.1052 102.388 68.1045 102.073C68.1029 101.225 68.1023 100.376 68.1021 99.5273C68.1017 98.612 68.1001 97.6967 68.0986 96.7813C68.0956 94.7794 68.0942 92.7774 68.0933 90.7755C68.0926 89.5247 68.0917 88.274 68.0907 87.0233C68.088 83.5586 68.0857 80.0939 68.085 76.6292C68.0849 76.2966 68.0849 76.2966 68.0848 75.9572C68.0848 75.735 68.0847 75.5127 68.0847 75.2837C68.0846 74.8333 68.0845 74.3829 68.0844 73.9325C68.0843 73.709 68.0843 73.4856 68.0842 73.2554C68.0834 69.6387 68.0795 66.0221 68.0743 62.4054C68.0691 58.6898 68.0663 54.9743 68.0661 51.2588C68.0659 49.1736 68.0646 47.0885 68.0606 45.0033C68.0571 43.2269 68.056 41.4506 68.0578 39.6742C68.0587 38.7687 68.0582 37.8634 68.0554 36.9579C68.0526 35.9736 68.0539 34.9895 68.0562 34.0052C68.0544 33.7227 68.0526 33.4402 68.0508 33.1492C68.0715 29.3426 69.0086 26.0185 71.1696 23.196C75.6059 18.24 81.5001 18.5169 86.1975 22.7089Z" fill="url(#paint0_linear_161_997)"/>
<path d="M53.9603 30.2363C54.7709 31.074 55.5813 31.9117 56.3832 32.7616C56.5311 32.9158 56.679 33.07 56.8314 33.2288C57.1407 33.5616 57.4417 33.906 57.7348 34.2594C57.8827 34.4329 58.0306 34.6064 58.183 34.7852C58.3135 34.9452 58.444 35.1052 58.5785 35.2701C59.406 35.8216 60.1717 35.4693 61.0449 35.1697C61.6564 34.9406 62.2624 34.6934 62.8687 34.4449C63.7335 34.1024 64.3275 33.9824 65.2578 33.9824C65.2578 37.6028 65.2578 41.2231 65.2578 44.9531C63.8323 45.6154 63.8323 45.6154 62.3781 46.291C60.6418 47.3282 59.183 48.4985 57.7262 50.0371C57.5218 50.2503 57.5218 50.2503 57.3134 50.4677C53.9107 54.2851 52.0172 60.0142 51.7001 65.5378C51.6152 71.9815 53.479 77.8828 57.1577 82.5813C59.1036 84.7565 61.2594 86.2765 63.7072 87.498C64.2189 87.763 64.7306 88.0279 65.2578 88.3008C65.2578 91.9211 65.2578 95.5414 65.2578 99.2715C64.8192 99.1832 64.3806 99.0949 63.9287 99.0039C63.2854 98.9055 62.8212 98.9274 62.1566 99.0039C61.7596 99.4354 61.4099 99.8693 61.049 100.342C60.7555 100.699 60.4609 101.054 60.1655 101.409C60.0091 101.598 59.8528 101.787 59.6917 101.981C58.5982 103.302 58.5982 103.302 57.5046 104.623C56.0365 104.102 54.7382 103.388 53.4065 102.482C53.2272 102.365 53.0479 102.248 52.8631 102.127C52.6929 102.013 52.5227 101.898 52.3474 101.78C52.1176 101.626 52.1176 101.626 51.8832 101.469C51.5236 101.145 51.5236 101.145 51.3021 100.342C51.399 99.7154 51.399 99.7154 51.5712 98.983C51.6319 98.7164 51.6926 98.4497 51.7551 98.175C51.8859 97.6169 52.0169 97.0587 52.1479 96.5006C52.6741 94.4274 52.6741 94.4274 52.6312 92.3145C52.0922 91.4574 51.4598 90.7483 50.8037 90.0233C49.7231 88.7993 48.7634 87.6816 47.9793 86.1602C46.6343 85.3478 44.5819 86.0073 43.1318 86.2373C42.2296 86.3777 41.3599 86.4555 40.4476 86.4277C39.346 84.2021 38.2817 81.7403 37.7894 79.2031C38.3476 78.6955 38.9061 78.1883 39.4646 77.6813C39.6987 77.4684 39.6987 77.4684 39.9375 77.2512C40.6882 76.5701 41.4414 75.8989 42.212 75.2511C42.8887 74.7455 42.8887 74.7455 43.1059 74.1191C43.0913 73.6723 43.0607 73.2261 43.0228 72.7812C42.9113 71.3326 42.8271 69.8855 42.7597 68.4331C42.7452 68.1346 42.7452 68.1346 42.7304 67.83C42.7171 67.5387 42.7171 67.5387 42.7035 67.2415C42.6902 66.9552 42.6902 66.9552 42.6766 66.663C42.6628 66.0918 42.6628 66.0918 42.688 65.5164C42.7261 64.6368 42.7044 64.0459 42.36 63.2613C41.4932 62.2983 40.5285 61.5634 39.5339 60.8071C39.3303 60.6495 39.1267 60.4919 38.9169 60.3295C37.9306 59.5553 37.9306 59.5553 36.9033 58.8672C37.0193 57.0958 37.3125 55.5713 37.8032 53.9003C37.8656 53.6814 37.928 53.4626 37.9923 53.2371C38.1444 52.7048 38.2989 52.1736 38.454 51.6426C38.6506 51.6577 38.8473 51.6728 39.0499 51.6884C39.7814 51.7413 40.5127 51.7879 41.2446 51.8304C41.561 51.85 41.8773 51.8721 42.1934 51.8968C42.6486 51.9318 43.1036 51.9579 43.5593 51.9823C43.8331 52.0005 44.1068 52.0187 44.3889 52.0375C45.1346 51.9913 45.1346 51.9913 45.6106 51.2896C45.7962 50.9345 45.7962 50.9345 45.9856 50.5723C46.2096 50.1532 46.2096 50.1532 46.4382 49.7256C46.5967 49.417 46.755 49.1083 46.9132 48.7996C47.9599 46.796 49.0884 44.7989 50.5856 43.2484C51.1325 42.5913 51.1325 42.5913 51.1991 41.7296C51.0311 40.2308 50.6675 38.8339 50.2914 37.394C50.1417 36.8191 49.9936 36.2436 49.8475 35.6673C49.7483 35.288 49.7483 35.288 49.6471 34.9009C49.5299 34.25 49.5299 34.25 49.7515 33.4473C50.163 33.0614 50.163 33.0614 50.6938 32.6665C50.9775 32.4531 50.9775 32.4531 51.267 32.2353C51.4659 32.0889 51.6648 31.9425 51.8697 31.7916C52.0695 31.6421 52.2692 31.4926 52.475 31.3385C52.9691 30.9691 53.4642 30.6018 53.9603 30.2363Z" fill="url(#paint1_linear_161_997)"/>
<path d="M65.2575 48.4316C65.2575 60.3522 65.2575 72.2729 65.2575 84.5547C61.8196 83.7241 59.023 80.7445 57.0465 77.3583C54.577 72.5675 53.8539 67.3143 54.8383 61.8179C55.8019 56.9988 58.3776 52.7832 61.8654 50.1876C64.3025 48.4316 64.3025 48.4316 65.2575 48.4316Z" fill="url(#paint2_linear_161_997)"/>
<path d="M16.3018 67.4298C19.3595 67.4236 22.4172 67.4188 25.4749 67.4159C26.8946 67.4145 28.3143 67.4126 29.7339 67.4096C31.1027 67.4067 32.4715 67.4051 33.8403 67.4044C34.3638 67.4039 34.8873 67.4029 35.4108 67.4015C36.1413 67.3996 36.8717 67.3993 37.6022 67.3994C37.821 67.3984 38.0397 67.3975 38.2651 67.3965C38.463 67.3969 38.6609 67.3972 38.8648 67.3976C39.0377 67.3974 39.2107 67.3971 39.3889 67.3969C39.7828 67.4298 39.7828 67.4298 40.0044 67.6974C40.114 69.5517 40.114 69.5517 40.2259 71.4434C32.3309 71.4434 24.436 71.4434 16.3018 71.4434C16.3018 70.1189 16.3018 68.7944 16.3018 67.4298Z" fill="url(#paint3_linear_161_997)"/>
<path d="M34.688 29.9688C35.7845 29.9688 36.8811 29.9688 38.0108 29.9688C38.0108 32.4412 38.0108 34.9136 38.0108 37.4609C38.3763 37.6375 38.7418 37.8141 39.1184 37.9961C39.6256 38.3816 40.1203 38.7739 40.6137 39.1835C40.9057 39.4224 41.1979 39.6611 41.4902 39.8995C41.6435 40.0245 41.7967 40.1496 41.9546 40.2785C42.8073 40.9678 43.6695 41.6391 44.5318 42.3108C44.6983 42.4406 44.8649 42.5705 45.0365 42.7043C45.4265 43.0082 45.8168 43.3117 46.207 43.6152C46.0353 44.5484 45.7591 45.1667 45.3071 45.9565C45.1857 46.1704 45.0644 46.3843 44.9394 46.6046C44.846 46.766 44.7526 46.9274 44.6564 47.0938C43.9826 46.9278 43.4906 46.6638 42.9111 46.2199C42.6626 46.0305 42.6626 46.0305 42.4092 45.8373C42.2324 45.7001 42.0557 45.5628 41.8736 45.4214C41.6902 45.2802 41.5069 45.1389 41.318 44.9934C39.9438 43.928 38.5854 42.8353 37.2355 41.7255C37.0569 41.579 36.8782 41.4325 36.6942 41.2815C36.5279 41.1434 36.3615 41.0054 36.1902 40.8632C36.0441 40.7421 35.8981 40.621 35.7476 40.4962C35.6172 40.3776 35.4869 40.2589 35.3526 40.1367C35.1642 39.9814 35.1642 39.9814 34.972 39.8229C34.5088 39.0255 34.6071 38.1448 34.6231 37.2069C34.6241 37.0002 34.625 36.7935 34.626 36.5805C34.6297 35.9206 34.638 35.261 34.6465 34.6012C34.6498 34.1537 34.6528 33.7061 34.6556 33.2586C34.6629 32.1619 34.6744 31.0654 34.688 29.9688Z" fill="url(#paint4_linear_161_997)"/>
<path d="M46.65 89.9062C47.4932 90.7645 48.3215 91.6207 49.0867 92.582C48.832 93.5053 48.7096 93.578 48.0475 94.0621C47.7907 94.2531 47.7907 94.2531 47.5287 94.448C47.3438 94.5828 47.1589 94.7176 46.9684 94.8564C45.3419 96.0651 43.7544 97.3185 42.1979 98.6553C41.1575 99.5391 41.1575 99.5391 40.669 99.5391C40.669 102.011 40.669 104.484 40.669 107.031C39.5725 107.031 38.4759 107.031 37.3462 107.031C37.3207 105.722 37.2987 104.413 37.2853 103.103C37.2798 102.658 37.2722 102.213 37.2626 101.768C37.2491 101.127 37.2429 100.487 37.238 99.8453C37.2295 99.5484 37.2295 99.5484 37.2207 99.2455C37.2202 98.192 37.305 97.7274 37.8603 96.8986C38.7322 96.0605 38.7322 96.0605 39.1971 95.725C39.3331 95.625 39.4691 95.525 39.6093 95.4219C39.8254 95.2662 39.8254 95.2662 40.046 95.1073C41.4422 94.0786 42.8133 93.0131 44.1718 91.9131C44.3424 91.7749 44.5131 91.6368 44.6889 91.4944C44.9928 91.248 45.2966 91.0014 45.6002 90.7545C45.9495 90.4706 46.2997 90.1883 46.65 89.9062Z" fill="url(#paint5_linear_161_997)"/>
<path d="M38.7372 17.6061C39.6288 18.3582 40.1648 19.3495 40.4479 20.6038C40.6311 22.3506 40.4007 23.7019 39.5619 25.1526C38.5612 26.3303 37.6484 26.7827 36.2668 26.8584C34.9785 26.8214 34.1789 26.4064 33.2477 25.2874C32.2642 23.9303 32.1742 22.8224 32.1894 21.0835C32.3078 19.663 32.8211 18.8261 33.6778 17.8444C35.329 16.5309 37.0049 16.4246 38.7372 17.6061Z" fill="url(#paint6_linear_161_997)"/>
<path d="M40.9596 110.66C41.9652 111.351 42.681 112.38 43.0199 113.723C43.2811 115.345 43.0844 116.554 42.4411 118.001C41.6167 119.185 40.7804 120.015 39.4817 120.228C38.124 120.302 37.3285 120.053 36.2385 119.072C35.2573 117.893 34.877 116.912 34.854 115.242C34.872 113.744 35.0371 112.765 35.94 111.671C37.3946 110.096 39.1181 109.67 40.9596 110.66Z" fill="url(#paint7_linear_161_997)"/>
<path d="M17.8915 38.4644C18.9181 39.3141 19.43 40.2586 19.7355 41.6921C19.969 43.4587 19.5549 44.7733 18.7802 46.2576C17.8182 47.3864 16.9862 47.6884 15.6651 47.7627C14.3542 47.7195 13.5063 47.3556 12.5361 46.2911C11.5737 45.0093 11.3788 43.697 11.4285 42.0098C11.6439 40.4595 12.235 39.5282 13.2552 38.5815C14.7681 37.3441 16.3362 37.4014 17.8915 38.4644Z" fill="url(#paint8_linear_161_997)"/>
<path d="M19.0543 90.9426C20.0664 91.6448 20.8404 92.5391 21.1752 93.9204C21.3969 95.7724 21.3319 97.3028 20.399 98.8382C19.4286 100.108 18.5025 100.534 17.1324 100.694C15.7088 100.55 14.7207 99.8831 13.7681 98.6031C13.0142 97.5112 12.8978 96.4478 12.9175 95.0315C13.0697 93.6046 13.6528 92.4626 14.5434 91.529C15.8331 90.4352 17.5693 90.2985 19.0543 90.9426Z" fill="url(#paint9_linear_161_997)"/>
<path d="M11.6361 64.9042C12.6585 65.8872 13.3897 66.9261 13.6436 68.4998C13.7714 70.1052 13.4986 71.2024 12.7575 72.5135C11.8109 73.7541 10.8549 74.3231 9.47627 74.4869C8.28646 74.4435 7.28174 73.9084 6.42692 72.9065C5.40572 71.4603 5.35677 70.4534 5.3721 68.5908C5.51785 66.8606 6.14517 65.9606 7.23339 64.8875C8.54346 64.1119 10.333 64.1086 11.6361 64.9042Z" fill="url(#paint10_linear_161_997)"/>
<path d="M36.0172 82.6816C36.2153 83.1922 36.4081 83.7056 36.5987 84.2202C36.7606 84.6486 36.7606 84.6486 36.9258 85.0857C37.1248 85.8926 37.1248 85.8926 37.0184 86.4371C36.529 87.2015 35.9594 87.8412 35.3665 88.4847C35.2387 88.6253 35.111 88.7659 34.9793 88.9107C33.8094 90.1873 32.5996 91.397 31.3653 92.582C31.1993 92.7589 31.0333 92.9358 30.8623 93.118C30.2031 93.7007 29.6936 93.9161 28.9053 94.1572C28.651 94.237 28.3967 94.3169 28.1347 94.3992C27.8713 94.4783 27.6078 94.5575 27.3364 94.639C26.8117 94.8013 26.287 94.964 25.7624 95.1272C25.5305 95.1974 25.2986 95.2677 25.0596 95.3401C24.5053 95.4993 24.5053 95.4993 24.0552 95.793C23.9431 95.2805 23.8327 94.7676 23.7229 94.2544C23.6612 93.9688 23.5995 93.6832 23.536 93.3889C23.3906 92.582 23.3906 92.582 23.3906 91.5117C23.7915 91.3808 23.7915 91.3808 24.2006 91.2473C24.5582 91.1292 24.9159 91.0111 25.2735 90.8929C25.5365 90.8073 25.5365 90.8073 25.8048 90.72C26.3312 90.5454 26.8549 90.3623 27.378 90.1738C27.5344 90.1189 27.6908 90.064 27.8519 90.0074C29.04 89.5383 29.785 88.792 30.6592 87.7322C30.9269 87.4193 31.1952 87.1071 31.464 86.7957C31.5957 86.6425 31.7274 86.4894 31.8631 86.3316C32.6066 85.491 33.4022 84.7323 34.1992 83.9673C34.6845 83.5106 34.6845 83.5106 35.0455 83.0182C35.3527 82.6816 35.3527 82.6816 36.0172 82.6816Z" fill="url(#paint11_linear_161_997)"/>
<path d="M22.7259 42.8125C29.2954 44.4153 29.2954 44.4153 31.3652 47.3613C31.7827 47.7952 32.2074 48.219 32.6389 48.6323C32.937 48.9278 32.937 48.9278 33.2412 49.2291C33.5892 49.5646 33.9437 49.8907 34.3072 50.2012C34.7192 50.5675 35.0491 50.8777 35.3525 51.375C35.3765 52.2594 35.3383 52.7031 35.131 53.5156C35.0475 53.8483 35.0475 53.8483 34.9623 54.1877C34.8068 54.7715 34.6418 55.3484 34.4665 55.9238C33.5612 55.3234 32.8619 54.6058 32.1128 53.7498C31.041 52.5374 29.9392 51.4025 28.79 50.2974C28.2639 49.7695 28.2639 49.7695 27.8691 49.2335C27.2844 48.5976 26.8372 48.4277 26.0799 48.185C25.7094 48.0634 25.7094 48.0634 25.3314 47.9393C25.0747 47.859 24.8179 47.7786 24.5535 47.6958C24.2933 47.6113 24.0332 47.5268 23.7652 47.4397C23.1241 47.232 22.4823 47.0276 21.8398 46.8262C21.9027 46.3576 21.9677 45.8894 22.0337 45.4214C22.0697 45.1606 22.1056 44.8999 22.1427 44.6312C22.2715 43.9436 22.4398 43.4224 22.7259 42.8125Z" fill="url(#paint12_linear_161_997)"/>
<defs>
<linearGradient id="paint0_linear_161_997" x1="88.4125" y1="19.5215" x2="88.4125" y2="115.457" gradientUnits="userSpaceOnUse">
<stop stop-color="#6E23FB"/>
<stop offset="1" stop-color="#A641E3"/>
</linearGradient>
<linearGradient id="paint1_linear_161_997" x1="51.0806" y1="30.2363" x2="51.0806" y2="104.623" gradientUnits="userSpaceOnUse">
<stop stop-color="#7326F8"/>
<stop offset="1" stop-color="#A13EE5"/>
</linearGradient>
<linearGradient id="paint2_linear_161_997" x1="59.8355" y1="48.4316" x2="59.8355" y2="84.5547" gradientUnits="userSpaceOnUse">
<stop stop-color="#472E9D"/>
<stop offset="1" stop-color="#9E42E5"/>
</linearGradient>
<linearGradient id="paint3_linear_161_997" x1="16.3018" y1="69.42" x2="40.2259" y2="69.42" gradientUnits="userSpaceOnUse">
<stop stop-color="#7225F9"/>
<stop offset="1" stop-color="#A23FE4"/>
</linearGradient>
<linearGradient id="paint4_linear_161_997" x1="40.4053" y1="29.9688" x2="40.4053" y2="47.0938" gradientUnits="userSpaceOnUse">
<stop stop-color="#7225F9"/>
<stop offset="1" stop-color="#A641E3"/>
</linearGradient>
<linearGradient id="paint5_linear_161_997" x1="43.1537" y1="89.9062" x2="43.1537" y2="107.031" gradientUnits="userSpaceOnUse">
<stop stop-color="#7426F9"/>
<stop offset="1" stop-color="#A641E3"/>
</linearGradient>
<linearGradient id="paint6_linear_161_997" x1="36.3474" y1="16.7852" x2="36.3474" y2="26.8584" gradientUnits="userSpaceOnUse">
<stop stop-color="#7426F9"/>
<stop offset="1" stop-color="#A641E3"/>
</linearGradient>
<linearGradient id="paint7_linear_161_997" x1="38.993" y1="110.129" x2="38.993" y2="120.24" gradientUnits="userSpaceOnUse">
<stop stop-color="#7426F9"/>
<stop offset="1" stop-color="#A641E3"/>
</linearGradient>
<linearGradient id="paint8_linear_161_997" x1="15.6109" y1="37.6602" x2="15.6109" y2="47.7627" gradientUnits="userSpaceOnUse">
<stop stop-color="#7426F9"/>
<stop offset="1" stop-color="#A641E3"/>
</linearGradient>
<linearGradient id="paint9_linear_161_997" x1="17.0986" y1="90.5557" x2="17.0986" y2="100.694" gradientUnits="userSpaceOnUse">
<stop stop-color="#7527F8"/>
<stop offset="1" stop-color="#A23FE4"/>
</linearGradient>
<linearGradient id="paint10_linear_161_997" x1="9.52202" y1="64.3066" x2="9.52202" y2="74.4869" gradientUnits="userSpaceOnUse">
<stop stop-color="#7426F9"/>
<stop offset="1" stop-color="#A641E3"/>
</linearGradient>
<linearGradient id="paint11_linear_161_997" x1="30.24" y1="82.6816" x2="30.24" y2="95.793" gradientUnits="userSpaceOnUse">
<stop stop-color="#7627F7"/>
<stop offset="1" stop-color="#A641E3"/>
</linearGradient>
<linearGradient id="paint12_linear_161_997" x1="28.5994" y1="42.8125" x2="28.5994" y2="55.9238" gradientUnits="userSpaceOnUse">
<stop stop-color="#7225F9"/>
<stop offset="1" stop-color="#A33FE4"/>
</linearGradient>
</defs>
</svg>
