<svg width="114" height="102" viewBox="0 0 114 102" fill="none" xmlns="http://www.w3.org/2000/svg">
<path d="M51.1274 77.8076L50.4565 77.668C50.0385 77.5809 50.0383 77.58 49.6118 77.4912H49.6108C42.8784 76.0553 37.3657 73.426 32.2661 69.2861L31.7739 68.8809L31.7632 68.8721L31.3462 68.5352C25.2073 63.3499 21.669 55.3421 21.395 47.8369C21.1908 38.9486 24.4747 31.0157 31.2036 24.4912L31.8101 23.9229L31.811 23.9219C31.927 23.8128 32.0432 23.704 32.1626 23.5918C44.2341 12.4581 65.2929 11.9248 78.6099 21.5225L79.2378 21.9873C79.906 22.5089 80.5608 23.0447 81.2075 23.5918L81.855 24.1455L81.856 24.1465C82.0405 24.3053 82.0406 24.3056 82.229 24.4678V24.4668C88.3316 29.8211 91.6384 37.4901 92.0239 45.0996L92.0522 45.8359C92.112 53.1902 89.6122 60.57 84.3218 66.2031L83.8003 66.7432L83.7944 66.749C83.6294 66.9189 83.4644 67.0888 83.2944 67.2637C83.053 67.509 82.8089 67.7533 82.563 67.9961L81.8188 68.7236L81.8091 68.7334C81.6815 68.8612 81.5529 68.9884 81.4214 69.1201C76.5839 73.7441 69.8802 76.277 62.9673 77.666L62.2905 77.8027V82.4658L62.8413 82.6689C63.2117 82.8058 63.2246 82.81 63.5776 82.9404C64.973 83.576 65.8652 84.5853 66.4067 85.9062C66.575 86.4507 66.5865 86.9839 66.5747 87.6924V87.707L66.5757 88.1865L66.5649 89.6953L66.564 89.7021C66.563 90.0169 66.5624 90.3317 66.562 90.6465L66.5415 94.125V94.126L66.5044 101.157H46.9126L46.8628 94.1377V94.1348L46.8384 91.6631L46.8335 90.1953V90.1934L46.8247 89.207C46.8085 87.9747 46.8518 87.0042 47.1021 86.1289C47.3425 85.2882 47.7872 84.4938 48.6411 83.6514C49.1935 83.2191 49.7767 82.9712 50.5825 82.666L51.1274 82.4609V77.8076Z" fill="url(#paint0_linear_161_1058)" stroke="black" stroke-width="1.68443"/>
<path d="M79.7468 21.3163C80.6555 22.0253 81.5374 22.7584 82.4051 23.5077C82.5899 23.6667 82.5899 23.6667 82.7784 23.8289C89.2739 29.5248 92.6855 37.7499 92.8944 45.8139C92.9614 53.6088 90.2254 61.4583 84.3988 67.3358C84.2323 67.5071 84.0658 67.6784 83.8943 67.8549C83.4049 68.3522 82.9072 68.8412 82.4051 69.328C82.2774 69.4559 82.1498 69.5838 82.0183 69.7156C77.0149 74.5058 70.1251 77.0872 63.1329 78.4921C63.1329 79.6097 63.1329 80.7273 63.1329 81.8788C63.5167 82.0206 63.5167 82.0206 63.9082 82.1652C65.5379 82.9019 66.5857 84.097 67.2024 85.6245C67.4243 86.3221 67.4292 86.985 67.4172 87.7063C67.4173 87.8645 67.4174 88.0227 67.4174 88.1856C67.4169 88.6919 67.4119 89.1981 67.4066 89.7044C67.4057 90.0192 67.405 90.3341 67.4046 90.6489C67.4011 91.8095 67.3919 92.9701 67.3833 94.1308C67.3696 96.7276 67.3559 99.3244 67.3417 102C60.324 102 53.3063 102 46.0759 102C46.0485 98.1108 46.0485 98.1108 46.0205 94.1432C46.0124 93.3275 46.0044 92.5117 45.996 91.6713C45.992 90.6677 45.992 90.6677 45.9913 90.1965C45.9899 89.8705 45.9868 89.5445 45.9823 89.2186C45.9495 86.7313 46.1432 84.9141 48.0808 83.0204C48.7553 82.4819 49.456 82.1926 50.2847 81.8788C50.2847 80.7612 50.2847 79.6436 50.2847 78.4921C49.8667 78.405 49.8667 78.405 49.4402 78.3162C42.3569 76.8063 36.58 73.9922 31.2341 69.5272C31.0916 69.4122 30.9491 69.2971 30.8023 69.1786C24.4665 63.8271 20.8316 55.5852 20.5527 47.8568C20.3426 38.72 23.7299 30.5599 30.6275 23.8766C30.9277 23.5954 30.9277 23.5954 31.2341 23.3085C31.3519 23.1977 31.4698 23.0869 31.5912 22.9727C44.1746 11.3667 66.1699 11.0103 79.7468 21.3163ZM47.6957 18.0541C47.4146 18.1316 47.4146 18.1316 47.1279 18.2107C42.8934 19.4186 39.0278 21.2847 35.6644 23.9061C35.3967 24.1107 35.3967 24.1107 35.1236 24.3194C30.2315 28.1544 26.9675 33.0153 25.0869 38.5736C25.0428 38.7019 24.9988 38.8301 24.9534 38.9623C24.1609 41.4199 24.055 43.8916 24.0624 46.4303C24.0626 46.5932 24.0627 46.7561 24.0629 46.9239C24.0727 49.4174 24.1957 51.7913 25.0315 54.1874C25.0862 54.3446 25.1408 54.5019 25.1971 54.6638C26.6074 58.5863 28.7079 62.1933 31.6771 65.3436C31.8296 65.5054 31.9821 65.6672 32.1392 65.8339C37.3562 71.2032 44.8054 74.8903 52.7215 75.703C53.9082 75.7612 55.0916 75.7713 56.2796 75.7653C56.4401 75.7647 56.6005 75.7641 56.7658 75.7636C64.5714 75.7226 71.7509 73.505 77.7532 68.9296C77.9331 68.7924 78.113 68.6553 78.2983 68.514C84.1492 63.9161 88.591 57.0813 89.2326 50.0198C89.4564 46.5498 89.6813 42.8136 88.6076 39.4452C88.5309 39.2023 88.5309 39.2023 88.4525 38.9545C87.0803 34.7422 84.9321 30.838 81.7405 27.4921C81.5122 27.2502 81.5122 27.2502 81.2793 27.0034C79.1912 24.8514 76.9021 23.0342 74.2089 21.5155C74.0753 21.44 73.9417 21.3645 73.8041 21.2867C71.4709 19.9901 69.0487 19.1136 66.4557 18.328C66.2899 18.2754 66.1241 18.2227 65.9533 18.1684C62.8136 17.186 59.577 17.0752 56.2796 17.0705C56.1247 17.0698 55.9699 17.0691 55.8103 17.0683C53.0207 17.0614 50.3675 17.3138 47.6957 18.0541Z" fill="url(#paint1_linear_161_1058)"/>
<path d="M52.0811 17.7842C59.8915 16.7548 68.081 18.4656 74.6104 22.3994L75.2373 22.7871C78.4687 24.9581 81.2962 27.4225 83.5049 30.3984L83.9385 31.001L83.9395 31.002C84.0213 31.1186 84.1033 31.2354 84.1875 31.3555V31.3564C87.1779 35.6916 88.715 40.477 88.7783 45.5381L88.7803 46.0283V46.0293C88.7793 46.2454 88.7793 46.2462 88.7783 46.4658C88.7306 53.8264 85.8756 60.27 80.5391 65.8076L80.0156 66.3408L80.0127 66.3428C79.8594 66.4974 79.7058 66.6522 79.5479 66.8115C76.4806 69.7308 72.6211 71.8337 68.4502 73.292L67.6113 73.5752L67.6016 73.5791C67.2131 73.7133 67.21 73.7137 66.8193 73.8486C63.8227 74.8294 60.8249 75.1253 57.6504 75.1895L56.2783 75.2041H56.2773C56.1224 75.2048 55.9672 75.2043 55.8076 75.2051C47.9555 75.2242 40.8761 72.3632 35.0312 67.752L34.4697 67.2998L34.4658 67.2969L33.958 66.8896H33.959C30.4978 63.957 28.0784 60.2412 26.4736 56.2285L26.1631 55.4219L26.1621 55.4199L25.999 54.9941C25.9437 54.8541 25.8864 54.7146 25.8281 54.5752H25.8291C24.9642 52.4454 24.6693 50.2651 24.625 47.9873L24.6201 47.0049V47.0039L24.6162 45.5889C24.6123 42.9854 24.9758 40.4904 25.8564 38.0352L26.04 37.5439L26.041 37.541C26.1401 37.2806 26.1406 37.2785 26.2402 37.0166C27.4658 33.8951 29.2804 30.9531 31.6104 28.3877L32.084 27.8799L32.0859 27.8779C32.2381 27.7167 32.3901 27.5548 32.5469 27.3887L32.5459 27.3877C34.2922 25.5888 36.1966 23.9753 38.3818 22.6602L38.8232 22.4014L38.8281 22.3984C39.187 22.188 39.1891 22.1873 39.5518 21.9746C42.4875 20.2959 45.7903 18.9581 49.1865 18.2852L49.8672 18.1592H49.8691C50.2794 18.0879 50.2812 18.0868 50.6963 18.0146L50.6973 18.0156L51.4834 17.8867L51.4873 17.8857C51.7843 17.835 51.7914 17.8325 52.0801 17.7832L52.0811 17.7842ZM55.8496 19.4785C53.1107 19.4748 50.4304 19.7896 47.8057 20.5371L47.2812 20.6924L46.7891 20.8428L46.7822 20.8457C39.2169 23.2766 33.297 28.2877 29.6836 34.6621L29.3408 35.2832L29.3369 35.29C27.5572 38.7341 26.825 42.2634 26.8369 46.0264V46.0273L26.8271 47.373V47.377C26.8146 49.9117 27.2241 52.295 28.1182 54.6895L28.3037 55.168L28.5039 55.6729L28.5068 55.6787C31.3264 62.5342 36.8719 67.7156 44.0225 70.9053L44.7197 71.208L44.7256 71.2109C46.6539 71.9963 48.5825 72.4817 50.623 72.8682V72.8672L51.0879 72.9717L51.0957 72.9736C52.8336 73.3357 54.5441 73.3468 56.2529 73.3379L56.2539 73.3389V73.3379L56.7139 73.3369H56.7148C64.9979 73.2951 72.3513 70.539 78.2529 65.2588L77.8789 64.8398L78.2539 65.2588L78.2598 65.2529C84.0311 59.9211 86.5042 53.2027 86.5879 45.9619L86.5889 45.2598V45.2539L86.5693 44.5488C86.5154 43.0281 86.369 41.5533 85.9277 40.0273L85.8203 39.6738L85.6963 39.2656L85.6953 39.2627L85.4814 38.6084C83.2619 32.0968 78.4158 26.6931 72.0166 23.1816L71.3721 22.8369L71.3643 22.833L70.5439 22.4336C66.4216 20.4974 62.0168 19.4455 57.3242 19.4814L55.8525 19.4785H55.8496Z" fill="url(#paint2_linear_161_1058)" stroke="black" stroke-width="1.12295"/>
<path d="M56.7228 20.046C56.8944 20.0463 57.066 20.0465 57.2428 20.0468C65.1246 20.0768 72.2821 22.9868 77.8685 27.987C81.3805 31.2194 84.0664 35.4547 85.285 39.8434C85.3509 40.0584 85.4169 40.2733 85.4848 40.4948C87.2387 47.2038 85.685 54.5339 81.7406 60.3629C77.6535 66.2676 71.0822 70.535 63.5739 72.2166C58.83 73.1905 53.4011 73.151 48.7342 71.9176C48.4555 71.8501 48.1768 71.7826 47.8897 71.713C40.5378 69.7449 34.4895 64.919 30.7911 58.9684C28.5539 55.2098 27.3412 51.2374 27.3817 46.9742C27.3853 46.5306 27.3817 46.0873 27.3775 45.6437C27.3731 43.0587 27.7662 40.543 28.7005 38.0878C28.7559 37.9415 28.8112 37.7952 28.8682 37.6444C31.6081 30.7478 37.3465 25.4048 44.6223 22.2499C48.5047 20.6273 52.4622 20.035 56.7228 20.046ZM49.8418 23.7067C49.682 23.7517 49.5223 23.7966 49.3577 23.843C45.702 24.8974 42.5313 26.3885 39.6519 28.6872C39.4712 28.8189 39.2904 28.9506 39.1042 29.0864C34.5479 32.5086 31.5194 37.9817 30.7911 43.2301C30.6256 46.2735 30.5319 49.4428 31.4557 52.3942C31.5311 52.6389 31.6065 52.8837 31.6841 53.1358C33.3288 57.9677 36.514 62.0795 40.981 65.1442C41.1535 65.2649 41.326 65.3856 41.5037 65.5099C43.7128 66.9833 46.2068 68.0163 48.8034 68.8048C49.0373 68.8761 49.0373 68.8761 49.2759 68.9489C51.6445 69.6323 53.9378 69.7983 56.4182 69.7885C56.6384 69.7878 56.6384 69.7878 56.863 69.7872C63.7437 69.7549 69.9955 67.4485 75.0293 63.2174C77.9919 60.5168 80.2051 57.1774 81.5745 53.602C81.6291 53.4619 81.6837 53.3219 81.7399 53.1776C82.5674 50.9151 82.7079 48.6096 82.6959 46.2433C82.6951 46.0461 82.6951 46.0461 82.6943 45.8449C82.6584 40.3081 80.5035 35.5659 76.6457 31.277C76.4938 31.1073 76.3419 30.9375 76.1853 30.7626C73.2195 27.6261 69.1826 25.4649 64.9051 24.1051C64.7073 24.042 64.5094 23.9788 64.3055 23.9137C61.7711 23.1699 59.1632 23.036 56.5151 23.0468C56.3689 23.0473 56.2227 23.0478 56.0721 23.0483C53.9129 23.0596 51.9135 23.1198 49.8418 23.7067Z" fill="black"/>
<path d="M49.6201 6.57417C49.6952 6.91843 49.7687 7.26297 49.8416 7.60762C49.8827 7.79945 49.9238 7.99128 49.9662 8.18893C50.0564 8.72547 50.0702 9.22057 50.0631 9.76167C49.9329 9.78663 49.8027 9.81159 49.6685 9.8373C38.1848 12.0579 28.4683 17.3178 21.9961 26.2872C18.9072 30.6715 17.0153 35.3536 15.9491 40.4414C15.566 40.413 15.183 40.3838 14.8 40.3542C14.48 40.3299 14.48 40.3299 14.1536 40.3052C13.5593 40.2467 12.9896 40.1518 12.4048 40.0429C12.5049 38.4628 12.808 37.0062 13.2909 35.4858C13.359 35.2701 13.4271 35.0544 13.4973 34.8321C14.1945 32.702 15.1051 30.6882 16.1706 28.6875C16.25 28.5376 16.3293 28.3878 16.4111 28.2334C18.4042 24.5287 21.1852 21.2999 24.2699 18.2783C24.3847 18.1654 24.4995 18.0524 24.6177 17.9361C30.3155 12.4363 40.9199 6.27184 49.6201 6.57417Z" fill="url(#paint3_linear_161_1058)"/>
<path d="M63.7975 6.57422C65.5546 6.66422 67.1742 6.93688 68.8648 7.37109C69.1047 7.43237 69.3445 7.49365 69.5917 7.55679C71.9602 8.18378 74.1994 9.00268 76.4241 9.96094C76.5908 10.0323 76.7574 10.1037 76.9291 10.1772C81.0485 11.9697 84.6387 14.4707 87.9985 17.2449C88.1241 17.3481 88.2497 17.4513 88.379 17.5577C94.9135 23.033 99.4681 30.9698 101.013 38.8477C101.025 39.2459 101.03 39.6448 101.013 40.043C100.63 40.1105 100.247 40.1766 99.8637 40.2422C99.6504 40.2792 99.4371 40.3161 99.2173 40.3542C98.6219 40.4352 98.0693 40.4572 97.4685 40.4414C97.4304 40.2736 97.4304 40.2736 97.3914 40.1023C95.0558 29.9847 89.2192 21.2403 79.5488 15.4659C74.5473 12.547 69.2003 10.7526 63.3545 9.76172C63.386 9.41718 63.4185 9.07271 63.4514 8.72827C63.4694 8.53644 63.4874 8.3446 63.5059 8.14696C63.5709 7.61252 63.6764 7.10019 63.7975 6.57422Z" fill="url(#paint4_linear_161_1058)"/>
<path d="M44.082 39.4325C45.4487 40.2605 46.6733 41.4077 47.1833 42.8317C47.2328 43.3729 47.2611 43.8934 47.2655 44.4348C47.2685 44.665 47.2685 44.665 47.2716 44.9C47.2748 45.2241 47.2768 45.5483 47.2776 45.8725C47.2802 46.3636 47.2911 46.8542 47.3023 47.3452C47.3256 49.3605 47.153 50.6951 45.6266 52.2556C45.487 52.3589 45.3474 52.4621 45.2035 52.5685C45.0644 52.6748 44.9254 52.7811 44.7821 52.8907C43.6154 53.623 42.6477 53.895 41.23 53.8759C41.0729 53.8742 40.9159 53.8725 40.7541 53.8708C38.8328 53.815 37.8074 53.2087 36.4708 52.03C35.487 50.8588 35.0854 49.7942 35.1036 48.3351C35.1027 48.1819 35.1019 48.0288 35.101 47.871C35.1004 47.5496 35.102 47.2281 35.1057 46.9067C35.1105 46.4187 35.1058 45.9313 35.1001 45.4433C35.1007 45.1289 35.1018 44.8145 35.1036 44.5001C35.1018 44.3565 35.1 44.2128 35.0981 44.0648C35.1261 42.68 35.7204 41.467 36.8273 40.4908C38.7597 38.8987 41.6352 38.3303 44.082 39.4325Z" fill="black"/>
<path d="M97.4683 52.3945C97.8514 52.4229 98.2344 52.4521 98.6174 52.4817C98.9374 52.506 98.9374 52.506 99.2638 52.5307C99.8581 52.5891 100.428 52.6841 101.013 52.793C100.913 54.3731 100.609 55.8297 100.127 57.3501C100.058 57.5658 99.9902 57.7815 99.92 58.0038C99.2228 60.1339 98.3123 62.1477 97.2467 64.1484C97.1674 64.2983 97.0881 64.4481 97.0063 64.6025C95.0132 68.3072 92.2322 71.536 89.1474 74.5576C89.0327 74.6705 88.9179 74.7834 88.7996 74.8998C86.1027 77.503 82.754 79.7516 79.3037 81.4805C79.0664 81.5994 79.0664 81.5994 78.8243 81.7208C72.6861 84.7683 72.6861 84.7683 71.1265 84.5972C70.974 84.5548 70.8215 84.5124 70.6644 84.4688C70.5159 84.0789 70.3684 83.6887 70.2214 83.2983C70.1391 83.0811 70.0569 82.8638 69.9721 82.64C69.7783 82.0781 69.7783 82.0781 69.7783 81.6797C69.9185 81.6298 70.0587 81.5799 70.2031 81.5284C74.7586 79.8946 78.8036 78.0814 82.6265 75.3047C82.7612 75.2076 82.8959 75.1105 83.0348 75.0105C90.9156 69.287 95.6104 61.2599 97.4683 52.3945Z" fill="url(#paint5_linear_161_1058)"/>
<path d="M15.9495 52.395C15.9772 52.5121 16.005 52.6292 16.0336 52.7499C18.4492 62.8536 24.1177 71.5952 33.8528 77.3658C36.9599 79.1613 40.1963 80.4881 43.6394 81.6802C43.5391 82.0291 43.4373 82.3776 43.3349 82.7261C43.2783 82.9202 43.2218 83.1143 43.1635 83.3144C42.9979 83.8035 42.804 84.2214 42.5318 84.6684C36.1896 83.9522 29.9453 79.3285 25.4195 75.5915C25.2939 75.4883 25.1683 75.3851 25.039 75.2787C22.1385 72.8484 19.662 69.8386 17.7216 66.7387C17.6358 66.6028 17.55 66.4669 17.4615 66.3269C15.0876 62.5368 12.0691 57.2593 12.4052 52.7934C12.788 52.7259 13.1711 52.6598 13.5543 52.5942C13.7676 52.5572 13.9809 52.5203 14.2007 52.4821C14.7973 52.4011 15.3478 52.3886 15.9495 52.395Z" fill="url(#paint6_linear_161_1058)"/>
<path d="M63.1772 92.4824V101.158H50.2407V92.4824H63.1772Z" fill="url(#paint7_linear_161_1058)" stroke="black" stroke-width="1.68443"/>
<path d="M66.0127 39.0469C74.7105 39.0469 74.7105 39.0469 76.5331 40.5317C77.7614 41.6649 77.8307 42.8929 77.8164 44.404C77.6788 45.7531 76.9811 46.8167 75.9811 47.8125C76.0585 47.9183 76.1358 48.0241 76.2156 48.1331C76.3668 48.3442 76.3668 48.3442 76.521 48.5596C76.6213 48.6982 76.7215 48.8369 76.8248 48.9798C77.2595 49.6823 77.3378 50.3126 77.3318 51.1089C77.3311 51.2772 77.3304 51.4454 77.3297 51.6187C77.3269 51.8795 77.3269 51.8795 77.324 52.1455C77.323 52.3224 77.322 52.4994 77.321 52.6817C77.3184 53.1172 77.3144 53.5528 77.3102 53.9883C76.2137 53.9883 75.1172 53.9883 73.9874 53.9883C73.9868 53.7456 73.9863 53.5029 73.9857 53.2529C74.028 51.2796 74.028 51.2796 73.2675 49.4934C72.2701 48.6759 70.8217 48.8202 69.557 48.8086C69.557 50.5179 69.557 52.2272 69.557 53.9883C68.3874 53.9883 67.2178 53.9883 66.0127 53.9883C66.0127 49.0576 66.0127 44.127 66.0127 39.0469Z" fill="black"/>
<path d="M59.5884 39.4325C60.9482 40.2563 62.1905 41.4091 62.6897 42.8317C62.742 43.3706 62.7101 43.8827 62.6897 44.4254C61.5931 44.4254 60.4966 44.4254 59.3669 44.4254C59.2207 43.9652 59.0745 43.505 58.9238 43.0309C58.4242 42.4833 58.0703 42.2705 57.2901 42.1585C56.3238 42.1184 55.76 42.1465 54.9226 42.6075C53.9652 43.552 54.2142 44.7477 54.2065 45.9581C54.2027 46.3767 54.193 46.7949 54.1832 47.2133C54.181 47.4806 54.1791 47.7479 54.1776 48.0152C54.1744 48.2579 54.1711 48.5005 54.1678 48.7505C54.2912 49.527 54.5517 49.8495 55.158 50.402C55.9799 50.7715 56.9192 50.6901 57.8162 50.6012C58.5048 50.3284 58.5048 50.3284 58.9238 49.8043C59.07 49.3441 59.2162 48.8839 59.3669 48.4098C60.4634 48.4098 61.5599 48.4098 62.6897 48.4098C62.8301 49.7991 62.5107 50.6756 61.5821 51.7965C60.466 52.862 59.2967 53.7051 57.638 53.8751C57.3375 53.8798 57.0368 53.8799 56.7363 53.8759C56.5793 53.8742 56.4223 53.8725 56.2605 53.8708C54.3391 53.815 53.3137 53.2087 51.9771 52.03C50.9934 50.8588 50.5917 49.7942 50.6099 48.3351C50.6091 48.1819 50.6082 48.0288 50.6074 47.871C50.6068 47.5496 50.6084 47.2281 50.6121 46.9067C50.6168 46.4187 50.6121 45.9313 50.6065 45.4433C50.6071 45.1289 50.6082 44.8145 50.6099 44.5001C50.6081 44.3565 50.6063 44.2128 50.6045 44.0648C50.6325 42.68 51.2267 41.467 52.3336 40.4908C54.2661 38.8987 57.1416 38.3303 59.5884 39.4325Z" fill="black"/>
<path d="M52.2673 84.7828C52.4847 84.7796 52.7021 84.7765 52.9261 84.7732C53.1596 84.7732 53.3931 84.7731 53.6338 84.7731C53.8752 84.7716 54.1166 84.77 54.3654 84.7685C54.8759 84.7663 55.3865 84.7658 55.8971 84.7667C56.677 84.7669 57.4565 84.7586 58.2363 84.7497C58.7327 84.7487 59.2291 84.7482 59.7255 84.7482C60.0745 84.7433 60.0745 84.7433 60.4305 84.7383C62.2388 84.7536 62.2388 84.7536 63.0415 85.3221C64.2045 86.4977 64.0192 86.9187 64.0192 88.6516C59.1945 88.6516 54.3698 88.6516 49.3989 88.6516C49.3989 86.3717 49.3989 86.3717 50.285 85.4641C50.9541 84.9273 51.3744 84.7907 52.2673 84.7828Z" fill="black"/>
<path d="M42.3098 42.0352C43.0022 42.3683 43.5044 42.7894 43.8604 43.4298C43.9227 44.2683 43.9299 45.1075 43.938 45.9476C43.9416 46.2267 43.9477 46.5057 43.9562 46.7846C44.0352 49.4004 44.0352 49.4004 43.3291 50.1814C42.4191 50.845 41.8083 50.8784 40.6596 50.8725C39.7493 50.7571 39.3827 50.4026 38.7655 49.8048C38.292 48.9531 38.4755 47.8334 38.4664 46.8885C38.4627 46.6095 38.4567 46.3305 38.4482 46.0515C38.3692 43.4357 38.3692 43.4357 39.0753 42.6547C40.098 41.9089 41.0208 41.8719 42.3098 42.0352Z" fill="url(#paint8_linear_161_1058)"/>
<path d="M95.4746 44.8242C99.7145 44.8242 103.954 44.8242 108.323 44.8242C108.323 45.8761 108.323 46.928 108.323 48.0117C104.083 48.0117 99.843 48.0117 95.4746 48.0117C95.4746 46.9598 95.4746 45.908 95.4746 44.8242Z" fill="url(#paint9_linear_161_1058)"/>
<path d="M5.09473 44.8242C9.33461 44.8242 13.5745 44.8242 17.9429 44.8242C17.9429 45.8761 17.9429 46.928 17.9429 48.0117C13.703 48.0117 9.46309 48.0117 5.09473 48.0117C5.09473 46.9598 5.09473 45.908 5.09473 44.8242Z" fill="url(#paint10_linear_161_1058)"/>
<path d="M54.9365 0C56.1061 0 57.2758 0 58.4808 0C58.4808 3.81305 58.4808 7.62609 58.4808 11.5547C57.3112 11.5547 56.1416 11.5547 54.9365 11.5547C54.9365 7.74164 54.9365 3.92859 54.9365 0Z" fill="url(#paint11_linear_161_1058)"/>
<path d="M58.7461 79.5332V81.0371H54.6709V79.5332H58.7461Z" fill="url(#paint12_linear_161_1058)" stroke="black" stroke-width="1.68443"/>
<path d="M69.5571 42.0347C70.1556 42.0141 70.7542 41.9936 71.3708 41.9724C71.5573 41.9633 71.7439 41.9543 71.936 41.9449C72.8613 41.9296 73.225 41.9683 73.9901 42.4868C74.5827 43.2186 74.5827 43.2186 74.569 43.8276C74.5719 43.955 74.5747 44.0824 74.5777 44.2136C74.3324 44.8987 73.9577 45.1905 73.323 45.6206C72.6641 45.738 72.0391 45.7154 71.3708 45.6829C70.473 45.652 70.473 45.652 69.5571 45.6206C69.5571 44.4373 69.5571 43.2539 69.5571 42.0347Z" fill="url(#paint13_linear_161_1058)"/>
<path d="M61.5825 61.3594C62.7521 61.3594 63.9218 61.3594 65.1268 61.3594C65.1268 62.3455 65.1268 63.3316 65.1268 64.3477C63.9572 64.3477 62.7876 64.3477 61.5825 64.3477C61.5825 63.3615 61.5825 62.3754 61.5825 61.3594Z" fill="black"/>
<path d="M54.9365 61.3594C56.1061 61.3594 57.2758 61.3594 58.4808 61.3594C58.4808 62.3455 58.4808 63.3316 58.4808 64.3477C57.3112 64.3477 56.1416 64.3477 54.9365 64.3477C54.9365 63.3615 54.9365 62.3754 54.9365 61.3594Z" fill="black"/>
<path d="M50.9932 62.2012V63.5059H49.3545V62.2012H50.9932Z" fill="black" stroke="black" stroke-width="1.68443"/>
<path d="M55.1582 94.6289C56.1816 94.6289 57.205 94.6289 58.2595 94.6289C58.2595 95.615 58.2595 96.6012 58.2595 97.6172C57.2361 97.6172 56.2126 97.6172 55.1582 97.6172C55.1582 96.6311 55.1582 95.6449 55.1582 94.6289Z" fill="#1F1F1F"/>
<defs>
<linearGradient id="paint0_linear_161_1058" x1="56.7195" y1="13.9102" x2="56.7195" y2="102" gradientUnits="userSpaceOnUse">
<stop stop-color="#7727F7"/>
<stop offset="1" stop-color="#9D3CE7"/>
</linearGradient>
<linearGradient id="paint1_linear_161_1058" x1="56.7195" y1="13.9102" x2="56.7195" y2="102" gradientUnits="userSpaceOnUse">
<stop stop-color="#7829F6"/>
<stop offset="1" stop-color="#9A3BE8"/>
</linearGradient>
<linearGradient id="paint2_linear_161_1058" x1="56.6984" y1="16.9287" x2="56.6984" y2="75.7679" gradientUnits="userSpaceOnUse">
<stop stop-color="#7829F7"/>
<stop offset="1" stop-color="#9D3CE7"/>
</linearGradient>
<linearGradient id="paint3_linear_161_1058" x1="31.2347" y1="6.56348" x2="31.2347" y2="40.4414" gradientUnits="userSpaceOnUse">
<stop stop-color="#7829F6"/>
<stop offset="1" stop-color="#9A3BE8"/>
</linearGradient>
<linearGradient id="paint4_linear_161_1058" x1="82.1892" y1="6.57422" x2="82.1892" y2="40.4462" gradientUnits="userSpaceOnUse">
<stop stop-color="#7829F6"/>
<stop offset="1" stop-color="#9A3BE8"/>
</linearGradient>
<linearGradient id="paint5_linear_161_1058" x1="85.3955" y1="52.3945" x2="85.3955" y2="84.6564" gradientUnits="userSpaceOnUse">
<stop stop-color="#7829F6"/>
<stop offset="1" stop-color="#9A3BE8"/>
</linearGradient>
<linearGradient id="paint6_linear_161_1058" x1="28.0094" y1="52.3936" x2="28.0094" y2="84.6684" gradientUnits="userSpaceOnUse">
<stop stop-color="#7829F6"/>
<stop offset="1" stop-color="#9A3BE8"/>
</linearGradient>
<linearGradient id="paint7_linear_161_1058" x1="56.7091" y1="91.6406" x2="56.7091" y2="102" gradientUnits="userSpaceOnUse">
<stop stop-color="#7E2BF4"/>
<stop offset="1" stop-color="#9A3AE8"/>
</linearGradient>
<linearGradient id="paint8_linear_161_1058" x1="41.2022" y1="41.9561" x2="41.2022" y2="50.873" gradientUnits="userSpaceOnUse">
<stop stop-color="#7C2AF5"/>
<stop offset="1" stop-color="#9A3AE8"/>
</linearGradient>
<linearGradient id="paint9_linear_161_1058" x1="101.899" y1="44.8242" x2="101.899" y2="48.0117" gradientUnits="userSpaceOnUse">
<stop stop-color="#7829F6"/>
<stop offset="1" stop-color="#9A3BE8"/>
</linearGradient>
<linearGradient id="paint10_linear_161_1058" x1="11.5188" y1="44.8242" x2="11.5188" y2="48.0117" gradientUnits="userSpaceOnUse">
<stop stop-color="#7829F6"/>
<stop offset="1" stop-color="#9A3BE8"/>
</linearGradient>
<linearGradient id="paint11_linear_161_1058" x1="56.7087" y1="0" x2="56.7087" y2="11.5547" gradientUnits="userSpaceOnUse">
<stop stop-color="#7829F6"/>
<stop offset="1" stop-color="#9A3BE8"/>
</linearGradient>
<linearGradient id="paint12_linear_161_1058" x1="56.7089" y1="78.6914" x2="56.7089" y2="81.8789" gradientUnits="userSpaceOnUse">
<stop stop-color="#7E2BF4"/>
<stop offset="1" stop-color="#983AE9"/>
</linearGradient>
<linearGradient id="paint13_linear_161_1058" x1="72.0674" y1="41.9424" x2="72.0674" y2="45.709" gradientUnits="userSpaceOnUse">
<stop stop-color="#7C2AF4"/>
<stop offset="1" stop-color="#8F34ED"/>
</linearGradient>
</defs>
</svg>
