<svg width="27" height="27" viewBox="0 0 27 27" fill="none" xmlns="http://www.w3.org/2000/svg">
<path fill-rule="evenodd" clip-rule="evenodd" d="M6.09017 0.333984H13.2074C13.8387 0.333984 14.3481 0.850554 14.3409 1.48192V2.08458H16.2924C17.4834 2.08458 18.452 3.04598 18.452 4.22978V11.7834H17.2969V4.22978C17.2969 3.68451 16.852 3.23969 16.2996 3.23969H14.3481V4.04324C14.3481 4.67461 13.8315 5.184 13.2074 5.184H6.09017C5.45881 5.184 4.94941 4.67461 4.94941 4.04324V3.23969H2.99793C2.44549 3.23969 2.00066 3.68451 2.00066 4.22978V22.5752C2.00066 23.1205 2.44549 23.5653 2.99793 23.5653H11.1435V24.7204H2.99793C1.80695 24.7204 0.838379 23.759 0.838379 22.5752V4.22261C0.838379 3.0388 1.80695 2.07741 2.99793 2.07741H4.94941V1.47474C4.94941 0.84338 5.46598 0.333984 6.09017 0.333984ZM13.1858 1.49627H6.09017V2.07023H6.1117V4.03607L13.2074 4.01454L13.1858 2.07741H13.193L13.1858 1.49627Z" fill="white"/>
<path fill-rule="evenodd" clip-rule="evenodd" d="M3.58379 17.7691V17.9041C3.58365 17.914 3.58364 17.9239 3.58374 17.9338V18.9598C3.58374 19.2722 3.70528 19.5566 3.90356 19.7684C4.1197 19.9992 4.42704 20.1436 4.76755 20.1436H5.79352C6.13244 20.1436 6.43849 20.0005 6.65447 19.7716C6.85454 19.5595 6.97732 19.2738 6.97732 18.9598V18.8055L6.97737 18.7951V17.7691C6.97737 17.1162 6.44645 16.5853 5.79356 16.5853H4.76042C4.10753 16.5853 3.57661 17.1162 3.58379 17.7691ZM5.81059 18.7952L5.81508 18.7951L5.80074 17.9987L5.79356 17.7476L4.74607 17.7691V17.9337L4.73885 17.9338V17.941V18.4504V18.9598C4.73885 18.9741 4.74603 18.9813 4.76038 18.9813L5.81504 18.9598L5.81059 18.7952ZM8.26879 19.1822H11.1427V17.941H8.26879C7.97463 17.941 7.73787 18.1778 7.73787 18.4719V18.6513C7.73787 18.9454 7.97463 19.1822 8.26879 19.1822Z" fill="white"/>
<path fill-rule="evenodd" clip-rule="evenodd" d="M8.26875 9.25445H14.7259C15.02 9.25445 15.2568 9.01769 15.2568 8.72353V8.54416C15.2568 8.25001 15.02 8.01325 14.7259 8.01325H8.26875C7.97459 8.01325 7.73783 8.25001 7.73783 8.54416V8.72353C7.73783 9.01769 7.97459 9.25445 8.26875 9.25445ZM6.26704 6.82227H6.25986C6.26704 6.82944 6.26704 6.82227 6.26704 6.82227ZM6.26708 10.948H6.25991C6.26708 10.9552 6.26708 10.948 6.26708 10.948Z" fill="white"/>
<path fill-rule="evenodd" clip-rule="evenodd" d="M14.7918 14.3447H8.33471C8.04055 14.3447 7.80379 14.108 7.80379 13.8138V13.6344C7.80379 13.3403 8.04055 13.1035 8.33471 13.1035H14.7918C15.086 13.1035 15.3228 13.3403 15.3228 13.6344V13.8138C15.3228 14.108 15.086 14.3447 14.7918 14.3447Z" fill="white"/>
<path fill-rule="evenodd" clip-rule="evenodd" d="M4.25729 7.78059C4.25729 7.78059 4.25729 7.77341 4.25012 7.77341C4.24653 7.76983 4.24653 7.76803 4.24653 7.76624C4.24653 7.76445 4.24653 7.76265 4.24294 7.75906C4.2402 7.75632 4.23746 7.75463 4.23512 7.75318C4.23133 7.75084 4.22859 7.74915 4.22859 7.74472L4.20707 7.72319C4.21425 7.73037 4.22142 7.73754 4.22859 7.73754C4.21425 7.72319 4.19272 7.70884 4.1712 7.69449C4.16402 7.69091 4.16044 7.68732 4.15685 7.68373C4.15326 7.68014 4.14968 7.67656 4.1425 7.67297C4.13533 7.67297 4.12815 7.67297 4.12098 7.66579C4.07793 7.64427 4.02053 7.62992 3.95596 7.62992C3.86269 7.62275 3.75507 7.6371 3.60441 7.69449C3.59997 7.69449 3.59828 7.69723 3.59594 7.70102C3.59449 7.70336 3.5928 7.7061 3.59006 7.70884C3.53266 7.73754 3.48244 7.76624 3.43939 7.80211C3.43098 7.81052 3.42504 7.81892 3.42012 7.82589C3.41664 7.83081 3.41366 7.83501 3.41069 7.83799C3.40415 7.84616 3.39761 7.85397 3.39123 7.86157C3.36965 7.88732 3.35002 7.91074 3.33895 7.93843C3.33895 7.94286 3.33621 7.94456 3.33242 7.9469L3.3316 7.9474L3.33173 7.94648L3.33177 7.9456L3.33063 7.94802C3.32873 7.94924 3.32667 7.95071 3.3246 7.95278C3.3223 7.95738 3.32147 7.96124 3.32118 7.96484C3.31742 7.97243 3.31742 7.98287 3.31742 7.98865C3.30307 8.0317 3.2959 8.07475 3.2959 8.11779V8.16802C3.2959 8.22541 3.30307 8.27563 3.31742 8.32586C3.32101 8.33303 3.3228 8.34021 3.3246 8.34738C3.32639 8.35455 3.32818 8.36173 3.33177 8.3689C3.33895 8.3976 3.34612 8.4263 3.3533 8.44782C3.36047 8.46935 3.36764 8.48728 3.37303 8.50073C3.37841 8.51419 3.38199 8.52316 3.38199 8.52674L4.6519 10.0908C4.70212 10.1482 4.75951 10.1912 4.83126 10.2199C4.84202 10.2235 4.85278 10.2253 4.86355 10.2271C4.87431 10.2289 4.88507 10.2307 4.89583 10.2343C4.90871 10.2369 4.92251 10.2413 4.9369 10.2459C4.9626 10.2541 4.9902 10.263 5.0178 10.263H5.05367C5.08703 10.263 5.11609 10.2501 5.14417 10.2376C5.15232 10.2339 5.16039 10.2303 5.16846 10.2271C5.18281 10.2199 5.19896 10.2164 5.2151 10.2128C5.23124 10.2092 5.24739 10.2056 5.26174 10.1984C5.32631 10.1554 5.3837 10.1052 5.42675 10.0334L6.84732 7.61557C6.84732 7.61557 6.85449 7.57252 6.86884 7.53665C6.86884 7.52948 6.86884 7.52948 6.87602 7.51513V7.46491C6.89037 7.34294 6.89754 7.16357 6.80427 7.00573C6.75405 6.91964 6.66795 6.83354 6.54599 6.77615C6.53881 6.77615 6.53164 6.77615 6.52446 6.76897C6.45989 6.74027 6.39532 6.72592 6.3451 6.71875H6.29487C6.24465 6.71875 6.19443 6.72592 6.15138 6.74027C6.14421 6.74027 6.13703 6.74027 6.12269 6.74745C6.1191 6.74745 6.1173 6.74924 6.11551 6.75104C6.11372 6.75283 6.11192 6.75462 6.10834 6.75462C6.10834 6.75462 6.10562 6.75462 6.10353 6.75629C6.06608 6.76985 6.0342 6.79392 6.00789 6.81379L6.00072 6.81919C5.99071 6.8242 5.9842 6.83269 5.97873 6.8398C5.97636 6.84289 5.97419 6.84572 5.97202 6.84789C5.9505 6.86942 5.93615 6.88377 5.9218 6.90529C5.90745 6.91964 5.90027 6.92681 5.8931 6.94116C5.88951 6.94834 5.88592 6.95372 5.88234 6.9591C5.87875 6.96448 5.87516 6.96986 5.87158 6.97704C5.85723 7.00573 5.84288 7.02726 5.84288 7.02726L5.11824 8.26846L4.9317 8.59132L4.28599 7.79494C4.27441 7.80073 4.2675 7.79249 4.26149 7.78533C4.26006 7.78362 4.25868 7.78197 4.25729 7.78059ZM6.10353 6.75629C6.10222 6.75734 6.10116 6.75904 6.10116 6.7618C6.10475 6.7618 6.10834 6.76 6.11192 6.75821C6.11551 6.75642 6.1191 6.75462 6.12269 6.75462H6.10834L6.10353 6.75629ZM3.31742 7.98865C3.32101 7.98148 3.32101 7.9761 3.32101 7.97071C3.32101 7.96878 3.32101 7.96685 3.32118 7.96484C3.32208 7.96301 3.3232 7.96135 3.3246 7.95995C3.3246 7.95637 3.32639 7.95457 3.32819 7.95278L3.32904 7.95191C3.32714 7.95698 3.32587 7.96205 3.3246 7.96713C3.3228 7.9743 3.32101 7.98148 3.31742 7.98865ZM5.03932 10.2702H5.00345C4.98051 10.2702 4.96051 10.2643 4.93969 10.2582C4.92794 10.2548 4.91594 10.2512 4.90301 10.2486C4.92192 10.2513 4.93981 10.2551 4.95707 10.2587C4.98565 10.2646 5.01248 10.2702 5.03932 10.2702Z" fill="white"/>
<path fill-rule="evenodd" clip-rule="evenodd" d="M6.39589 11.4197C6.38872 11.4197 6.38155 11.4197 6.37437 11.4125C6.3098 11.3838 6.24523 11.3695 6.19501 11.3623H6.14478C6.09456 11.3623 6.04434 11.3695 6.00129 11.3838C5.99641 11.3838 5.99153 11.3838 5.98439 11.3861C5.98439 11.3861 5.98609 11.3847 5.98694 11.3838H5.97259L5.96542 11.391C5.96805 11.391 5.97068 11.391 5.97331 11.3906L5.97259 11.391C5.96901 11.391 5.96721 11.3928 5.96542 11.3946C5.96362 11.3964 5.96183 11.3982 5.95824 11.3982C5.9152 11.4197 5.87932 11.4412 5.85063 11.4627C5.84062 11.4678 5.8341 11.4762 5.82864 11.4834C5.82627 11.4864 5.8241 11.4893 5.82193 11.4914C5.8004 11.513 5.78606 11.5273 5.77171 11.5488C5.76812 11.556 5.76274 11.5614 5.75736 11.5668C5.75197 11.5722 5.74659 11.5775 5.74301 11.5847C5.73942 11.5919 5.73583 11.5973 5.73224 11.6027C5.72866 11.608 5.72507 11.6134 5.72148 11.6206C5.70713 11.6493 5.69279 11.6708 5.69279 11.6708L4.96815 12.9048L4.78161 13.2277L4.1359 12.4313C4.1359 12.4313 4.12873 12.417 4.12155 12.4098C4.12155 12.4062 4.11976 12.4044 4.11796 12.4026C4.11617 12.4008 4.11438 12.399 4.11438 12.3954C4.11079 12.3919 4.11079 12.3901 4.11079 12.3883C4.11079 12.3865 4.11079 12.3847 4.1072 12.3811C4.10446 12.3784 4.10172 12.3767 4.09938 12.3752C4.09559 12.3729 4.09285 12.3712 4.09285 12.3667L4.07133 12.3452C4.0785 12.3524 4.08568 12.3596 4.09285 12.3596C4.0785 12.3452 4.05698 12.3309 4.03546 12.3165C4.02828 12.3129 4.02469 12.3093 4.02111 12.3058C4.01752 12.3022 4.01393 12.2986 4.00676 12.295C3.99958 12.295 3.99241 12.295 3.98523 12.2878C3.94219 12.2663 3.88479 12.2591 3.82022 12.252C3.72695 12.2448 3.61933 12.2591 3.46866 12.3165C3.46508 12.3165 3.46328 12.3183 3.46149 12.3201C3.4597 12.3219 3.4579 12.3237 3.45431 12.3237C3.39692 12.3524 3.34669 12.3811 3.30365 12.417C3.29524 12.4254 3.2893 12.4338 3.28437 12.4407C3.28089 12.4457 3.27792 12.4499 3.27495 12.4528C3.26841 12.461 3.26186 12.4688 3.25549 12.4764C3.23391 12.5022 3.21428 12.5256 3.2032 12.5533C3.2032 12.5577 3.20046 12.5594 3.19668 12.5618C3.19434 12.5632 3.1916 12.5649 3.18886 12.5676C3.18527 12.5748 3.18527 12.5802 3.18527 12.5856C3.18527 12.591 3.18527 12.5963 3.18168 12.6035C3.16733 12.6466 3.16016 12.6896 3.16016 12.7326V12.7829C3.16016 12.8403 3.16733 12.8905 3.18168 12.9407C3.18527 12.9479 3.18706 12.9551 3.18886 12.9622C3.19065 12.9694 3.19244 12.9766 3.19603 12.9838C3.2032 13.0125 3.21038 13.0412 3.21755 13.0627C3.22473 13.0842 3.2319 13.1021 3.23728 13.1156C3.24266 13.129 3.24625 13.138 3.24625 13.1416L4.51615 14.7057C4.56638 14.7631 4.62377 14.8061 4.69552 14.8348C4.70628 14.8384 4.71704 14.8402 4.7278 14.842C4.73857 14.8438 4.74933 14.8456 4.76009 14.8491C4.77296 14.8517 4.78676 14.8561 4.80116 14.8608C4.82686 14.869 4.85446 14.8778 4.88206 14.8778H4.91793C4.95129 14.8778 4.98035 14.8649 5.00843 14.8524C5.01658 14.8488 5.02465 14.8452 5.03272 14.842L5.0472 14.8385C5.07287 14.8323 5.10195 14.8253 5.12599 14.8133C5.19057 14.7702 5.24796 14.72 5.29101 14.6483L6.71158 12.2304C6.71158 12.2304 6.71875 12.1874 6.7331 12.1515C6.7331 12.1443 6.7331 12.1443 6.74028 12.13V12.0798C6.75462 11.9578 6.7618 11.7784 6.66853 11.6206C6.65046 11.6061 6.63194 11.5899 6.61238 11.5727C6.5543 11.5216 6.48714 11.4626 6.39589 11.4197ZM5.97331 11.3906C5.97701 11.3901 5.9807 11.389 5.98439 11.3861C5.98121 11.3871 5.97759 11.3885 5.97331 11.3906ZM3.18168 12.625C3.18168 12.6179 3.18168 12.6035 3.18886 12.5963C3.18886 12.5927 3.19065 12.591 3.19244 12.5892L3.1933 12.5883C3.19139 12.5934 3.19012 12.5984 3.18886 12.6035C3.18706 12.6107 3.18527 12.6179 3.18168 12.625ZM4.87488 14.9065C4.85195 14.9065 4.83194 14.9007 4.81112 14.8946C4.79938 14.8911 4.78737 14.8876 4.77444 14.885C4.78764 14.8872 4.80151 14.8901 4.81565 14.893C4.84761 14.8996 4.88091 14.9065 4.91076 14.9065H4.87488Z" fill="white"/>
<path d="M20.6714 12.5654C20.6813 12.5675 20.6983 12.5728 20.7319 12.5801C21.1305 12.6666 21.7433 12.8751 22.0308 13.1885C22.318 13.5019 22.512 13.8749 22.5913 14.3096C22.6307 14.5255 22.6516 14.6912 22.6343 14.9004H24.4595V14.9043C25.0198 15.0094 25.3941 15.1963 25.3941 15.1963C25.41 15.2093 25.9007 15.6114 26.1411 15.9434C26.3278 16.2016 26.4448 16.6609 26.5152 17.0645V18.3721L26.5103 18.4414C26.4873 18.5988 26.3924 18.7415 26.3286 18.9326C26.1449 19.3 25.9606 19.4872 25.9546 19.4932L25.728 19.7197L25.7681 19.7383V20.4893H25.7691V23.2305L25.7739 23.4316C25.773 23.6334 25.7531 23.8363 25.7134 24.0361C25.5908 24.652 25.2785 25.2151 24.8345 25.6592C24.3903 26.1031 23.7688 26.2837 23.1528 26.4062C23.0698 26.4228 23 26.4529 22.9663 26.4531V26.4541H16.9361V26.4531H14.6919V26.4521C14.6583 26.452 14.5887 26.4219 14.5054 26.4053C13.8893 26.2827 13.2679 26.1024 12.8237 25.6582C12.3796 25.2141 12.0674 24.6521 11.9448 24.0361C11.9051 23.8362 11.8853 23.6335 11.8843 23.4316L11.8892 23.2295L11.8882 20.4883H11.8902V19.7373L11.9302 19.7188C11.8165 19.6051 11.7081 19.4977 11.7036 19.4932C11.7022 19.4918 11.5157 19.3049 11.3296 18.9326C11.2657 18.741 11.1707 18.5983 11.148 18.4404L11.1431 18.3721V17.251H12.4507V18.3721L12.4546 18.4375C12.4738 18.5822 12.556 18.6649 12.6372 18.7461C12.8851 18.994 13.051 19.0775 13.189 19.1602L13.1978 19.1572V19.165L13.1987 19.166V19.1602L16.9859 20.002V19.9658L18.0601 20.1973C18.0648 20.1138 18.0808 20.0315 18.1128 19.9541C18.1504 19.8634 18.2055 19.7803 18.2749 19.7109C18.3442 19.6417 18.4266 19.5864 18.5171 19.5488C18.6076 19.5114 18.7053 19.4922 18.8032 19.4922C18.8147 19.4922 18.826 19.4946 18.8374 19.4951C18.8432 19.495 18.8492 19.4941 18.855 19.4941C18.9527 19.4942 19.0498 19.5135 19.1402 19.5508C19.2307 19.5883 19.314 19.6436 19.3833 19.7129C19.4525 19.7822 19.5079 19.8647 19.5454 19.9551C19.5641 20.0003 19.5779 20.048 19.5874 20.0957L19.5972 20.1953L20.6724 19.9639V20.0029L24.4595 19.1611V19.166H24.4605V19.1572L24.4693 19.1602C24.6071 19.0776 24.7725 18.9936 25.02 18.7461C25.101 18.6651 25.1832 18.5825 25.2027 18.4385L25.2075 18.3721V17.251C25.2459 17.1262 25.2019 16.9662 25.1792 16.8359C25.1542 16.693 25.0479 16.5437 24.9575 16.4404C24.8671 16.3372 24.6437 16.2298 24.5181 16.2012C24.4924 16.2012 24.5014 16.2012 24.4595 16.2012V16.1963H16.9859V16.1953H13.1978V16.2002C13.1562 16.2002 13.1657 16.2002 13.1402 16.2002C13.0146 16.2287 12.7912 16.3361 12.7007 16.4395C12.6103 16.5427 12.504 16.6919 12.479 16.835C12.4563 16.9653 12.4123 17.1251 12.4507 17.25H11.1431C11.143 17.0638 11.1431 17.2502 11.1431 17.0635C11.2134 16.6598 11.3303 16.2005 11.5171 15.9424C11.7606 15.6061 12.2606 15.1982 12.2642 15.1953C12.2691 15.1929 12.6413 15.0077 13.1978 14.9033V14.8994H15.023C15.0056 14.6901 15.0265 14.5247 15.0659 14.3086C15.1453 13.8739 15.3392 13.5009 15.6265 13.1875C15.9139 12.8741 16.5267 12.6657 16.9253 12.5791C16.959 12.5718 16.9759 12.5665 16.9859 12.5645V12.5312H17.1216V12.5303H20.6714V12.5654ZM13.1978 19.3857V20.6133H13.1968V23.2295H13.1978C13.1788 23.402 13.1684 23.5779 13.2027 23.75C13.2686 24.0811 13.4318 24.3852 13.6704 24.624C13.9094 24.863 14.2919 25.164 14.6655 25.1641C14.6647 25.1638 14.6441 25.1588 14.6919 25.1641V25.167H20.7222V25.168H22.9663V25.165C23.0127 25.1599 22.9945 25.1646 22.9927 25.165C23.3662 25.1649 23.7489 24.8639 23.9878 24.625C24.2265 24.3862 24.3896 24.0811 24.4556 23.75C24.4726 23.6642 24.4785 23.5769 24.478 23.4902L24.4614 23.2305V20.6143H24.4605V19.3867L24.4595 19.3857V20.5L19.6021 21.5488V21.7363L19.5874 21.8818C19.5779 21.9295 19.5641 21.9774 19.5454 22.0225C19.5079 22.1127 19.4524 22.1955 19.3833 22.2646C19.314 22.3338 19.2306 22.3893 19.1402 22.4268C19.0499 22.464 18.9526 22.4833 18.855 22.4834C18.843 22.4834 18.8309 22.4801 18.8189 22.4795C18.8136 22.4796 18.8085 22.4814 18.8032 22.4814C18.7053 22.4814 18.6076 22.4622 18.5171 22.4248C18.4267 22.3873 18.3442 22.3319 18.2749 22.2627C18.2057 22.1934 18.1503 22.111 18.1128 22.0205C18.094 21.9752 18.0803 21.9278 18.0708 21.8799L18.0562 21.7344V21.5479L13.1987 20.499V19.3848L13.1978 19.3857ZM16.9331 13.8545C16.7979 13.905 16.6375 13.9908 16.5611 14.0742C16.4591 14.1855 16.3392 14.3467 16.3111 14.501C16.2884 14.6253 16.2746 14.7736 16.3013 14.8994H20.6714V14.9004H21.356C21.3827 14.7746 21.3688 14.6253 21.3462 14.501C21.3179 14.347 21.198 14.1863 21.0962 14.0752C20.9941 13.964 20.7426 13.8482 20.6011 13.8174H17.0562L16.9331 13.8545Z" fill="white"/>
</svg>
